<mxfile host="app.diagrams.net" modified="2020-11-08T16:52:03.355Z" agent="5.0 (Macintosh; Intel Mac OS X 10_15_7) AppleWebKit/537.36 (KHTML, like Gecko) Chrome/86.0.4240.111 Safari/537.36" etag="cCMmhAGUtOUl6Y9rWozj" version="13.8.8" type="github">
  <diagram id="aoiQT1OglqEhxXpXzLPJ" name="Page-1">
    <mxGraphModel dx="1426" dy="794" grid="1" gridSize="10" guides="1" tooltips="1" connect="1" arrows="1" fold="1" page="1" pageScale="1" pageWidth="850" pageHeight="1100" math="0" shadow="0">
      <root>
        <mxCell id="0" />
        <mxCell id="1" parent="0" />
        <mxCell id="4RBpolo6jmpxZsEJyRAW-1" value="" style="shape=image;verticalLabelPosition=bottom;labelBackgroundColor=#ffffff;verticalAlign=top;aspect=fixed;imageAspect=0;image=data:image/png,iVBORw0KGgoAAAANSUhEUgAABa4AAAPICAYAAAAxHmx2AAAgAElEQVR4AezdeZMdVZ7m+XoH9Wqq/5nqHqsZmykbm5qpnpka6+7srpzKqszOhSSTXMkkF8hkS0iWZN93EKvYV4EAISQWSYBAIATa9z20SyEp5GOPi3PxuHFvKJYbUlzFx80cv9f9+PHjX/9GCHvi2M//qrIggAACCCCAAAIIIIAAAggggAACCCCAAAIIIDCNCPzVNBqLoSCAAAIIIIAAAggggAACCCCAAAIIIIAAAgggUAmuSYAAAggggAACCCCAAAIIIIAAAggggAACCCAwrQgIrqfV4zAYBBBAAAEEEEAAAQQQQAABBBBAAAEEEEAAAcE1BxBAAAEEEEAAAQQQQAABBBBAAAEEEEAAAQSmFQHB9bR6HAaDAAIIIIAAAggggAACCCCAAAIIIIAAAgggILjmAAIIIIAAAggggAACCCCAAAIIIIAAAggggMC0IiC4nlaPw2AQ+JrA0k8+rx6b/WJ17Y13Vxdddn31+0v+Mq415+Tc9JG+erF8vnlO9fLHF1b3vf1P1S1z/0N102v/w2lZc61cM9fOGCwIIIAAAggggAACCCCAAAIIIIAAAmc3AcH12f183V0fEkjInMB5vEH1qdqnz4kG2AmLExyfrqD6VNfJWATYfSi3ISOAAAIIIIAAAggggAACCCCAAAJjJCC4HiMozRA4HQRemjOv54F1e6Cda4xnmb/ihmkTWLcH2hmbBQEEEEAAAQQQQAABBBBAAAEEEEDg7CMguD77nqk76lMCpyO0LiH2WMPr6RxalxBbeN2nwhs2AggggAACCCCAAAIIIIAAAgggMAoBwfUocBxC4HQRSAmPEipPZnvplbdU1950T3XJFTedsr9TlQ1JKY4SDpftnfP+t2rR6nurNTveqdbueKdatPqB6q63/mFEu9L+mQ9+Ws397IrqtU8v69jmlrn/vnrny9urVdve+qq/+6vb3vyfO7Z9aOF/qW6e++87HlM25HSZ6joIIIAAAggggAACCCCAAAIIIIDA6SEguD49nF0FgVEJ9Kqm9dZtO+rrvL946SmD61xztKW9pvWryy6phk4cG3HKiRND1ZvLrx4RKCeUzrGyPPfhL4e1uX/B/1sdO364HG5tc42nl/y41fbDdY9WJ06cqI9nu2PfyurR9/+tdTwhecZqQQABBBBAAAEEEEAAAQQQQAABBBA4ewhMWXC97LMV1aLFHw5bP/1sxZjIffnl6mHnNftZsWJlq4+du3ZVs59+fsR64ODBVpvp8OHQocNVxt1cc48ljJsOY5zuY/j4k087OvHZGJ0q9zc0NNSxn6Zjzc+LF39UrVm7vjp0eGTAWvpsbtet39Cx/6PHRga+5bzJzra+4prbq+Wfr6z27t1XuqzGElxnZne3Wdfts61nvfPfWr4eHzpardw2r/py6xvV8aHB+ppxedY73xgWJifMbi6bdn807PjOfavqw0NDx6qVW9+sVmyZ2wrGjx4/XLd9/qNft7rYf2R76/iRo3uH9ZXw2qzrFiofEEAAAQQQQAABBBBAAAEEEEAAgb4nMGXB9Te++YPqb//uH4et//yv554S2LvvLRl2Tnsfz7/4aquPj5Yu69h27dr1rTbT4cN773/QcZzTLWCfDqw6jWH37j0d+RU38oeBsS4Jd8t5493+x3/6VnXTLXdXAwN7ul7uL9ff1rH/zVu2dj3nsdkvjjo7etv2nXVw/uHSz1rt1qzdUO/75LMV1S13zBrR91iD61y70/LyxxcOC4Y37P6w1ey+t/+v1rE75/3vrf1b9yxv7U+QvHP/6vpYmXWdmdTNUh8Jp7Os3r6wdd78z6+vjh47VK+3v/G/1IF22qSv9Pn2ihtP9lmdaJ2T/VkzZgsCCCCAAAIIIIAAAggggAACCCCAwNlBYFoF10s/7hxEl4DxuRfmDKM+nuD6qWdfqi74/WXD1scef2ZYf1P1RXA9ObL5Y0VxoNN23lsLxnyByQTXzWs/Pvu5jtecSHB9qjIhq9duqK81OHi0Dq4vuuy61uznV+cuqPdddtWtVda0yTLW4LpbuZD2MiGHBgfqfg93mOl8cHDXiGMJnU9UJ8t7LPzytvp4/pN61yVo3nf4ZJifdjv3r6kWrb6/enDhf2odT7vUz3743f/vq+03q4GDG+u+9h/ZMaxd2ioX0sLsAwIIIIAAAggggAACCCCAAAIIIND3BKZNcJ0yGs1gsP3zs8+9MgL2eILrK666cUT/f7xkeCmDERfo0Q7B9eRAfv/c80c8u6Yf+YPEWJdeBde5/utvzh9x2YkE1xdddn1rJnWnFzM+8PBTretce9O91RPPvFx/T3mOP/7phmHnHhk8WbpjrMF1rt1puWXufxgWDJfa1nkpYwmeyzZlPrJkZnXZlxc4ntx3okqt6xJupz51afP8h+e3wu268Vf/SRmQ9pc5PvzuN5tN6pnXpZ+yzZgtCCCAAAIIIIAAAggggAACCCCAAAJnB4FpEVyntMff/8M3uoaTTz97MqhrRy64bidy9n3fuGlLVy+a4fVo5TuaVHoZXMfZnTtPzjYu15iK4Dph9uDRkzWy3164pFq5em19uS1btw8LrdNuqoLrlO/I0gyeS2C8Zc9n9bHUqi779h3eVu8bOLC+umPe31crtrxWf8/s6ltf/59a7fKCxk83vlilfnWZoZ2G+dx8AeO98/9jtefQxtZM8yNHD7T6KNcUXNeI/QcBBBBAAAEEEEAAAQQQQAABBBA4Kwic8eA6tX9TO7gZQjY/p8RHt2Xbtu3VfQ88NmLdt2//iFPMuB6BpC92zHr0ya5uND15/qWTweipbqpbcB0Hb7/rgWHrjTffXf3mwstHvf6td9w37JITCa5PVSokgXRevphlx85drXD6qWfnTDq4HmupkIGDJ8uVNMPpEhiXFzQmrM6+1MAebXnny9vrdu+turvKzOyE1znvlrn/Y/XOyjtbp3647vHquQ9/WeUlj5lxnTavf/bn1vFnPvhpva+MQ6mQFhofEEAAAQQQQAABBBBAAAEEEEAAgb4ncEaD6527dlX/9I3vdA0Gn3q684vjJkK9l8H10NBQa+bnWMYynlIhx44dH0uXp2wzNHSiOnJksMpYp2JJ/1O9pBRGp5d8NgPr8vmHP7lgTMPpFlxfctm1Xc/fv/9AlePlWs3tz86/aNh5EwmuT/VyxgTXt939cH2dMMmS55r97et4Z1yP9eWMCZHLsmj1A63AuFm/evmml+v9yzZ8Xf874y1rOT8zpxM2l/Ijm3YvrUPr7MvLHss9pub1tj3L69MyqzvHU++6LK8uu6Q1jhzzcsZCxhYBBBBAAAEEEEAAAQQQQAABBBDofwJnLLhOgPjP/3puxzAwweDsp58/Jd2t27ZVd947a8SavrPs2jVQvf7G/Hr97jm/GHGtb33nvNbxDz76uOv1tmzdVmXm91XX3lx9+3s/bfWT83930RXVI489VZVrdupktOD60KHDdd8JRsvM82z/cPFV1aOPP10dPHiwU5cd973z7uIqM4DP+/nvWmMMy/SXsS9a/OGoQXZmvz8w64lha5nxnhA8L8dMQFzKuqTfBLf3P/h4lXC318sXX6wadh/NwLjT5zynUy0TCa7TZ55Due/mtbOvuUwkuF76yecjAuj2QDrfDx0+3LrUmrUbOp4z3uA61+60fL55zrBQOMFwXsxYlmPHD1dZy5JSIpkxnXapUZ0lL1LM97KWciE5lpcubtj9YTm9DqsPHNlZ18nOzoTXmYn93qp7Wm3ygsjjQydfPpl62ilBUvrONmO2IIAAAggggAACCCCAAAIIIIAAAgicHQTOSHCdELBTkFwCwSeePHVoHfynqnH97ntLxhx8ZjydlldfmzfmPm6+9d5q8KuX4zX76hZcf/Lp56POOA+PhPvrN2xqdjfi88DevXXQXfiNtv3Rz35bpW50p6XTOBNOJ9AebWZ8rpcAd+7rb3XqdsL7brvz/o7sE6B3uscE/adaJhpcp99fXnBxx+s2Q/uJBNfpeyzlQj5Yuqx1e3lhY6dw+/CRI3WbsbycsVuZkHKRlN5oBsMPLvxPdRhdjpdtSoSUUh7Nlyi+u/KOYec//v53yinVB2sfqYPuzQMj/2CUQPyVZX9snbtp90et8/Ih5UqaxzNGZUKGIfIFAQQQQAABBBBAAAEEEEAAAQQQ6HsCpz24zszd9hnBzRDy8dlflxk4Fd2pDK4TQF96eefyEM3xtn/OzOb2pVMg3H7eqb6vWr2mvdv6+/LlX3ScCTxafwmZO4XX3cY51nIduWa3cXYc/Cg7jx8/3vG+vn/u+fUfBzrdX0L+Uy2TCa5//qs/dAyud+/e07rsRIPrsc667hRWT3Rft9nW5WY6zbpOSJwXJSY4zpp61s1weyKfM3P62Q9+Vr326eXVI+99q7p57r8f0WfavPTxb6snF/+wNbO7eS2zrctTs0UAAQQQQAABBBBAAAEEEEAAAQTODgKnNbjOrN3RXnb3+BPPjovqVAbXKVXSKRwdy77nnh9esqBbIDyWvkqbhOjty9Fjx8ZcA7r0U7YJo5ulJ9J3L8aZUiq9WFK6pYy1uX3yqxIyl/3puo7HTxWcTzS4Tk3vbrPO02dZJhpc5/yX5szrOIt6osH0aOflWmNZ5q+4YUSI3AyMp8PnjNGCAAIIIIAAAggggAACCCCAAAIIIHB2ETitwXUzgGz/3CmYPRXqUwXXGzdurm6/64F67RQ6pgxGOZ7yE2XZt29/x9m+ZcwpK9Jt9m3apN/mcqpAOLWyr7nu1uryK68f9bq7dw80u61SUqWMqX2bmd8ptXHhH67s2ub1N+cP6+9U48xM7T9ecnVd1zuf269Zvu8/MPa63MMG0Pjy52tu6th/qWM9f8F7HY/fde+sRi8jP040uO5WniTPurxMMFebTHCd809HeD3W0LrQm87htdC6PCVbBBBAAAEEEEAAAQQQQAABBBBA4OwiMG2C6wSh27ZtHxfdUwXXzc6uuOrGEUFnQthOS8LsEsI2tylT0SwLkZdDdnvBZOpCl2W0QPjBh2dXmc1bljBIGNq8bvn86WcrSrN6HGV/c5tzN236+to5YdlnKzr2l/C9uYw2zrwEc6zj/PLL1c1ux/05M8Gb91Q+N+uQHzh4sGOb3P/Q0FDXa3YLrlO+Zu3a9cPWL1eurhYsfL/qNrs744pXzWWywXX6SgmPsdS8Hm1Gdadj6fNU5UGa99L8nFIc7TWvz+Rs64xFeZDmE/IZAQQQQAABBBBAAAEEEEAAAQQQOLsITJvgOiHgD39yQZXaxmNdpiq47jabuFNd6HnzF3YMUOe8+mbrNroFwnlRYqflnvse6djnosUftpovWLioY5tZjz7ZatP88NSzL3Vsv33HzlazbuPMSwk7hcHdZiGHyWSWbkzbS8l0Kzvz8SfLu16+W3BdwvHxbl9/Y/is9V4E12XwCZkfm/1iHWJfdNn14y4jknMSVqePiQbWZSxlm7D45Y8vrEPsW+b+h9NWRiTXSlidawusy9OwRQABBBBAAAEEEEAAAQQQQAABBM5eAtMquE5omNB2rMtUBNcHDx7qGPDefOu9HYeVl01m5vYfLr5q2PrGm2+32ncLhN9e+F6rTfPDwnc6h9LvvLu41SwhbqeQdeeuXa02zQ8JqDu1f+rpF1vNuo3z5Tmvt9o0P3z8yacd+3z1tbHVT2721fzcLZBu/8NB/jjQ6Z6uu+H2ZnfDPvcyuM4s7fZAv5fB9bCB+4IAAggggAACCCCAAAIIIIAAAggggMAMIjDtgusEkQmkx7JMRXC9Zu36jmHovPnvjmVIHdt0C4RXr1nXsf269Zs6jqEZdHcLSFMqo9vaKeS96Za7W2PoNs5miZJW46qqS7t06nMywfXAwJ6O95464O1LyrZ0un5mzA8ODrY3r7/3KrgO4127htcczwW6PZdm6ZiOA7MTAQQQQAABBBBAAAEEEEAAAQQQQAABBFoEzkhwnXAvLwbsFDpmX0LBBJinWqYiuH73vSUdx5U60RNdugXCCVE7LZlZ3IlNM7jObN9Obca774o/39AaQrdxNut6txpXVdVtFvdkguvnX3qt431dctm1VYL+9jWudLrnd95b0hxq6/Nkg+tcLyVSugXjgusWah8QQAABBBBAAAEEEEAAAQQQQAABBBCYMIHTHlz/+ZqbWuUVLr/y+o6hY4LIC35/2bCXAXa6w6kIrrsFp3lR30SXboFwXjDYaRlLcP2Nb/6gK7tOQW63fXnxYFnGO86pCK5T57zbWMez/9LLry23NWzbLbjOLO342L5ec92tVeqG5w8tn3z6eZXSMKMtguvR6DiGAAIIIIAAAggggAACCCCAAAIIIIDA2Aic1uA6s1WbNYH3HzhYz67uFkjOfvr5Ue9iKoLr+Qve6xicfrKs+wv/Rh1kVVXjDYTHElz/6reXdhzn9889vxrP+shjT7WGP95x9jq4TjmNbi5MZH+nPwx0C64zo7sXi+C6FxT1gQACCCCAAAIIIIAAAggggAACCCAw0wmc1uD6n//13BG8EwiPFkp+8cWqEeeUHVMRXGdmdafxzH39rXLZYdsE8QsWvl+ljEdzbdY0Hm8gPJbg+rY77x8xzgTWk1nGO85eB9cJ0Tuxn+i+Ts9McD0ZQ5yLAAIIIIAAAggggAACCCCAAAIIIIDA6SFwxoPr3Obd9z7cNbBMSYyDXUpqTEVw3S3YbNaCbj6absH708++3Go23kB4LMH1C11qQXervXzixIm6LnOON9ehoRMTHmcvg+uMr1flT0rQ/csLLm7dW/nQ7fmacV0I2SKAAAIIIIAAAggggAACCCCAAAIIIHDmCUyL4ProsWPVd8/5RdfwOnWHOy2TDa5/d9EVnbqtUu+4hJ/Nba7XvqQGcrNN+fz5ii9bTaciuF768bKO173hpjtb121+SJBextbcLnxnUavZeMfZy+C620z3PIv80WC0dbRa6bt2DbTuLx8E18Nw+IIAAggggAACCCCAAAIIIIAAAggggMC0JDAtguuQWb9hU8dgtYSsc16bNwLgZIPrf/rGd6p9+/aP6PeBWU90HEtqdL/+xvwqYej+/Qeqbi9yTLuE8WUZbyA8lhnXhw4d7lof/OZb760SnKeMyfHjx6sXX36t4/2E7cDevWWY467F3cvg+va7Hug4xvsffLw1vtE+/Ohnv+14/rPPvTLsNMH1MBy+IIAAAggggAACCCCAAAIIIIAAAgggMC0JTJvgOnS6lb8o4XXC7eYynuC628zo0nezrEReGtlt1nVpP9o24XZzmYrgOv13u//RxtY8dtMtdzeHecaC6wTs3XivWr1m2Bi7fXnq2Zc6BteZyd9cBNdNGj4jgAACCCCAAAIIIIAAAggggAACCCAwPQlMq+A6dY5/c+HlHQPIBK7f/t5P6/rMBWW34Hbt2vWlSWt7qhf/tQecjz/xbNdxNMPf9s8//9Uf6pnOrQtX1bgD4bHMuC79J3xuH8NYvudFmUeODJZu6u14A/Zezbju9hxT83qsS16G2e2+w7MsgutCwhYBBBBAAAEEEEAAAQQQQAABBBBAAIHpS2BaBdfBtHv3nq6zbxNMNmcJdws8OwXXW7Zu6xpspt/24DqzgMcbXn//3PM7vkhyvIHweILrw4ePVKlr3S207bT/iqtu7Mk4exVcX3XtzR3H/+CsJ8b1k/Ot75zXsZ9Zj8xu9SO4bqHwAQEEEEAAAQQQQAABBBBAAAEEEEAAgWlLYMqC68zobQ9NEyyOZVm0+MMR5zb7WrFiZd3Nx58s79iuOcO2eb1PP1tRJVxu9lU+twfX5bzly7+oUgu7tOu2nfXok8PqWpfzs128+KOO56dOdadl67bOIfu77y3p1Lzel5Ia3eo8lzGnHMe8+Qu79jHecabWd+m7uX39zeGlUrpesKqqzLLvViZkTYeZ86P19eDDszuOJ8+8LCkD0xxr+dztBaDlvLFuu82A37Z951i70A4BBBBAAAEEEEAAAQQQQAABBBBAAIEZT2DKguvpTDazbhOKJsj+7LMV1cqVa6qUmui2ZPZ1wuQE6o/Pfq5KvewElAmrM5u6veRGt36men9C4G3bdtRB+eynn6/H+Njjz1TvLfqgHv/Q0ImpHoL+EUAAAQQQQAABBBBAAAEEEEAAAQQQQACBSROYkcH1pKnpAAEEEEAAAQQQQAABBBBAAAEEEEAAAQQQQGDKCAiupwytjhFAAAEEEEAAAQQQQAABBBBAAAEEEEAAAQQmQkBwPRFqzkEAAQQQQAABBBBAAAEEEEAAAQQQQAABBBCYMgKC6ylDq2MEEEAAAQQQQAABBBBAAAEEEEAAAQQQQACBiRAQXE+EmnMQQAABBBBAAAEEEEAAAQQQQAABBBBAAAEEpoyA4HrK0OoYAQQQQAABBBBAAAEEEEAAAQQQQAABBBBAYCIEBNcToeYcBBBAAAEEEEAAAQQQQAABBBBAAAEEEEAAgSkjILieMrQ6RgABBBBAAAEEEEAAAQQQQAABBBBAAAEEEJgIAcH1RKg5BwEEEEAAAQQQQAABBBBAAAEEEEAAAQQQQGDKCAiupwytjhFAAAEEEEAAAQQQQAABBBBAAAEEEEAAAQQmQkBwPRFqzkEAAQQQQAABBBBAAAEEEEAAAQQQQAABBBCYMgKC6ylDq2MEEEAAAQQQQAABBBBAAAEEEEAAAQQQQACBiRCYkuD68NGh6r9ev7IaOHhsImM6bee89dm+6r/dsGrE9bL/nzvsH9HQDgQQQAABBBBAAAEEEEAAAQQQQAABBBBAAIGeE5iS4Hrep3ur79+5tueD7XWHCdaXrDowotvd+49V76/cP2K/HQgggAACCCCAAAIIIIAAAggggAACCCCAAAJTT2BKgutLZ2+q7ntzezU0dKK68eUt9ezlzGy+7KlNVWZjZ/nVg+ur2+Zsrb57x5p61vPNr2ytTnx1v9v2HK1+8cD6ev85d62tPll/qD7y4Pwd1bUvbK5+9dDJYz+6Z121c9/R+ljC5gsf21ifkz4fXrCj3r9j39H6Gne9vq36l5tW1+trH++pjy1de7D66f3r6s/N/2T/z+9fX+/6dMOheiyZQZ4wfuWWI/X+vYeOVxfM2lDPLP/mjauqWW+fvF7u79u3rqkeWbCz+tbNq6scK2NpXsNnBBBAAAEEEEAAAQQQQAABBBBAAAEEEEAAgc4Eeh5cnzhR1eHx2u2DdZibwDch9rtf7K8D7Gue31yPJIFujr32yZ7qqfd3Vd+4bmX18bqDdXid4DeBdUp2XPXc5vpYguK/vLCl/nzDS1urF5YM1NfJ5ywJyxNYZ6b0k++d7G/LwGC1efdgfU76XLhif3XN81vq6x49fqLu/1SlQv77bWuqK5/ZXH2w+kD1ywfWVz++52TQneA9QfgrS/dUT7+/u75GZpofGhyqP+dYvv/+0Q319xLYd34M9iKAAAIIIIAAAggggAACCCCAAAIIIIAAAggUAj0PrjNbOTONsyQsLkF1vmfmcakdneA6M67LctFjG+vZ2Tk/IfaGnSdnNmcWdsLlFz8YqIPrhNNlufr5zfXM7Xxf8Pm+as22w9Xg0RP1DO30kX0luC4lQdJfrp0gfSw1rtP2N49sqDILPOH5B6sP1tv0n2C6LAmyM+O7BNe5dpb9h4/X9/PF5sOlqS0CCCCAAAIIIIAAAggggAACCCCAAAIIIIDAKAR6HlxnBvR1L26pL5kZ1a98dLIsR3bMX76vDnHzOYFwZiuX5fbXttWzrJ9fcnL2coLh5vrAWzvq4DohcllunbO1Vepj4Yp9dWCecxKOZ9sMrlNKpCwpMXLLnK1jCq4z5gTn6S9B/NxP9lQrNh+uvzf7zGzw8+5d1wquE6KXJeem5IgFAQQQQAABBBBAAAEEEEAAAQQQQAABBBBA4NQEeh5cZ7b1R2sO1ldOTej7521vjSLh87l3n3xpY4LrlAgpS2Ysp651ZjEn6N2+92gdAmcGc2Zhp5Z1wuGU3ihLCa5TSzth9cVPbKzywsXMqk5o3gyumzO4cyxjOdWM6zJ7O+VPPtt4qFVDOzOvM8bsK0tqYmc8Zcb1uh2D5VDdVnDdwuEDAggggAACCCCAAAIIIIAAAggggAACCCAwKoGeBtcJazM7OUFvlrvf2FbPUs7+1JROmY+8JDFLgut8T+3nvHwxYfJD83dUO/cfq4PeO+Zuq8/JDOeExJnl3C24Th85P7O1c+3H3tlZn/PWZ3tbpUJSVuT40IlW/ev01wyuF606UNeqztiyP0F4guv0mzGU/fmecPon962rQ/SE2ClHkv0J2AXXNSr/QQABBBBAAAEEEEAAAQQQQAABBBBAAAEEJkygp8H1A/O217Oey2hSFzozsBM8Z02pjR37jtaHE1w3j+XFhwm3szy3eHi5kJT1yNIpuP7Z/evrY2mTayRAzqzulAPJ51Lj+t9uOTmO7Cu1tZvBdfpOmywluM7nBO3pN4F8zs1M7Sx5CWS+l3vLTPDM/O4WXDdnZ9cd+A8CCCCAAAIIIIAAAggggAACCCCAAAIIIIBARwI9Da47XSFhbuo9b9w9WJfwKG0SXL+xbG+VOtGZZd2+HDgyVC3fdLgu/dF+rNv39JUSI1kSgedzCa4zMzpjyOzsUy0pV1JeIpm26TfBc2ZsN5f0lZnbzVrXzeM+I4AAAggggAACCCCAAAIIIIAAAggggAACCIyfwJQH192GVILrbsd7tb8ZXI+lz1Vbj9QlTFKf24IAAggggAACCCCAAAIIIIAAAggggAACCCBw+gmcseD6wfk76pnYU33L+w8fr1+aWMqQnOp6qcf9yIKdVWZoWxBAAAEEEEAAAQQQQAABBBBAAAEEEEAAAQROP4EzFlyf/lt1RQQQQAABBBBAAAEEEEAAAQQQQAABBBBAAIF+ICC47oenZIwIIIAAAggggAACCCCAAAIIIIAAAggggMAMIiC4nkEP260igAACCCCAAAIIILW9/8EAACAASURBVIAAAggggAACCCCAAAL9QEBw3Q9PyRgRQAABBBBAAAEEEEAAAQQQQAABBBBAAIEZREBwPYMetltFAAEEEEAAAQQQQAABBBBAAAEEEEAAAQT6gYDguh+ekjEigAACCCCAAAIIIIAAAggggAACCCCAAAIziIDgegY9bLeKAAIIIIAAAggggAACCCCAAAIIIIAAAgj0AwHBdT88JWNEAAEEEEAAAQQQQAABBBBAAAEEEEAAAQRmEAHB9Qx62G4VAQQQQAABBBBAAAEEEEAAAQQQQAABBBDoBwKC6354SsaIAAIIIIAAAggggAACCCCAAAIIIIAAAgjMIAKC6xn0sN0qAggggAACCCCAAAIIIIAAAggggAACCCDQDwQE1/3wlIwRAQQQQAABBBBAAAEEEEAAAQQQQAABBBCYQQQE1zPoYbtVBBBAAAEEEEAAAQQQQAABBBBAAAEEEECgHwgIrvvhKRkjAggggAACCCCAAAIIIIAAAggggAACCCAwgwgIrmfQw3arCCCAAAIIIIAAAggggAACCCCAAAIIIIBAPxAQXPfDUzJGBBBAAAEEEEAAAQQQQAABBBBAAAEEEEBgBhEQXM+gh+1WEUAAAQQQQAABBBBAAAEEEEAAAQQQQACBfiAguO6Hp2SMCCCAAAIIIIAAAggggAACCCCAAAIIIIDADCIguJ5BD9utIoAAAggggAACCCCAAAIIIIAAAggggAAC/UBAcN0PT8kYEUAAAQQQQAABBBBAAAEEEEAAAQQQQACBGURAcD2DHrZbRQABBBBAAAEEEEAAAQQQQAABBBBAAAEE+oGA4LofnpIxIoAAAggggAACCCCAAAIIIIAAAggggAACM4iA4HoGPWy3igACCCCAAAIIIIAAAggggAACCCCAAAII9AMBwXU/PCVjRAABBBBAAAEEEEAAAQQQQAABBBBAAAEEZhABwfUMethuFQEEEEAAAQQQQAABBBBAAAEEEEAAAQQQ6AcCgut+eErGiAACCCCAAAIIIIAAAggggAACCCCAAAIIzCACgusZ9LDdKgIIIIAAAggggAACCCCAAAIIIIAAAggg0A8EBNf98JSMEQEEEEAAAQQQQAABBBBAAAEEEEAAAQQQmEEEBNcz6GG7VQQQQAABBBBAAAEEEEAAAQQQQAABBBBAoB8ICK774SkZIwIIIIAAAggggAACCCCAAAIIIIAAAgggMIMICK5n0MN2qwgggAACCCCAAAIIIIAAAggggAACCCCAQD8QEFz3w1MyRgQQQAABBBBAAAEEEEAAAQQQQAABBBBAYAYREFzPoIftVhFAAAEEEEAAAQQQQAABBBBAAAEEEEAAgX4gILjuh6dkjAgggAACCCCAAAIIIIAAAggggAACCCCAwAwiILieQQ/brSKAAAIIIIAAAggggAACCCCAAAIIIIAAAv1AQHDdD0/JGBFAAAEEEEAAAQQQQAABBBBAAAEEEEAAgRlEQHA9gx62W0UAAQQQQAABBBBAAAEEEEAAAQQQQAABBPqBgOC6H56SMSKAAAIIIIAAAggggAACCCCAAAIIIIAAAjOIgOB6Bj1st4oAAggggAACCCCAAAIIIIAAAggggAACCPQDAcF1PzwlY0QAAQQQQAABBBBAAAEEEEAAAQQQQAABBGYQAcH1DHrYbhUBBBBAAAEEEEAAAQQQQAABBBBAAAEEEOgHAoLrfnhKxogAAggggAACCCCAAAIIIIAAAggggAACCMwgAoLrGfSw3SoCCCCAAAIIIIAAAggggAACCCCAAAIIINAPBATX/fCUjBEBBBBAAAEEEEAAAQQQQAABBBBAAAEEEJhBBATXM+hhu1UEEEAAAQQQQAABBBBAAAEEEEAAAQQQQKAfCAiu++EpGSMCCCCAAAIIIIAAAggggAACCCCAAAIIIDCDCAiuZ9DDdqsIIIAAAggggAACCCCAAAIIIIAAAggggEA/EBBc98NTMkYEEEAAAQQQQAABBBBAAAEEEEAAAQQQQGAGERBcz6CH7VYRQAABBBBAAAEEEEAAAQQQQAABBBBAAIF+ICC47oenZIwIIIAAAggggAACCCCAAAIIIIAAAggggMAMIiC4nkEP260igAACCCCAAAIIIIAAAggggAACCCCAAAL9QEBw3Q9PyRgRQAABBBBAAAEEEEAAAQQQQAABBBBAAIEZREBwPYMetltFAAEEEEAAAQQQQAABBBBAAAEEEEAAAQT6gYDguh+ekjEigAACCCCAAAIIIIAAAggggAACCCCAAAIziIDgegY9bLeKAAIIIIAAAggggAACCCCAAAIIIIAAAgj0AwHBdT88JWNEAAEEEEAAAQQQQAABBBBAAAEEEEAAAQRmEAHB9Qx62G4VAQQQQAABBBBAAAEEEEAAAQQQQAABBBDoBwKC6354SsaIAAIIIIAAAggggAACCCCAAAIIIIAAAgjMIAKC6xn0sN0qAggggAACCCCAAAIIIIAAAggggAACCCDQDwQE1/3wlIwRAQQQQAABBBBAAAEEEEAAAQQQQAABBBCYQQQE1zPoYbtVBBBAAAEEEEAAAQQQQAABBBBAAAEEEECgHwgIrvvhKRkjAggggAACCCCAAAIIIIAAAggggAACCCAwgwgIrmfQw3arCCCAAAIIIIAAAggggAACCCCAAAIIIIBAPxAQXPfDUzJGBBBAAAEEEEAAAQQQQAABBBBAAAEEEEBgBhEQXM+gh+1WEUAAAQQQQAABBBBAAAEEEEAAAQQQQACBfiAguO6Hp2SMCCCAAAIIIIAAAggggAACCCCAAAIIIIDADCIguJ5BD9utIoAAAggggAACCCCAAAIIIIAAAggggAAC/UBAcN0PT8kYEUAAAQQQQAABBBBAAAEEEEAAAQQQQACBGURAcD2DHrZbRQABBBBAAAEEEEAAAQQQQAABBBBAAAEE+oGA4LofnpIxIoAAAggggAACCCCAAAIIIIAAAggggAACM4iA4HoGPWy3igACCCCAAAIIIIAAAggggAACCCCAAAII9AMBwXU/PCVjRAABBBBAAAEEEEAAAQQQQAABBBBAAAEEZhABwfUMethuFQEEEEAAAQQQQAABBBBAAAEEEEAAAQQQ6AcCZyy4PnJksHp89nOtdfWadWPi9djjz1RXXXtzvd5176wxnTOZRm+8+XZrjPPeWjCZrpyLAAIIIIAAAggggAACCCCAAAIIIIAAAgggMAYCZyy43rVroPrbv/vH1vrCS6+NYbhVdd7Pf9c65xvf/MGwcz5auqx6/Iln6/WpZ18admyiX75/7vmt6/3wJxdMtBvnIYAAAggggAACCCCAAAIIIIAAAggggAACCIyRwFkVXN90y92tkDmheC8WwXUvKOoDAQQQQAABBBBAAAEEEEAAAQQQQAABBBAYO4G+C64fmPVEdcll19ZrgurmIrhu0vAZAQQQQAABBBBAAAEEEEAAAQQQQAABBBDoTwJ9F1wfPXasOnz4SL0ODg4Ooz6e4Do1tleuXFO9+96S6ssvV1cDe/cO66t86TTj+tix4/W57y36oFq3fkM1NDRUmnfd7ty5q/rgo4+rxYs/qnbs2Nm1XfpK/1mb/W7fsbNa8sHSatXqNVXGPtFlYGBPtXbt+hGn799/oFqzdn21bdv2Kp87tRlxUtuOMPxy5eq2vVP/df2GTVXW9uX48eP1PeW+yrpx05b2ZtW2bTuqTZu2jthvBwIIIIAAAggggAACCCCAAAIIIIAAAtOFwJVXXln9u3/376oNGzaMe0g5J+emj35ZpmVwnRDx7//hG8PKfjz59PM10041rhcsfH9E+5QKSR9ZmwH37t17qt9ddMWwvkut7T9cfNWIwLY9uE74XNqXba6R+tqdluXLv6hSi7u0Ldv/+E/fql58eWRd79TRLm0uvfzaat78hdW3v/fT1r4cy/U6ndvp+u37Hnns6bqv5v6E1f/0je/U/SbMf3nO68PaPPHk89XnK75sntLxc/t5HRv1eGezVno+N5eE/YVlc5vnUXxK+zz3MLYggAACCCCAAAIIIIAAAggggAACCCAwXQns3bu3+pu/+Zvqr//6r6tPP/10zMNM25yTc9NHvyzTLrjeu3ffiKD3+pvurE6cOFEz7RRcv/7m/I4BZQkrywzlzCJO6Fv2d9rmeGbglqUZXHdq39zXHl6/MueNUa+Vc+9/8PHWveWa47neosUflmGOedseXGcGckL0BNdlNnKewcpVa1p9hslYXnZ5JoLrhOrlGbSPsQTXc16bV//xIn/ASLg969En63MKP8F161H7gAACCCCAAAIIIIAAAggggAACCCAwjQmMN7zu19A6j2BaBdcJFn/0s9+2gsgEkqln3SyZ0Sm4/mTZ8urCP1xZB7AlxMw2+7Km7EaWn//qD8P6TpuEts1zynnFz05BcmbsdurrV7+9tJxWZWZ3e7+5VqfZ1/MXvNc6r9P1Ehy3c0nfYTHepRlcr123ob7/b33nvDrQLX2lnMlvLry8/hp+uVaC7cefeLbeF96ZGZ5x5fmkfZYSXL/62rw6gM85Kd/SfH5btm6r/njJ1XV/Yfj2wq/v/cGHZ1ePPPZUNeuR2dU//+u5Vcb13Atz6r47/Sd/zEi72+68v55F3z5rugTXb7z59rDTd+7aVd/TU0+/WO8XXA/D4wsCCCCAAAIIIIAAAggggAACCCCAwDQmMNbwup9D6+CfNsF1AsqUxmiGvQk2m2U+MuBOwXXxaLQa15kN3ew7AXKpa73ssxUjZmKnPnKW9iD5mutubQWxCX6bfSbILcutd9w37FhC39Jn+1hKSNzpeldde3M1NHRytnnqaXe7XrnuqbYluM6M6ow3HPYfODjstBJAZ+frb5yczZ6wOYF1Zq1nDBf8/rI6qP7Z+RfV3zdv2doKrhPQZyZ5eZ7pL0tmcpdrPv3sy9V1N9xenztv/rv18cuvvL7+XgLrhNK5Vjh3WlasWFkfT3mTlFSp2zbqd3cKrhN251mkbepeZxFcd6JrHwIIIIAAAggggAACCCCAAAIIIIDAdCVwqvC630PrcJ82wXWCxOb63XN+UR08eGiEGxMNrkt5iHKNvFixucx++vk6pE5QnTV1n7O0B9ftLx8s4Wrpt/TZPC9hbXsA3z6DOi9N7HS9AweHh8rNGti5ZgnDy3VPtS3BdcZUxrx6zbphpzWD6xxI21KGI0F6gulSfiWhd44n4C7npa53WRJC33DTnfXXBx56vL5m+YNBdqbeeFhkSXCdvg5+dc8JujPGEmzXjRr/ufHmu+sZ19kVV9L2nvseabUowXWeUQL2rGWGfZ5PWQTXhYQtAggggAACCCCAAAIIIIAAAggggEC/EOgWXp8NoXWewbQNrq/5yy0dHZlocJ3AtQS12TbrWHe80Fc72wPoZtmLNMlM5Ga/pa9mMJzj+d5cm+fkc6kp3bxeSm20L2VWcjl/osF1wuIyezrhcjNYLwF0uXbGXYLrlOPIPXdaynmlNEvaJJhOOZEsmaWdvu66d1ZrLSVHcjz39ssLLq7blv/kPp9/8dXytbVNcJ6+Eka/+Mrces3s8QTT5RmV4Dp9ZgZ81jvveagO2Evwng4F1y2sPiCAAAIIIIAAAggggAACCCCAAAII9BGB9vD6bAmt8wimbXCdwPLLL1eP0GSiwXXzvPRdws0RF2jb0QySE7K2LwllS4icbZbMGG7uG8vnTz9bUZ97qutd8ecbhvU90eD60KHD9fXmvPpm3V/C5LKUALp8bwbXCYbzssxOS/t5adMMrnNvOT8zpZtrSrxkSXCdELm5hF2n4Dp1wXMs4X5Zy2zqpR8vq7sowXV7jetm//ksuG4n4jsCCCCAAAIIIIAAAggggAACCCCAQL8QaIbXf/3Xf139zd/8TZV9/b5M6+A6QWep71xANwPozLBtLqPVuC4vGSwhcl6eOJblVEFyp+A6Yy7XyTbjfGDWE6Ou27bvrIdzquv1Krgu956az5kJnXF+9lV43h5AN4PrzHDODO2ypERHyrosWPh+q1RIOZZtM7jO2NNX85kuWvxh6wWM4wmuM+b2PyRkpnf6L7P1BdfNJ+EzAggggAACCCCAAAIIIIAAAggggMDZSqCE12dLaJ3nNG2C65Sg2L17oA55m6Hvq6/NG+bTRIPr2+96YFiYnBcyNpeUkMiM3bLu2DG2ILlTcJ1+E+aW+0gY3b5kxneC1rKW46c7uM51d+7cVQe+mbmcmdjtwXWYJAzet29/Nee1efV9JYjfuGlLPfs699l8OWO5l2ybwXVC6rS9+96HqwT1qYudoPnOr2Z7jzW4zrNJP3mhZ/uSl2fm2OHDRyrBdTsd3xFAAAEEEEAAAQQQQAABBBBAAAEEEOgPAtMmuH7hpddqYgsWLqqDx4SPWRNs5gWAZRlPcN2sY5yQtPSZbWo8l3Ihu3YN1Ncpx5uzgk8VJHcLrttrajfLVeR+Mgu7XC/bMtZTXa/XM64L17mvv1WPJ7PW24Pre+9/tD6WUDjMbr71ntbY8+LDsM3Sfl72NYPrfH/w4dmtc3Pfv7nw8jpkzrGuwfVXbqRNlrxIM+fmDx3ty+LFH9XHUkqkBNzz3lrQ3mzY99Tszh8aLAgggAACCCCAAAIIIIAAAggggAACCCAwPQhMu+A6pSsSKjdD3bxUryyjBdfts6rzUr7rbri9Sh3ovHwwM4qb/SagbvZXjs16ZHa5XHWqILlbcJ3ZyKW/ss2s8vaSJTl2xVU3jvl6kw2uWxca54fMxG6+wDF1vEt5k3F2Vf8hIvXLMyPaggACCCCAAAIIIIAAAggggAACCCCAAAIItBOYdsF1BvjFF6tGhL5r1q6vx94MmttrXJdSFCUoLtsym7m80K/s77T91W8vbc0AzgUnGlzn3LxUsNM1mvsSZu/ff6C+t7Fc70wF160B+oAAAggggAACCCCAAAIIIIAAAggggAACCEwxgTMWXOfliM0A98VX5g671faANi/jy5KXA5bz2oPrzAhulrEo7UpwnfOXL/+irmNdjjW3N996b6t8SBlMXgBY2mQmePty6eXXto6nXfvy8SfL65cZlj6a28wQb85izrmnul5mZzf7KOVO2q/rOwIIIIAAAggggAACCCCAAAIIIIAAAggg0K8EzlhwPZXADh0+XL8sMOU6Us4i5UeaS8LevEzwvUUfVHn5Y2Z4N8PtZttefB4aOlFt3batyozw1FteuWrNlF6vF2PWBwIIIIAAAggggAACCCCAAAIIIIAAAgggcKYInJXB9ZmC6boIIIAAAggggAACCCCAAAIIIIAAAggggAACkycguJ48Qz0ggAACCCCAAAIIIIAAAggggAACCCCAAAII9JCA4LqHMHWFAAIIIIAAAggggAACCCCAAAIIIIAAAgggMHkCguvJM9QDAggggAACCCCAAAIIIIAAAggggAACCCCAQA8JCK57CFNXCCCAAAIIIIAAAggggAACCCCAAAIIIIAAApMnILiePEM9IIAAAggggAACCCCAAAIIIIAAAggggAACCPSQgOC6hzB1hQACCCCAAAIIIIAAAggggAACCCCAAAIIIDB5AoLryTPUAwIIIIAAAggggAACCCCAAAIIIIAAAggggEAPCQiuewhTVwgggAACCCCAAAIIIIAAAggggAACCCCAAAKTJyC4njxDPSCAAAIIIIAAAggggAACCCCAAAIIIIAAAgj0kIDguocwdYUAAggggAACCCCAAAIIIIAAAggggAACCCAweQKC68kz1AMCCCCAAAIIIIAAAggggAACCCCAAAIIIIBADwkIrnsIU1cIIIAAAggggAACCCCAAAIIIIAAAggggAACkycguJ48Qz0ggAACCCCAAAIIIIAAAggggAACCCCAAAII9JCA4LqHMHWFAAIIIIAAAggggAACCCCAAAIIIIAAAgggMHkCguvJM9QDAggggAACCCCAAAIIIIAAAggggAACCCCAQA8JCK57CFNXCCCAAAIIIIAAAggggAACCCCAAAIIIIAAApMnILiePEM9IIAAAggggAACCCCAAAIIIIAAAggggAACCPSQgOC6hzB1hQACCCCAAAIIIIAAAggggAACCCCAAAIIIDB5AoLryTPUAwIIIIAAAggggAACCCCAAAIIIIAAAggggEAPCQiuewhTVwgggAACCCCAAAIIIIAAAggggAACCCCAAAKTJyC4njxDPSCAAAIIIIAAAggggAACCCCAAAIIIIAAAgj0kIDguocwdYUAAggggAACCCCAAAIIIIAAAggggAACCCAweQI9D67fe/+DyooBBzjAAQ5wgAMc4AAHOMABDnCAAxzgAAc4wIGZ7cBk4uueB9eTGYxzEUAAAQQQQAABBBBAAAEEEEAAAQQQQAABBBAQXHMAAQQQQAABBBBAAAEEEEAAAQQQQAABBBBAYFoRmJLg+sSJE1XWoaEhKwYc4AAHOMABDnCAAxzgAAc4wAEOcIADHOAAB2aIAyUbnmwK3tPguhlWHzt2rBocHLRiwAEOcIADHOAABzjAAQ5wgAMc4AAHOMABDnBghjiQXLhMaE5ePNGlZ8F1Ca0zsMOHD1cHDx6s9u3bV+3du9eKAQc4wAEOcIADHOAABzjAAQ5wgAMc4AAHOMCBs9yB5MHJhZMPlwB7ouF1T4LrZmidga3YdKC6Y+GR6vxnDlc/feqIFQMOcIADHOAABzjAAQ5wgAMc4AAHOMABDnCAA2e5A8mDkwsnH05OPJnwuqfBdZL0DCoDnLviWLXjwIlq32ErBhzgAAc4wAEOcIADHOAABzjAAQ5wgAMc4AAHznYHkgcnF04+nJw4eXHKhkxk1nXPguuk5wcOnJxpncGd7Q/B/flFwwEOcIADHOAABzjAAQ5wgAMc4AAHOMABDnBgpAPJhzPzOnlxcuMzFlwnNc+LGFPDJGm6mdYjHxaBMeEABzjAAQ5wgAMc4AAHOMABDnCAAxzgAAdmggPJh5MTJy9Obpz8eLxLT2Zcl+A6L2JMTeuZAN89+iXDAQ5wgAMc4AAHOMABDnCAAxzgAAc4wAEOcKCzA8mJkxcLrtXS9gcDDnCAAxzgAAc4wAEOcIADHOAABzjAAQ5wgAPTwoFpFVwPDAyMOuP64SVHq18/d8TbQ6f520PzjPKs/LWo81+LcMGFAxzgAAc4wAEOcIADHOAABzjAAQ5wgAOjO5DgOnnxtJhxPVpwnSA0g7X2DwPh9eg/fH454cMBDnCAAxzgAAc4wAEOcIADHOAABzjAgc4O9E1wbaZ1/wTW5Y8LeWZ+8Dr/4OGCCwc4wAEOcIADHOAABzjAAQ5wgAMc4AAHujvQN8F1CUNt+yvA9sPX/YcPG2w4wAEOcIADHOAABzjAAQ5wgAMc4AAHONDZAcG18iNTWn7FD17nHzxccOEABzjAAQ5wgAMc4AAHOMABDnCAAxzgQHcHBNeCa8G1N8Uq6cIBDnCAAxzgAAc4wAEOcIADHOAABzjAgWnlgOBacC249ktpWv1S8pfG7n9pxAYbDnCAAxzgAAc4wAEOcIADHOAAB2aKA4JrwfW0Da53Hzha/eaiP1ePPz1nwsHqll0HqrnzF1Xrtw5MuI9++mWwcv226se/uLB6f+nnM+J+++nZGKv/seAABzjAAQ5wgAMc4AAHOMABDnCAA2N3QHA9BcH1tW8MVnM+P159snmoemvVserGtwZHhMMPLjpaPbKk83r9vMH6nG7Hs/+2BUdH9JmHOd3WyfwwvjDn7epv/+4fqz9dfVsdwn68fE31zX/7cfV//+fvVHfd//iYgtlHZr9U9/Hgo891bL9z72C16KPPq227D3Y8Ptbx//7ia+pxZWybd+6bVF9jvWandmEVZmHX6fhk9i1cvKz6r//yw/o+73nwyZ72//LchdV//ucftBjm+3jHmntu9vHOks/G3cd4r6n92P+xwQorDnCAAxzgAAc4wAEOcIADHOAAB8bjgOC6h2HvL545XH26ZajqtKzfPVT9rHGtTm3Kvk17hqrNezv3U9rkIU+3kLrTeMYjY7Pt3kND1bf++0/rEHbp8jV1AJnt3//DfxkWZjfP6fR51uMv1O0fe/qVjiHm48/MqY+PNQjvdI3s+/kFl9T9JDRes3Fnx2t1O7dX+9dt3l2PIYx27B3s+RgWLPqkdY9XXXdnT/t/9uU3W882DB998uVx9//Mi2+0xpc+Xpu3aNx99OpZ6Mc/xBzgAAc4wAEOcIADHOAABzjAAQ5wYHIOCK4bYXKn4HU8+5qh9abdx6q3vzhQZVuWz7cdb4XNZd/eQ8erzQNHh62vLz9Uvfn54da+Y0Mn6uZDQ1Vr3+I1h1t9jWeMp7vtRH9AM7s34WPKXjT7SMCZ/WUWdvNYp88DB49VazftqhKEdzp+/8NP1/1dd/N9HY+3n7On0U97nxlX1gTXOdZ+vL2v8XxvXrfbeQnfc/27H+g+G3rg4PH6PjO2XfuPdr3n0i7Xal77wceeq69RguvmsW7jGg+Hm++YVfc/keC6XD/OhMNYguvxjK30bzu5f3Tww48DHOAABzjAAQ5wgAMc4AAHOMCBsTiQHHNgYKAaHByshhKMjnP5q3G279g8F84AMpAMqNPAT3fgOt7rXTF3sHVvS9YcrH740I7qR4/uqbcbdh2tEj0fPf71LOnS+LH399Vt0r6sP3p0b+vc7Fu382jdfM/B41+3eeQkq/GO83S37/Qsx7Lv/N9dXoePbyxYPMyHZnC9dvOu6rxf/KH69vd/UX33nPOrdxulITbvPFDPgs6xrLfc9fCwfhJYppTEhZdcW18nM6bnvPlevaYkSfsYE4LmGglEM6P5j5dfV5fN+MtN97Ta5ljWK6+9vW6TshqPPvXysOA3/b658IPqhz/9Xd0mfV1w4ZXV8lWbWv08P2d+fa2MOzPCUx4l/eZec8/tY8v3HXuPtGYst9fz3rrrYHXnfY+3ZrD/n//Pv9Rjz/iafW3cS8GV8gAAIABJREFUvrcee47nernuZX++qe43tbPTtgTXCYe//+Nf1+0uueKG6tMv1g/rK38wyGz3Mms+JVSuvfHuKs+lec3FH39Z/enqW6pzfvLbKmF4WOTaJbjOLO9cJyxefv1k+ZBLr7yp/p5zUge92V8+nyq4/mzlxrp2ernP9PPWOx+O6Ke9X9/9o8oBDnCAAxzgAAc4wAEOcIADHOAAB06fA8kxBdc9mHX9/LKvZ1af/+TwUPmHs3ZW37t3Q/X9+7e0ZkmX4HrDwFC1eMPxYetFLw2vib1u18m+E7ae7uB5stebyA/z8pUb6/Ay9YqbM3/TVzO4/mDZl3W7BJ1Zmy9xXLlu67BjCcKbY/l89aZhx0sf2SZMbrYt5UaabcrnhJ6lbdnXvv3w01WtNg89/nzruiU4Le1LeH3lX+5otSnHyvbq6+9q9VWum+3TL7xen5PQvLk/n2+8/cH6WK5Xguj017zP1OVuH0+5ZrYLFi2r+y3BdfNYPjf5xtNf/f6K1j0ktC7tE5YnZM+4Xn3z/db+crxsS3DdvN4Djz5T+5Bxl3alr+Y9jxZcL/nka2fST7OvqagL3hyXz6fvHzasseYABzjAAQ5wgAMc4AAHOMABDvS/A4LrHoTWgfjh+pPh8vGhE9VPnjxZxiMvYNx18MSw9ZfPnDxWgutO21vmz+zgOuFsgsnMNm7/JVOC68y6LS8iTMC99LPVI9quWr+9uv+RZ+q+msFq+sxM3cyWLjOC00f6zNq87oZte1ohafpIuLxpx76qjLFTcJ3Z2Jn1/IvfXFafW+pnN/tKaJtxbB84VIe+ud/f/fHqel/GlhnZ2ZdZzwnyb7374db3diYp15FAOO2Xtc18TtvMVs6xvEBy1YYddYmQZ156o7rpjodazEq4nXYJcLfvOVy9v/TzVrCb0i3pqxkk5/g7iz+t+855uZe0ySz5fE8o/OXarfW+lGspwXjqjeelmOV7xjd3/qLq+lvvb/VVguv84SJhe/pLcJ3+81zzPet4g+vyvG+49YEqs8KzprRKGe9YSp9kDFYMOMABDnCAAxzgAAc4wAEOcIADHODA1DoguO5RcP3e6pOlQk6cqFqzoucs/7p8SAmof/3ckfp4+b593/FqxeYjw9aLXzrU6iMPaCbNuN64bW8rRCxBaPOXQAmuS3CZ7fx3P+oaJKa8RNq0B9elz1PVuH5z4ZL6/PTRLCGSgDPhZ8p6lL7KmFL+Ivvum3WyfnZKaeT76/NPBrppl8C7rGVGcoLc0leZsZzgPfvSZ85rtiltU+Yix1LupOxrbpthc9olUE5JjmZ5jBLo/uaiPw/rIzOUM/7MyE6fpa+E8vmekD19Zs0s9uxrBtDlHrMts5sTRCdgL+elHEgZbwngS3Cd/eGctiW43rb7UOvc8QTXzfPyB4EythLs5xolaC/jsZ3af4DwxZcDHOAABzjAAQ5wgAMc4AAHOMCBbg4IrnsUXD/xwaGSRVdXzj05Y/rC5/ZXd765q1q8+mDr2K+fGz7j+rFF+6pzH941bP3JkzM3uL531lN1KJkZxp2k7RRcJ+zsFHLn/LEG11ff0LkER2pbl4A1s5U7jansK+3ycsbsS+mS7CvBdbOvBMTNNbOtH3z0uVb/Jbgu5StSlzl9dQquU/s6x7oF+GGTWcVlhnMZZ7brNu+ur1nqaJ/qpZcluC4vZ8x9lkC6BNd50WX6zv7mPeZzaopnRnbqkZdxlPPSV5ml3im4vvuBJ+qxps53OXc8wXVzxntmtLePLQ506q88X1v/kHKAAxzgAAc4wAEOcIADHOAABzjAgdPngOC6R8H1b589UGW2dZYIfONbg3XJkMteOVQdGvzqQFVV7cH1Ex+enIGdB9FtnSkzrpvlI0r42/7LoATXKe2RWcglNC3hcHv7UwXXj8x+qQ5B8+LFlI1IGZCX5y6snnj21fo5rlizuRWSppxGeRng6o076vIdKXtRrlnC1DL29uC62VdKY5Tz8sLCtH3x1bdb+8YaXH/y+dp6fAnvu5W5SJB80aV/qctzrNsyUN9fGWu5z/DLvvAss45zr3mRZMLmnJfxjiW4ThmS0n9hkXNTdzwviUxZl5QOKW3uuPfReuy5btnXDK4TWGd/mKSfMC/tOgXNo9W4LuH99bfcX6UWd/rbtf9oXaokY8t3KwYc4AAHOMABDnCAAxzgAAc4wAEOcODMOyC4HiUw7hYkd9qfutbzPt/fmlmdD0ePD/taf2kPrke2qKpjQ1+XG8m1Zkpw/dwr8+pA8uI/Xd8xPExIW4LqMjO4BK4JMhNmZ3ZxAtzv//jXrXCzhJzZ5vzmyxLnvPleq13pu7TfsXewHkepsVzOL7OT8z2hbn6RpRRJOS8h8nsffNYaa/Y/+dxrI/pKeY4E5uW8Esxm5nXZlzG9/9HyqpQTyf7U0C6/PMvYnnnxjda+cqxsSymMjDuhb/MFkRln2pUXYpbrNseVfZ9+sX5YPevsS5mU3H85J/zDLGFyKfmRYwmSc6y0e/jxF+prJkwv+5r3V/alhnbG9sob77baleC5tEm5jwTQiz76vOOM8rRLm8Ki/OEj+3PNn/7q4lbf2Zc/XpS2tmf+HyjPwDPgAAc4wAEOcIADHOAABzjAAQ7MXAcE1z0KrgPyR4/uqeZ8sq/6en51VX9evX2w2rLnaJ1Rn//VyxmbbdrD62NDJ4bNvi7B9cChoWH7OwXo023feH65lLC0GSw3z//o05WtkDEzZnOsGRgn1Mzs5QTXzeC0hJxlWwLRnJ/ZtiX8zfEExQkzU9u6XDtB7G13nXw5YukjQWzKZWzcvrdu1wzKcyxlO0rbbB9+4sW6Xae+Mu4EwJmRnGuWcillPG+/9/GwEDwlLtIu91radJp5XMaf4LY5lnwOn1I/u7RbvHRF60WOpX3KkCQ4TptSS7scm/3ca3Vd7fI995E60mmbGel5GWQ5lm2umfrXpaxLxp8QvtmmGYSXF0LmGV17492tdqnPXQLshPF53gngm/00Pye4L/eYbcLrcn7alWe+YNHJF1A22/o8c/9x9Ow9ew5wgAMc4AAHOMABDnCAAxzgwJl1QHDdw+A6MH/82N7qB/dtqK56cVt12xs7q3Pu31j9cNbO6pyHdlTfvWd9K3j+3r0b6u/Z177+4P5NrXbpM+enzTkPbhu2f7qF1J3GM54f8D9dfUsdIo/nnF61TTia8hXdym3kOgMHj1epc50XSE72uqWv9VtPluCYSH/bdh+sZ2w//cLro44nZT7ycsUtuw5Uy1dtqlIjerTrpd8v1m7pyezjcE1fJdDudN0E2WO5XvpIKZdOfUxkX9ivWr+9VTJkIn0458z+A4Y//hzgAAc4wAEOcIADHOAABzjAgbPXgWSNAwMD1eDgYDU0NNQ+9/eU3//qlC3G0CAXzgAykAyok3CdQtHpvO+82Qer857Y33dBc6+ZdnqW9p29v1A8W8+WAxzgAAc4wAEOcIADHOAABzjAAQ5woBcOJKcUXPd41nWvw99+7q8XkurDLzsOcIADHOAABzjAAQ5wgAMc4AAHOMABDswsBwTXQuspnRXuF8rM+oXieXveHOAABzjAAQ5wgAMc4AAHOMABDnCAA71wQHAtuBZcH/bLpBe/TPTBIw5wgAMc4AAHOMABDnCAAxzgAAc4wIFeOSC4FlwLrgXXHevK9+qXjH78g8UBDnCAAxzgAAc4wAEOcIADHOAABzgwXgf6Jrj+9XNHpjRgDQhrbxnkmY1XSO39EuMABzjAAQ5wgAMc4AAHOMABDnCAAxzgAAf6Jrh+eMlRwXKfhet5Zn7J+CXDAQ5wgAMc4AAHOMABDnCAAxzgAAc4wAEOjNeBvgmuc2MJQs287u2s6KmYZZ5nJLT2y2i8v4y05wwHOMABDnCAAxzgAAc4wAEOcIADHOBAcWBaBdd79+6tZ1WXwdkSlQMc4AAHOMABDnCAAxzgAAc4wAEOcIADHODAzHMgwXXy4sHBwWpoaKga7/JX4z2hU/tcOAMQXM88Af3S8cw5wAEOcIADHOAABzjAAQ5wgAMc4AAHOMCBdgemVXC9b9++6vxnDlc7DnhQ7Q/Kd05wgAMc4AAHOMABDnCAAxzgAAc4wAEOcIADM8GB5MPJiZMXn9EZ1ydOnKiOHTtWHThwoLpj4ZFq7opjXup32A/hTPghdI885wAHOMABDnCAAxzgAAc4wAEOcIADHODAcAeSDycnTl6c3Dj58XiXnpQKyYVTLuTw4cPVik0H6jQ9gzPzevgDIzAeHOAABzjAAQ5wgAMc4AAHOMABDnCAAxzgwNnqQPLg5MKZbZ2cOHlxcuMzHlwnPT948GA9qCTqGWBqmVgx4AAHOMABDnCAAxzgAAc4wAEOcIADHOAABzhwdjuQPDi5cELr5MTJi89ocJ1p3mXWdQaTJD3TwFPDJC9szDowMGDFgAMc4AAHOMABDnCAAxzgAAc4wAEOcIADHODAWeZAyYCTBycXTj48mdA6eXNPSoWU+iQlvE6KnoGl8LYVAw5wgAMc4AAHOMABDnCAAxzgAAc4wAEOcIADM8OBElhPdKZ1yZp7GlyXThNgN0PsDNKKAQc4wAEOcIADHOAABzjAAQ5wgAMc4AAHOMCBs9uBkg2XrHii2ykJric6GOchgAACCCCAAAIIIIAAAggggAACCCCAAAIIICC45gACCCCAAAIIIIAAAggggAACCCCAAAIIIIDAtCIguJ5Wj8NgEEAAAQQQQAABBBBAAAEEEEAAAQQQQAABBATXHEAAAQQQQAABBBBAAAEEEEAAAQQQQAABBBCYVgQE19PqcRgMAggggAACCCCAAAIIIIAAAggggAACCCCAgOCaAwgggAACCCCAAAIIIIAAAggggAACCCCAAALTioDgelo9DoNBAAEEEEAAAQQQQAABBBBAAAEEEEAAAQQQEFxzAAEEEEAAAQQQQAABBBBAAAEEEEAAAQQQQGBaERBcT6vHYTAIIIAAAggggAACCCCAAAIIIIAAAggggAACUxJcnzhxoso6NDRkxYADHOAABzjAAQ5wgAMc4AAHOMABDnCAAxzgwAxxoGTDk43eexpcN8PqY8eOVYODg1YMOMABDnCAAxzgAAc4wAEOcIADHOAABzjAAQ7MEAeSC5cJzcmLJ7r0LLguoXUGdvjw4ergwYPVvn37qr1791ox4AAHOMABDnCAAxzgAAc4wAEOcIADHOAABzhwljuQPDi5cPLhEmBPNLzuSXDdDK0zsGXb11ZXL3+u+sn7t1XnvXuTFQMOcIADHOAABzjAAQ5wgAMc4AAHOMABDnCAA2e5A8mDkwsnH05OPJnwuqfBdZL0DCoDfHrjB9XmQ3uq3YMHrRhwgAMc4AAHOMABDnCAAxzgAAc4wAEOcIADHDjLHUgenFw4+XBy4uTFKRsykVnXPQuuk54fOHCgTtQzOIG1wJ4DHOAABzjAAQ5wgAMc4AAHOMABDnCAAxzgwMxzIPlwZl4nL05ufMaC66TmeRFjapgkTTfTeubJ6BeQZ84BDnCAAxzgAAc4wAEOcIADHOAABzjAAQ7EgeTDyYmTFyc3Tn483qUnM65LcJ0XMaamNUEJygEOcIADHOAABzjAAQ5wgAMc4AAHOMABDnBg5jqQnDh5seD6LK8P44d85v6Qe/aePQc4wAEOcIADHOAABzjAAQ5wgAMc4EC/OTCtguuBgYFRZ1zftmpu9dNFt3l76DR/e2ieUZ5Vv/0wGK9f4BzgAAc4wAEOcIADHOAABzjAAQ5wgAMcmB4OJLhOXjwtZlyPFlwnCM1grf3DQHg9PX7I/bL1HDjAAQ5wgAMc4AAHOMABDnCAAxzgAAf6zYG+Ca7NtO6fwLr8cSHPrN9+IIzXL3EOcIADHOAABzjAAQ5wgAMc4AAHOMABDpx5B/omuC5hqG1/Bdh+yM/8D7ln4BlwgAMc4AAHOMABDnCAAxzgAAc4wAEO9JsDgmvlR6a0/Eq//UAYr1/iHOAABzjAAQ5wgAMc4AAHOMABDnCAAxw48w4IrgXXguvBM/+D6JehZ8ABDnCAAxzgAAc4wAEOcIADHOAABzjAga8dEFwLrgXXgmu1yDnAAQ5wgAMc4AAHOMABDnCAAxzgAAc4MK0cEFwLrqdtcL390L7qgj/8qXr02ecn/EOzcWBH9eqCt6s1OzZPuI9++kvXio3rqnN//rvqnaUfzYj77adnY6xf/8UUCyw4wAEOcIADHOAABzjAAQ5wgAMcOJUDgusJBte///jh6rZVc4et2RegI9ebq7vXvFXN3/FltXTPhuqFzR9Xf1z2RId2N1U3fjmnmrf98+qjPeurl7d8Uv36gwda7a774uVh1xv79TuN6fTsO5WAox1/9rW51d/+3T9Wl19zYx3CfrhiefXNb/+o+r//87erOx54eEzB7Kwnn6n7uP/x2R3bbz2wp3r3k6XVpj07Ox4fbXzNY7+75M/1uDK29bu2T6qvZr/j/RxWYRZ24z33VO3fXrKk+sa3zqnv866HHu1p/y+88Ub1n775vRbDfD/VeNqP556bfSz48MNx99Hep+/+EeUABzjAAQ5wgAMc4AAHOMABDnCAA2fGAcF1x6D51KHuuztXVZ2WQ8cHq2c2fdAKm3+3dFa1/9jhTk3rgLoVcr93c7Xp0MCIdieqE9XsDYvq/o6dGBpxvLnj/V2rW9dt9TvB++vV+RP9wd515ED1L989rw5hP/j8szqAzPZ//Yf/MizMPlX/D85+qm7/yDPPdQwxH33uhfr4WIPwbtf72QV/qPtJaLxy84aO1+p2bq/2r966qR5DGG3dP9DzMby1eFHrHq+87pae9v/0nFdbzzYMH3762XH3P/vFl1vjSx+vzH973H306lno58z8g4Y77hzgAAc4wAEOcIADHOAABzjAgbPHAcH1BIPdd7evrDPjEydOVKv2bq3W7tteHR061sqRL/30yeq8926u9h09GVongP5o55pq7oaPq91HDrTa3btmfh02P7fpw9a+D7evqeasX1rt/+rcHMjM6092ravW7d9Rr+kvy6Fjg619961666wJrjO7N+Fjyl40f+Ek4Mz+Mgu7eazT5x2H91Wrtm6qEoR3On7vo0/U/f3l1js7Hm8/p9lP83PaZVxZE1znWPvx9r7G830sfSV8z/XvfPCRrvey88j++lj623ZwzynbZYzNaz/wxJP1NUpw3TzW7X7G0qace9Nd99X9TyS4Ln3EmXAYS3A9nrGV/m3Pnn8APUvPkgMc4AAHOMABDnCAAxzgAAc4MH0dEFxPMrhOcPyD16+uvj/36urHb9zcCp+f3rikum/N/Nb3e5a/Xp3zxjXVOfP+Un3vtT9X+44eqo8dPn6sDpu/2Le1/j4weLA6Z9411Q/f+kv1iwV3VQeOHqnD6Zu+fLU+P9fJeuT4yZB8wZbP6+/Zd+7b1501wfUvf3dJHT6+tnDhsHC1GVwnkP7xL39f/dsPflZ954e/qBZ+9HVpiA27t1eZBZ1jWROINn8RJbBMKYnfXfrn+jpp+8pb8+s1JUmabfM5IWiukUA0M5ov+tM1ddmMa265o9U2x7L+6dqb6jYpq5GZ3u3h6OvvvFOd89ML6jbp61cXXV4tW7Oq1c+zr86tr5VxZ0Z4yqOk39xr7rl9bPm+Zd/u1ozl9nreG/fsrG5/YFZrBvv/8U//Uo8942v2tW7n1nrsOZ7r5bqXXHV93W9qZ6dtCa4TDn/3R+fX7f545V+qj1d+Mayv/MEgs93LrPmUULn6ptuqPJfmNd//9JPqsmturL5/3q+rhOFhkWuX4DqzvHOdsHjxzTfrcy+56rr6e85JHfRmf/l8quD6k1Vf1rXTy32mnzfee3dEP+39+j59/yHzbDwbDnCAAxzgAAc4wAEOcIADHODA2eeA4LoHwXUpq/Hbjx5qBdWz179fLd61pvX9vHduGRYqL9y2onXsp4turV7f8mnr+67B/dUrW5dVF388u/req3+uvvfqldWPFlw/7PwSXC/c/uWw/WUs02U7kV8an6xeWYeXqVdcZgiXfprB9aLPltXtEnRmbb7E8fMNa4cdSxBe+sj207Wrhx0vfWSbMLnZtpQbabYpnxN6lrZlX/t28WefttqU4DdtSnBa2pfw+oq/3Nx1bH++vnOJjtkvvlSfk9C8jKdsb7jjnvpYrleC6FyzeZ+py90+njKubOcvWVL32xx/83iTb4L6839/aeseElqXtgnLE7JnbPlDQdnfvi3BdfN69z02u/Yh4y7tS1/lXrMdLbh+v+FM+mn2NRV1wZvj8vns+wfUM/VMOcABDnCAAxzgAAc4wAEOcIADU+eA4HqSwXVKdqw/uLvafGigKuU7kkBfsvSJauPB3XUYnVnU7UHytcteaAXVFy97ovrJwturw8ePtvaVD0eHhuqXObaffzYH1wlnE0xmtnH7D38JrjPrtryIMAF3qYPdbP/FxnVVKQXSDFbTZvuhvVVmS5cZwekjfWZtXnft9q2tkDR9JFxOyFvG2Cm4zmzszHr++W8urs8t9bObfSW0zTi27N1dpd/c728uvqLel7FlRnb2ZdZzgvyb776/9b15j/mcoDiBcNov/XLFCGaZrZxjeYHkF5vW1yVCnnp5TnXjnfe22pZwO+0S4CYQfmfpR61gN6Vbcq1mkJzjb3/wQd13zsu9pE1myed7QuH8ASH7Vm7Z2ArGMws9L8UsQXnGN+ftt6vrbr+r1VcJrvOHi4Tt6S/BdfrKc833+ppfheDZX9bRguvyvK+/4+4qs8KzprRKGW/77PjSp+3XfLHAggMc4AAHOMABDnCAAxzgAAc4wIHT4YDgepLBdQmYy/bY0FD1+sZl1Y8W3lB9OrCx3j04dLIcSDN8fnjtO+WU6sKlD1c/fufG6vuvXVM9tnJhtWH/zir9NJfH1r8/LPw+W4PrtTu3tULEEoQ2fxBKcF2Cy2zfeP+9VmjZbJvPKS+RNu3BdWlXgu1uNa7nvnMyhE0fzRIiCTgTfqasR+mrjCnlL7Lvnocfr6+dUhr5/uqCBfX3tEvgXdYyIzlBbumrzFjO+LIvfea8ZpvSNmUucizlTsq+5rYZNqddAuWU5GiWxyiB7gV/+NOwPjJDOeNPWJ8+S18J5fM9pTrSZ9bMYs++ZgBd7jHbMrs5QXQC9nJeyoGU8ZYAvgTX2R/OaVuC6817d7XOHc+M6+Z5+YNAGVsJ9nONErSX8dj6h5gDHOAABzjAAQ5wgAMc4AAHOMABDpwZBwTXkwyuEzA//MX8er3w3VnVd1+5oq5jHbAvbVjayp4v+uSxYcHzqv3b62OZpf2jhTdWt6x8rXp8w6LqsqWz65rV6eeKJbNbAfa6AzuHnX+2Btd3z3qsDiUzw7jTL4VOwXVdfuKr2b7t54w1uL7qxls7Xi+1rUvAmtnK7f03v5d2eTlj9qd0SfaV4LrZVwLi5prZ1vc/fnJGcc4twXUpX5G6zOmrU3Cd2tc51i3Azx8AMqu4zHAu48x29Vc1s0sd7VO99LIE1+XljBlrCaRLcJ0/AqTv7G/eYz6npnhmZKceeRlHOS99lVnqnYLrO7566WTqfJdzxxNcN2e8Z0Z7+9jiQKf+Mi4rBhzgAAc4wAEOcIADHOAABzjAAQ5w4PQ6ILieZHCdlzOeO/+6es0s6+as6j9+9FgruP5y/9bqvHdvro9fsmx2deLEifrY1kN76n0bviorsu/o4eqXS+6p9yXQzszeLJ/v2TKs77MxuG6Wjyjhb/svhBJcp7RHZiGX0LSEw+3tTxVcz3rymToEzYsXUzYiM4tfeOON6rHnT5Yp+WzdmlZImnIa5WWAX27aUJfvSNmLcs0SppaxtwfXzb5SGqOclxcWpu1zc7+evT3W4PqjLz+vx5fwvluZiwTJF152dV2eY/W2zfX9lbGW+wy/7AvPMus4JUvyIsmEzTkv4x1LcJ0yJKX/wiLnpt+8JDJlXZrh8233PVSPPcfLec3gOoF19odJ+gnz0q5T0DxaqZAS3v/ltrtavLYd3FO9uuDtemzlmdie3n+I8MabAxzgAAc4wAEOcIADHOAABzjAgXYHBNc9CK6bYXXz848X3lAt2b66FV4fPzFUHTg22Pqe2dYXvHd/HUjfs+LN1v58yIM6MvR1zetff9Wu9H82BtfPvPpaHUj+4YprW6FuU9iEtCWoLjODS+CaIDNhdmYXJ8D97o/Ob4WbJeTMNuc3X5bYfEFg6bu037p/oB5HqbFczi+zk/M9oW7GWOpUZ19C5IUffV0fOvsef/7FEX2lPEcC8xzPWoLZzLwu+zKm1JIu5USyPzW0C5cyttkvvtzaV46VbSmFkXEn9C3hc/rKONOuvBCzXLc5ruz7eOUXw+pZZ1/KpOT+yznhH2YJk0vJjxxLkJxjpd1Ds5+qr5kwvexr3l/Zl/vO2F6aN6/VrgTPpU3KfeR5v/vJ0o4zytMubQqL8oeP7M81f/Kri1p9Z1/+eFHa2voHkwMc4AAHOMABDnCAAxzgAAc4wAEOnDkHBNcTDK7f2b6yDpoz47qEyZ225751fbVo+6phoXS+JHi+5qNn6zIhOe/ct6+vnl+zpEq43VwyM3v2qndb7co1SnC9YPuXo16/tD9T2/H8cJewtBksN89fsvyzVsiYGbM51gyME2pm9nKCzGZwWkLOsi2BaM7PbNsS/uZ4guKEmaltXa6dIPaWex5oXTvtEsSmXMa6nVvrds2gPMdStqNcL9uHnny6btepr4w7AXCZ6VzKpZTxzFu0qBXYZ19KXGRsudfSptPM4zL+BLdp11zDp9TPLu3e/fjjqoTcpW3KkCQ4TptSS7scSxifutrle+4jdaTTNjPS8zLIcizbXDP1r0vt8ow/IXyzTTMILy+EzDO6+qbbWu1Sn7sE2Anj87wTwDf7aX7OPZV7zDbhdTk/7cozn//VCyibbX0+c/84YY89BzjAAQ5wgAMc4AAHOMABDnBgZjuQPHNgYKAaHByDg2zYAAAgAElEQVSshtreB9jMT7t9/qtuB8azPxfOADKQDKiTlGcqeO123XPevLb6zkuXV9979cpTBsdp+/05V1eXvv9YdfPHL1W/eOvO6ntzrqx+tOD6Yef+8K2/VN+bc3X124X3VzcsfaH6/TsPVd+bc1VdhqR9HDk/1z9n3rXD+mhvd6a/d3qW3fZdds2NdYjc7fhU7k84mvIVCUG7XWfnkf1V6lznBZLd2ox1f+lrzY6TJTjGel6z3aY9O+sZ27NffGnU8aTMR0qgbBzYUS1bs6q+z2Y/7Z/T7+fr1/Zk9nG4pq8SaLdfK98TZI/leumjvCSyUz/j3Rf2X2xcN+ozH2+f2s/sf1A9f8+fAxzgAAc4wAEOcIADHOAABzjQOweSawquJzjreryhcGpgJ6xO7erRzk2JkZPthtfMHu2c6XrMD2vvflixxJIDHOAABzjAAQ5wgAMc4AAHOMABDnBgpjiQvFNwfZqC6+kaLk/luGbKD5L79I8GBzjAAQ5wgAMc4AAHOMABDnCAAxzgAAd654DgWmg96uzvyYbaflh798OKJZYc4AAHOMABDnCAAxzgAAc4wAEOcIADM8UBwbXgWnA96BfeTPmF5z65zgEOcIADHOAABzjAAQ5wgAMc4AAH+sMBwbXgWnAtuB715Y5+mffHL3PPyXPiAAc4wAEOcIADHOAABzjAAQ5w4GxyoG+C658uum1KA9bJlsRw/k0jnk+e2dn0w+Je/PLnAAc4wAEOcIADHOAABzjAAQ5wgAMc4MDpcaBvguvbVs0dEYwKi0eGxdOJSZ6ZH+TT84OMM84c4AAHOMABDnCAAxzgAAc4wAEOcIADZ5MDfRNcB3qCUDOvp3dYHaHyjITWflGeTb8o3QufOcABDnCAAxzgAAc4wAEOcIADHODA6XVgWgXXe/furWdVk+D0SoA33hzgAAc4wAEOcIADHOAABzjAAQ5wgAMc4MB0ciDBdfLiwcHBamhoqBrv8lfjPaFT+1w4AxBc++GYTj8cxsJHDnCAAxzgAAc4wAEOcIADHOAABzjAAQ6cGQemVXC9b9++6ifv31ZtPrRHbeTBMyOEH0TcOcABDnCAAxzgAAc4wAEOcIADHOAABzjAgTPpQPLh5MTJi8/ojOsTJ05Ux44dqw4cOFBdvfy56umNHwiuBdcc4AAHOMABDnCAAxzgAAc4wAEOcIADHOAAB2agA8mHkxMnL05unPx4vEtPSoXkwikXcvjw4WrZ9rV1mp7BmXntLztn8i87rs0/DnCAAxzgAAc4wAEOcIADHOAABzjAAQ6cPgeSBycXzmzr5MTJi5Mbn/HgOun5wYMH60ElUc8AU8vEigEHOMABDnCAAxzgAAc4wAEOcIADHOAABzjAgbPbgeTByYUTWicnTl58RoPrTPMus64zmCTpmQaeGiZ5YWPWgYEBKwYc4AAHOMABDnCAAxzgAAc4wAEOcIADHOAAB84yB0oGnDw4uXDy4cmE1smbe1IqpNQnKeF1UvQMLIW3rRhwgAMc4AAHOMABDnCAAxzgAAc4wAEOcIADHJgZDpTAeqIzrUvW3NPgunSaALsZYmeQVgw4wAEOcIADHOAABzjAAQ5wgAMc4AAHOMABDpzdDpRsuGTFE91OSXA90cE4DwEEEEAAAQQQQAABBBBAAAEEEEAAAQQQQAABwTUHEEAAAQQQQAABBBBAAAEEEEAAAQQQQAABBKYVAcH1tHocBoMAAggggAACCCCAAAIIIIAAAggggAACCCAguOYAAggggAACCCCAAAIIIIAAAggggAACCCCAwLQiILieVo/DYBBAAAEEEEAAAQQQQAABBBBAAAEEEEAAAQQE1xxAAAEEEEAAAQQQQAABBBBAAAEEEEAAAQQQmFYEBNfT6nEYDAIIIIAAAggggAACCCCAAAIIIIAAAggggIDgmgMIIIAAAggggAACCCCAAAIIIIAAAggggAAC04qA4HpaPQ6DQQABBBBAAAEEEEAAAQQQQAABBBBAAAEEEJiS4PrEiRNV1qGhISsGHOAABzjAAQ5wgAMc4AAHOMABDnCAAxzgAAdmiAMlG55s9N7T4LoZVh87dqwaHBy0YsABDnCAAxzgAAc4wAEOcIADHOAABzjAAQ5wYIY4kFy4TGhOXjzRpWfBdQmtM7DDhw9XBw8erPbt21ft3bvXigEHOMABDnCAAxzgAAc4wAEOcIADHOAABzjAgbPcgeTByYWTD5cAe6LhdU+C62ZonYGt2HSgumPhker8Zw5XP33qiBUDDnCAAxzgAAc4wAEOcIADHOAABzjAAQ5wgANnuQPJg5MLJx9OTjyZ8LqnwXWS9AwqA5y74li148CJat9hKwYc4AAHOMABDnCAAxzgAAc4wAEOcIADHOAAB852B5IHJxdOPpycOHlxyoZMZNZ1z4LrpOcHDpycaZ3Bne0Pwf35RcMBDnCAAxzgAAc4wAEOcIADHOAABzjAAQ5wYKQDyYcz8zp5cXLjMxZcJzXPixhTwyRpupnWIx8WgTHhAAc4wAEOcIADHOAABzjAAQ5wgAMc4AAHZoIDyYeTEycvTm6c/Hi8S09mXJfgOi9iTE3rmQDfPfolwwEOcIADHOAABzjAAQ5wgAMc4AAHOMABDnCgswPJiZMXC67V0vYHAw5wgAMc4AAHOMABDnCAAxzgAAc4wAEOcIAD08KBaRVcDwwMjDrj+uElR6tfP3fE20On+dtD84zyrPy1qPNfi3DBhQMc4AAHOMABDnCAA/8/e2/+HcV1rm37D8sPX76czDnO4C/v8Xnz5rzO8jlxPMRjCHFsB8d4wNgEgwdsY7AZzAxmNIPNZCYDYjLzLIQGBJIaCQkhidb+1r3FU+wuVbe6pZbo4fJaleretevZu+59VUfrroenYAAGYAAGYAAGYAAGcjMg41p+cUlkXOcyrmWEarJs5aMB5nXum48fJ/SBARiAARiAARiAARiAARiAARiAARiAARiAgWQGysa4JtO6fAxre7igNePGS77x0AVdYAAGYAAGYAAGYAAGYAAGYAAGYAAGYAAGYCA7A2VjXJsZyr68DGxuvuw3H9qgDQzAAAzAAAzAAAzAAAzAAAzAAAzAAAzAAAwkM4BxTfmRUS2/wo2XfOOhC7rAAAzAAAzAAAzAAAzAAAzAAAzAAAzAAAzAQHYGMK4xrjGueVMsJV1gAAZgAAZgAAZgAAZgAAZgAAZgAAZgAAZgoKQYwLjGuMa45keppH6UeNKY/Ukj2qANDMAADMAADMAADMAADMAADMAADMBAtTCAcY1xXbLGdVtnr3vh5bfc0pWbhm2sNrV2us079ru6K6lhxyinH4Nzdc3uqXET3L4jp6riesdybWbPW+Zef+t9dC3BBz2Hjp93e2qOszYluDZjeY8yFn+8wwAMwAAMwAAMwAAMwAAMwEBlMYBxPQrG9dStPW7TqdvuaGPafXO+z733Tc8gc3j+/l636EDyNn17jz8n23G1f7Srd1BMLWapbSP5wVi3aaf73vd/6SZN+cgbUt+dvOj+6+Gn3G8e/B83a+7SvEyqRcvX+xjzF69J7N/S3uP2Hz7lmtu6Eo/nO/9/TPyXn5fm1tjSMaJY+Y6Z1E9aSTNpl3R8JG27a4653z30hL/OT+evKGr8DZt3uwd//1ikob4XOlddcxhjz4ETBcfINubZ2iteV61vUp/Glk43cdJ09+Nf/Kd74tmXEvsknVdImx6+/Pej47xGf/n7q0Udo9T1z6VT+820Xxtxn+rqy6nL9A/nRoxpLc/UNkX99YBMMaRxzZHTUXuusTlWWX8QsZ6sJwzAAAzAAAzAAAzAAAzAAAyUFgMY10U0e8et6nbHm9Iu6b+6trR7LhgrqY+1NVxPu8b25DjWRzdSqZnUSfMZ7g0vM+oPf3zWG0lHTl70JpL2MgZDM3uo+AuWrvP9l6zcmGhELV01YFbla4RnG09Goual7WJ9S+JY2c4tVvulxjY/vjS61t5T9Dns2n80usa3p31S1PirN2yL1lYaLl6xoeD4q77cGs1PMb7evr/gGNnWYvqMuT62HoQk9flo1sJI+1Xrtyb2STqvkLbLzdfd/Q885MeRQV/IuUP1LXX9c81fZrXWW9zrdyNXX3uwo/7a9DDM+otv+82RztbOvrT+aGE9WA8YgAEYgAEYgAEYgAEYgAEYqB4GMK4DMznJeC2kLTStG9r63M4znU57++9U8+3IbLa29pu3XWOqN2PbcvKm23aqO2rrS/f77um0i9pqLnZHsQqZ41j3He6PibJ7ZSyp7EUYQwab2i0LOzyW9FmmVm1Da1ZDa+7ClT7etA/mZIyTFEtt1wNjLG6SmRkm41rH4sezxcynPRw3W3+Z75rD7HnZs6FTXbf9dWpurTd6s16z9Ytf8/wla/wYZlznM69CdPhg5gIffzjGtekiZqRDPsZ1PnNTNrWt7ZXW5Mz8v0+Y7PvI/LR5JO1N1+Hqf+DoWT+OGdfVoH+SjvG2hmsdrrntZk7tw3OUVa01DY1rO24PB7KttfVjXz1/KLHWrDUMwAAMwAAMwAAMwAAMwAAM3BsG5GOmUinX09Pj0jJGC/zvvgL7J3bXwJqAJqIJJcEw1oZroeO9ubknurYDF7vcE59fc08uvu73l1t7nazn3tt3s6St85J9Hb6P+tv25OL26Fy1XWrp9d2vd92+22fRgFaFznOs+yetZT5t4196wxtLW3fVZPAQGte1ja3u6XH/9P+0/5HHx7tvg9IQMhuVBS2DStuMWQsz4sg4VCmJCa9O9eOo76Zte/2WZGbJBNUYMruU2fnKG9N82Yx33v80imvm5uSpH/s+Kqux+IsNGWa3rn3b7oO+nITiaJPpefJ8QxRn7aYdfizNWxnhKo+i2LpWXXOSftfab/lY6hev5y0D7pM5SzOySTU3bWGs+qvtTnM3407jqqaz5qja2eprxrXM4Uefet7P69U333XHz9RlxNIDA2W7WwaryjJMfW+207qEY9Z8d9ZNmjLDPf7Mi05muBnAZlzLCNY40mLDloHyIa9Nft9/1zmqgx7G0+ehjOsT5+p97XS7TsX5Zs+hQXEsrmXtv/vhvKx9LOP+6OlLg/oUU38zro1B4yI+/0rS39Yhaa8se92Xdp+HpT/C/l9+tdOpnI/KuOhekPEv7ZLudbvflOEexuDzvfkjBd3RHQZgAAZgAAZgAAZgAAZgAAaqlwH5mBjXRci6Xnvsbmb1+BWZpvITC1rcnz677B6d2xRlSZtxfTmVdjWXb2dsL6/PrIl9qXUgtszWsTaeRzrecH5cTp6r96aSzCXLULU4oXF98NhA9qkMKG3hSxzPXRqoSWzHZIRbDO1PXWjw59jxcC9TMOxrxmXYxz7L9LS+1hbf68Vx1ufzpWujcc04tf5mXk9+Z2bUx47Zfsr0WVEsi6n9ynVb/DkynsN2fX7v4/n+mMYzI1rxwutUXe74fGxM7XftP+bjmnEdHtPnUF9x+rd/vBldg0xr6y+zXCa75vXVtn1Rux23vRnX4XjzFq/yPGje1s9ihdecy7g241fnK04YK6kuuIxx08XM+3As+ywOFFPsWpvti6l/OH/TwPZm4leS/qZhtr0eetj1ax/ea3aOlXkJ+9nnJOPaHracr7s6aC0tJvvq/aOJtWftYQAGYAAGYAAGYAAGYAAGYGDsGMC4LoJpLREP1Q2Yy7fT/e6ZFQNlPPQCxtau/oztr6sGjplxnbSfsaO6jWuZszKWlG0c/zEw41pZt1avVgb3kRMXBvWV8TR30SofKzRWFVMmn7KlzaRSDMXUFo6rrEszuRRD5rLKEtgck4xrZWMr63ncC6/7c61+dhhLpq3mcTV105u+GuOlV6b4Ns1NmaFqU/anzNAPZw/UUNb3uCYqFyFDWP2PxTKf1VfZqDqmjNPzl6/5EiGqw/z+zM+jWGauqp8M3KvXu92+I6ciY1elWxQrNJJ1fE/NcR9b5+la1EdZ8vouU1gvNVSbyrWYAax643oppn3X/Dbv2O/04jydp82Maz24kNmuNhnXiqV1tX6FGte23sqeVlayNpVWUTzNN156Q1neOibtNHbSdvpiYzSfpJd8FlP/0LjWAxVl4Jv5bmtUSfon6R22af2V7W8sxY1rZcAbK/rXFfrXDnZfqj3JuH7h5bf8OXrIFI7F52T+0QVdYAAGYAAGYAAGYAAGYAAGYAAGRosBjOsiGdd7LwyUCunvd1FW9KaTd8uHmEH9/Jpb/rh9v9px251uvJWxTVx/M4qhBaqmjOv65nZvGsmMMyM0hN+MazOjtN/x7eGsBpMZj3Hj2mIOVeN62+4DkfEVmlwyOGV+qqyHxbI5qfyF2uYsGKifrVIa+r5lx4Chq34yvG2zjGSZbxbLMpZlvKtNMXVe2Mf6qkyEjqlchbWF+9BsVj9pq5IcYXkJM3Rl2oXnyijV/JWRrXaLJfNP32WyK6Y2ZbGrLTSg7Rq1N4NVRrQMdjsvrAttBrwZ14onndXXjGvVMrZzCzGuw/P0AMDmZsayYprRrnG1WXmYmiOn/Xdrt73Mf5uLaWLHbG+aWb+R6B8a11aj/Nm/TfRzUNkMjVlJ+puGQ+2t9EfcuLaXr0p7e6ggs9/WIrynbQw9uLHjYoNa1/wBZmywhwUYgAEYgAEYgAEYgAEYgAEYGFsGMK6LZFwvO3jTvGg3efNAxvSENTfcJ9taXc2FrujY82syM66X7O9wf17YmrE9s6J6jevPFnzhTSNlGCf9GCQZ1zI7k0xunZ+vcT3l3eQSHKptbSaWspWT5mRt1k8vZ1SbSpeozYzrMJYM4nBTtvX8xWui+GZcW/kK1WVWrCTjWrWvdSybgS9tlFVsWak2T+0vNbb5Ma2u71AvvTQT1l7OqOs0Q9qMa73oUrHVHl6jPivrVRnBqkdu87DzFMuyYZOM69nzlvm5hsZjIcZ1mPGujPb43MRAGE8Z5ZqjzGtb4/jealurn0pSxI/rezH1N+NaRq2NpWxwjW/GdaXob9eXzz6bcW3Z9GJfJVQUK3zYkmRc20Mi41P/WiCfOdBnbP94QW/0hgEYgAEYgAEYgAEYgAEYgIHKZwDjukjG9YurO52yrfWfbpz3vunxJUNe33jT3ey5c8A5Fzeulx0ayMDWQmTbqiXjOiwfYeZv/EfIjGsZVTKYzDQ1czjefyjjetHy9ZE5qbIRKgOyYfNut2z1V34dwzIQKqch00tjXKi/5st3qOyFjWlGl809blyHsVQaw87TCwvVVy+Qs7Z8jeujp2r9/GXex8tcWCwZmS+/9o4vz3GpKeWvz+Zq1yn91CY9LetY16rSCjKbdZ7i5WNcqwyJxTctdK7qjuvFeCrrIjPQ+sz8bLGfu8a1ttC4lmGtdmmiONLc+oVGs11vrhrXZt7LZDYjU5nLWg/NzWJoL2Nb42zc+m1Ge9hHzOoFnHfn0zOobzH1z8e4rhT9Q52H+pzNuLb7X+uzc+93fm3Wf70rWq8k49pe2Kp9tpehDjUfjlf+H0+sMWsMAzAAAzAAAzAAAzAAAzAAA6PPAMZ1DsM4m5Gc1K661ttP3Ygyq/Wh93bGV/8lblwP7uFcX/puuRGNVS3G9ZqN272hNHHS9EHmn34MZNKaUW2ZwWa4ypiSeaXsVhm4jz71fGROmamovc4Pywls2rY36mexrf+19gET0mos2/mWnazvMrc0N5UisfNkIu89eCKaq9pXrPna9wtjqTyHlaJQHzNmlXltsTSnfYdPOisnonbV0LYfR4tn2bbWHu6tFIbmLdM3fEGk5qm+9kJMGzecl9pURzisZ602lUkxk0/fpb80k5lsJT/ULiPZjEV9X7h0nR9TZrq+awuvz9qU8ay5yTi2NjOe7bvKfciA3n/4VGJGufqpj+lhDz7UrjGtzIbF08ML9T1T2+TH1Hj2sMJiJO3tenVe/Hix9NdDlfD6lfUemvhiRQ8FKkH/uIZJ3/WwIX7P2jrafSktQrZCDo2BptbOjDUz9sV80ri0jf4fJmiMxjAAAzAAAzAAAzAAAzAAAzAAA2IA47pIxrWEfHLxdbfpaIe7m1/t/OcLV3tc0/Ve71GPv/NyxrBP3LzuSw8sjBnkZlynbqazZmVb31LbF/JDY4ZRaCyH5x8+fi4yMK0sQ2gYy9RT9rKMazMSzcgK92aIKraybc38VR8ZYTIzVdvaxpb59dGsgZcjWhwZYDIO66+2+36hUa5jKtthfbVfuOxL3y8pluYto00ZyRrTyqXYfJQpGhp0ygRWP12r9VFcm298L+M2nIs+Sx+rn239VcfZTFbrrzIklnFstbTt2PI1X/u62vZd16E60oqnjHQrYWHHNabqL1tZF81fJrwd1z40wu1lg1qjqe/NjvqpPrcZuDLjtd4y4MM44Wddk12j9jKv7Xz1szXftX/gBZTqY+utFyCG52b7bCVD9DLAeJ9i6a8XfoYc6AGPvXzUrtfqq5e7/nENk77rX0bYdcf3YsTO0UMZ+21RP92flpUvDuwetv72YEqlZayNPX8wwQAMwAAMwAAMwAAMwAAMwAAMwMDYMyCfM5VKuZ6eHpdOp+MW6pDf7xuyRx4dNLAmoIloQkkglJohm20+Ty1pd4/Nueze/rLZfbS1xT0+t949saDFPf75NffIp3WR8fynzy7772qLb4/NbYj6aRydrz6Pz2/OaM82h1JqT1rLbG2TpszwJnK246PZLnNU5SuyldvQ2Kmu2051rvUCyZHOxWLJjBxuLL1sTobcynVbcsZQmQ+9XFGZpSfPNwxZ/kBxlTls2cfDnZ/Ok66KZYZ2UiwZ2fmMpxjKOk6KMZw2aX++7mpUMiSMsWLtZq9trnmH/c1wV3Z82K7P6J/8f2y59I9rWIzvum/D0jXZYlqG9tXr3YPWMts5tCevMbqgCwzAAAzAAAzAAAzAAAzAAAzAwEgYkMeJcV3ErGszjZ9e3uWeXnaj7Ixmm3+x9iOBk3P5cSsXBj6YucBn/8r0tBdqlsvcmefAfaZyM5Ydr8x2dOH3BwZgAAZgAAZgAAZgAAZgAAZgAAbuLQMY16NgWhfL9K2EONzg9/YGR/+x0V9Z1VYuRiVR0H14uqtWu0p5DLXNWbCy6Bpb2RWZ1uHLU1nL4a0luqEbDMAADMAADMAADMAADMAADMDASBnAuMa4HtWs8JECyvn8yJUTA6qX3HLnpZ7lNO9Smavqqav+9FDb0lWbim5cSwM9gNDLPktFD+bB7x8MwAAMwAAMwAAMwAAMwAAMwEA1M4BxjXGNcd3Nj2A1/why7fAPAzAAAzAAAzAAAzAAAzAAAzAAAzAAA6XHAMY1xjXGNcY1GaYwAAMwAAMwAAMwAAMwAAMwAAMwAAMwAAMwUFIMlI1x/fyaW6NqsEoItuJqoDXjaVXpPa1iTVgTGIABGIABGIABGIABGIABGIABGIABGICBUmegbIzrhQd6MZbLzFzXmpX6DcD8+JGGARiAARiAARiAARiAARiAARiAARiAARiAgdJjoGyMa8EjI5TM6+JmRY9GlrnWCNO69G52foBZExiAARiAARiAARiAARiAARiAARiAARiAgXJhoKSM6/b2dp9VXS7iMU9udBiAARiAARiAARiAARiAARiAARiAARiAARiAARgoPgMyruUX9/T0uHQ67Qr9775CT0jqr4E1AYzr4i8wNw2awgAMwAAMwAAMwAAMwAAMwAAMwAAMwAAMwAAMlBsDJWVcd3R0uPGrut21TkAqN5CYL8zCAAzAAAzAAAzAAAzAAAzAAAzAAAzAAAzAAAwUgwH5w/KJ5Rff04zr/v5+19fX5zo7O93M3bfc5tN9vNSvG8iLATkx4AgGYAAGYAAGYAAGYAAGYAAGYAAGYAAGYAAGyosB+cPyieUXyzeWf1zof0UpFaKBVS6ku7vbnW7o9G66JkfmdXkBxQ8A6wUDMAADMAADMAADMAADMAADMAADMAADMAADMDBcBuQHyxdWtrV8YvnF8o3vuXEt97yrq8tPSo66JqhaJmxoAAMwAAMwAAMwAAMwAAMwAAMwAAMwAAMwAAMwAAOVzYD8YPnCMq3lE8svvqfGtdK8Letak5GTrjRw1TDRCxu1pVIpNjSAARiAARiAARiAARiAARiAARiAARiAARiAARiAgQpjwDxg+cHyheUPj8S0lt9clFIhVp/EzGu56JqYCm+zoQEMwAAMwAAMwAAMwAAMwAAMwAAMwAAMwAAMwAAMVAcDZlgPN9PavOaiGtcWVAZ2aGJrkmxoAAMwAAMwAAMwAAMwAAMwAAMwAAMwAAMwAAMwAAOVzYB5w+YVD3c/Ksb1cCfDeSiAAiiAAiiAAiiAAiiAAiiAAiiAAiiAAiiAAiiAAiiAcQ0DKIACKIACKIACKIACKIACKIACKIACKIACKIACKIACJaUAxnVJLQeTQQEUQAEUQAEUQAEUQAEUQAEUQAEUQAEUQAEUQAEUwLiGARRAARRAARRAARRAARRAARRAARRAARRAARRAARRAgZJSAOO6pJaDyaAACqAACqAACqAACqAACqAACqAACqAACqAACqAACmBcwwAKoAAKoAAKoAAKoAAKoAAKoAAKoAAKoAAKoAAKoEBJKYBxXVLLwWRQAAVQAAVQAAVQAAVQAAVQAAVQAAVQAAVQAAVQAAUwrmEABVAABVAABVAABVAABVAABVAABVAABVAABVAABVCgpBTAuC6p5WAyKIACKIACKIACKIACKIACKIACKIACKIACKIACKIACo2Jc9/f3O23pdJoNDWAABmAABmAABmAABmAABmAABmAABmAABmAABmCgShgwb3ik1ntRjevQrO7r63M9PT1saAADMAADMAADMAADMAADMAADMAADMAADMAADMAADVcKAfGFLaJZfPNz/imZcm2mtiXV3d7uuri7X0dHh2tvb2dAABmAABmAABmAABmAABmAABmAABmAABmAABmAABiqcAfnB8oXlD5uBPVzzuijGdVsLrk0AACAASURBVGhae8O6/qhr3zzRtSz8tWuZ/3M2NIABGIABGIABGIABGIABGIABGIABGIABGIABGICBSmdg4a+9L9xRf9Qb2CMxr4tqXMtJ16RkWHcdW+Futze59M02NjSAARiAARiAARiAARiAARiAARiAARiAARiAARiAgQpnQH6wfGH5w/KJ5RerbMhwsq6LZlzLPe/s7PSOuiaHYY1hDwMwAAMwAAMwAAMwAAMwAAMwAAMwAAMwAAMwAAPVx4D8YVXkkF8s3/ieGddyzfUiRtUwkZtOpnX1wcgPEGsOAzAAAzAAAzAAAzAAAzAAAzAAAzAAAzAAAzAgBuQP+6zrjg7vG8s/LvS/omRcm3GtFzGqpjWAAigMwAAMwAAMwAAMwAAMwAAMwAAMwAAMwAAMwAAMVC8D8onlFyvhGeO6wmvEcKNX743O2rP2MAADMAADMAADMAADMAADMAADMAADMAAD5cRASRnXqVQqZ8b1jd3TXevCB1zL/J+xlbAGWiOtVTndCMyVH24YgAEYgAEYgAEYgAEYgAEYgAEYgAEYgAEYKB0GZFzLLy6JjOtcxrWMUAzr8jLsMa9L50bnR5e1gAEYgAEYgAEYgAEYgAEYgAEYgAEYgAEYKCcGysa4JtO6vExrPWTQmpXTzcBc+fGGARiAARiAARiAARiAARiAARiAARiAARiAgdJgoGyMa7Kty8+41ppxo5fGjc46sA4wAAMwAAMwAAMwAAMwAAMwAAMwAAMwAAPlxADGdQnXiq4Es76cbgbmyo83DMAADMAADMAADMAADMAADMAADMAADMAADJQGAxjXGNejWjucG700bnTWgXWAARiAARiAARiAARiAARiAARiAARiAARgoJwYwrjGuMa5v8qNVTj9azBVeYQAGYAAGYAAGYAAGYAAGYAAGYAAGYKDyGcC4xrguWeO6p+Oam/Dya271ypXDrpXdca3B7f5mm2ttqh12jHL6IWyqPeue/csL7uih/VVxvWO5NvPnzndvTZ6KriX4oOfU0UPucM23rE0Jrs1Y3qOMVfl/tLLGrDEMwAAMwAAMwAAMwAAMVBcDGNdFNK5Ta59wN/ZMz9jUFtaqblv2+4Hju6e5ls9/ER1r++Khu+3zf+Y6vnkjI85QccMxSunzSH5Qvt640X3v+790U6ZM84bU2RNH3EMPP+7+vwcfdvPmzMvLpFqxfLmPsWTRosT+3e3N7tjhGnejtTHxeL7zf+WVSX5emlv71foRxcp3zKR+0kqaSbuk4yNpO7T/W/d/HnrMX+fn8z4vavytX21y//v3j0Qa6nuhc9U1hzEO1+wtOEa2MRsunvG6an2T+rRfq3eT3pjifvyLB93Tz/wtsU/SeYW06eHLHx99xms0/vmXizpGqeufS6fbXa1+bcR9741rOXX56MOZEWNay/qLZ6L+ekCmGNL4+OGaqD3X2Byrrj+YWG/WGwZgAAZgAAZgAAZgAAZgAAbGlgGM6yIa192XvnVJ//X33nQ3j6/wJnXHvo+iLq2L/1dkXHcemhe1y3h26b7oe9KHW3V7o3NLyaiOz2W4N7TMqIf/+JQ3ks4c/86bSNrLGAzN7KHiL1uy1PfPlrW9ZtUqfzxfIzzbeDISNS9tzfXn74np1dJY68eXRt3Xm4s+h4N790TX+M477xU1/qb1X0ZrKw1Xrvii4Pgb1q6N5qcYO7dvLThGtvX9cMbHPrYehCT1+XTWp5H2G79cl9gn6bxC2lqv1LlfPfB//Tgy6As5d6i+pa5/rvnLrNZ6i3v9buTqaw921F+bHoZZf/FtvznS2drZj+0fJeiN3jAAAzAAAzAAAzAAAzAAAzAAA8YAxnURjeuu2j0DHnN/v+u+et7dar3o+tO9ke98feN4d/3bD6PvrYvuGtftB+dE7TJ/uxq+c7daL/nN9ff7Y+ne7qgttXdWRRvXyu6VsaSyFwar9jLY1G5Z2OGxpM8yta7WX8xqaC1asNDHm/HBxxnjJMVSW2iMhZ91zMwwGdc6Fj+eLWY+7fnEkvmuOaikRbaYfZ0t/pji3WrPbm5bP8UJx166eIkfw4zr8Fi2MfPpY+d+MnOWjz8c49piiBnpkI9xnc/clE1ta3ujpSFR25cmvOr7yPy0eSTtTVeNOxz9T3530I9jxnU+88+nj821FPW3ueXaX2+ud52tTTm1D89XVrXWNDSu7bg9HMi21taPPX9IwQAMwAAMwAAMwAAMwAAMwAAMwMDoMoBxPQrGtQzmS5/8yNXO/JG7MPfByJDuPLo8b+PazleMdN8tH+PGhZ0+ptqaPvtxRRvXf3/xFW8s7dm5PcOMCo3raw0X3XPjXvL/tP9Pj//FHTlwtzSEzEZlQcug0jbrk9kZcWTmqZTExIlv+nHUd8fWzX5LMrNkgmoMmV3K7Hz99bd82Yz33/swimvm5tR/Tfd9VFZj1RdfZBi/+kHbu2uHLyehONpkel46dzKK8/XGDX4szVsZ4SqPoti6Vl1z0o/izevNPpb6xet5y4CbN2duRjap5qYtjJVqvuw0dzPuNK5qOmuOqp2tvmZcyxx+/M/j/LwmTZriLp45nhFLDwyU7W4ZrCrL8O67M5zWJRzzxJGDbsrb09yfn/6bkxluBrAZ1zKCNY602Pb1V/7cyZP/5b/rHNVBD+Pp81DG9cWzJ3ztdLtOxdm3e+egOBbXsvY//nBm1j6WcX/+5LFBfYqpvxnXxqBxEZ9/Jelv65C037huXXSviJGw9EfYf/OmjU7lfFTGRfeCjH9pl3Sv2/2mDPcwBp9H948R9EVfGIABGIABGIABGIABGIABGICBOAMY16NkXFvJjLZVj0TGdceRxXkb13a+9mZcd9XuKguzOmPuw3hZWO3ZE95UkrlkGaoGbmhcn7qTfSoDSltYDqSxdqAmsR2TEW4xtK87d8qfY8fDvUzBsK8Zl2Ef+yzT0/paW3yvF8dZnzCWGafW38zrqVPfzTq3adPej2JZTO3Xr13jz5HxHLbr88yPP/HHNJ4Z0RozvE7V5Y7Px+al/cF9Ay++M+M6PKbPob56KPDiPyZG1yDT2vrLLJfJrnnt2LYlarfjtjfjOhxvycLFngfN2/pZrPCacxnXZvzqfMUJYyXVBZcxbrqYeR+OZZ/FgWKKXWuzfTH1D+dvGtj+VsdVP3Yl6W8aZtvroYddv/bhvWbnWJmXsJ99TjKu7WFL06WBhzUWhz1/QMEADMAADMAADMAADMAADMAADMDA2DKAcT0KxrVKe/Rdr3O325uclfmQe33ty79iXOdhZMuclbGkbOP4D4IZ18q6tXq1MrjPHD88qK+Mp8ULF/lYobGqmDL5lC1tJpViKKa2cFxlXZrJpRgyl1WWwOaYZFwrG1tZz8//faDutdXPDmPJtNU8VN5AcTXGy/983bdpbsoMVZuyP2WGzp41O/oe10RGpQxh9b9wenDGrzJRdUwZp02XzvkSFarDrLIQFsvMVfWTgduVuuKOHtofGbsq3aK+oZGs44drBkq66Dwr1aAseX2XKayXGuq8q/UXIgNYDxj0UkwzhDW/Xdu3Or04T+dpM+NaDy5ktqtNxrViaV2tX6HGta23sqeVlaxNpVUUT/OVlqaJ9sry1jFpF7aHny9fOB3NJ+kln8XUPzSu9RBEGfhmvtsaVZL+oc5Jn7X+yvY3luLGtTLgjRX96wr9awe7L9WeZFxPePk1f470TRqTtrH9IwW90RsGYAAGYAAGYAAGYAAGYAAGqpcBjOvRMK6jHOuBD6pznTq12V2d+9McxnXmyxkzspbvlAqphozrVPOAUSwzzozQ8AfKjGszo7Tfn6PMgxmPcePaYg5V4/rbnd9ExldocsnglPmpsh4Wy+ak8hdqW/j5QP1sldLQ9z07Bgxd9ZPhbZtlJMt8s1iWsSzjXW2KqfPCPtZXZSJ0TOUqrC3ch2az+klbleQIy0uYoSvTLjxXRqnmr4xstVssmX/6roxkxdSmLHa1hQa0XaP2ZrDKiJbBbueFdaHNgDfjWvGks/qacS0u7NxCjOvwPD0QsLmZsayYZrRrXG1WHub44Rr/3dptbzWhda5pYsdsb5rZnEeif2hcW43sv/5tgtdDZTM0ZiXpbxoOtbfSH3Hj2l6+Ku3toYLMfluL8J62MfTgxo6LDWpdV+8fSMYEexiAARiAARiAARiAARiAARiAgXvDAMb1KBjXMqqv7p3nt9qVz7kzM37g6mf/xJf5aP1qQmRrp9Y/F5X+6Dy98Y7L3R+1mXldTaVCFny+wJtGyjBO+lFIMq5ldiaZ3Do/X+N6+vQPEsdTbWszsZStnDQna7N+ejmj2pRZrDYzrsNYMojDTdnWSxYNmNQ614xrK1+husyKlWRcq/a1jmUz8KWNsootK9XmqX1LY62fq9X1Heqll2bC2ssZNVczpM241osuFVvt4TXqs7JelRGseuQ2DztPsSwbNsm4tpdOhsZjIcZ1mPGujPb43MRAGE8Z5ZqjzGvNLWmz2tbqp5IUSX2Kqb8Z1zJqbSxlg2t8M64rRX+7vnz22Yxry6YX+5ZNr3/RYOwlGdf2kMj66OWu+cyBPsn3CLqgCwzAAAzAAAzAAAzAAAzAAAzAwHAZwLgeBeM63dvtX56oFyhenfvTDCO6+fP7I+P65rnN0bHbnVd9++2uVNRWbcZ1WD7CzN842GZcy6iSwWSmqZnD8f5DGdcrli+PzEmVjVAZkK1fbXJrVw+UKQnLQKichr0M8ErdeV++I6yrbUaXzT1uXIexVBrD5qoXFqqvXiBnbfka1+dODWQuy7w3Y85i2F5G5quvTfblOWRU6/psrnad0k9t0tOyjmXwqbSCzGYzuPMxrlWGxOKbFpqL6o7rxXgq6yIz0PrM+WyOn7vGtbbQuDbzUZoojumqvqHRbNebq8a1mfcymU0vZS7v/mabn5vF0F7GtsbYvuXraF3C4/osZvUCTpt395363WG/Yuqfj3FdKfqHGg71OZtxbfe/1qfm291+HUP+k4xre2Gr9tlehjrUfDjOH2UwAAMwAAMwAAMwAAMwAAMwAAMwMHIGMK5Hybg20zlpL3Pa/uvv63Yu3Wdf3Y1zO6rWuP5qw3pvAE56Y6C0RvwGl0lrRrVlBpvhKmNK5pWyW2VIPv7ncZGZaKai9jo/LCewY+vmqJ/Ftv5mQlqNZTvfspP1XeaW5ml1qtUmE/m7g/uiuapt3erVvl8YS+U5rBSF+pgxq8xrfdemOX13cL+zciJqUw1t08bibVi7NmqzY7a3Uhiat0zf8AWRmqf62QsxbdxwXmpTHeGwnrXaVCbFTD59l/7STGaylfxQu4xkMxb1ffnSZX5Mmen6ri28PmtTxrPmJuPY2sx4tu8q96H1Pna4JjGjXP3Ux7SwBx9q15hWZsPi6eGF+tbfMdE1nj2ssBhJe7tenRc/Xiz99VAlvH5lvYcmvljRQ4FK0D+uYdJ3PfyJ37O2jnZfSouQrZBDY6DjWkPGmhn7Yj5pXNpG/ocHGqIhDMAADMAADMAADMAADMAADMBAPgxgXBfVuN7tDeh0781B5nNoYNfO/Q/X19UWmdX2obP+cFRSJOwflQq5uDNn3PCcUvmcD4TWxwyj0Fi2Y9qfPnYoMjCtLENoGMvUU/ayjEwzEs3ICvdmiCqmsm3N/FUfGWEyM1Xb2saW+fXprE+jsdVPBpiMw1TzZd8vNMp1TGU7wjFXLFvu+yXF0rxltCkjWWNauRSbjzJFQ4NOmcDqp2u1Popr843vZdyGc9Fn6WP1s62/6jibyWr9VYbEMo6tlrYdW7d6la+rbd91HVayRRnpVsLCjmtM1V+2Ppq/THg7rn1ohNvLBrVG7747I+qn+txm4MqM13rLgA/jhJ91TXaN2su8tvPVz9b84L6BF1Cqj613vi/os5IhehlgOJY+F0t/vfAz5EAPeOzlo3a9Vl+93PWPa5j0Pcyctuu3vRixc/RQxn5bdFz3p2XliwO7h62/PZhSaRlrY88fVDAAAzAAAzAAAzAAAzAAAzAAAzAw9gxgXBfRuK6f/WN38v0fuHMf/jCnwXxt3s/c+Y9/6M7MvN81bHrDXVo93p384N9c3awfJZ539sMf+LhWJ7tUTOl85lHITT3l7WneRC7knGL1lTmq8hUyQbPF7OtscapzrRdIZuuTb7vFkhmZ7znxfnrZnAy59WvX5IyhMh96uaIySy+dOzlk+QPFVeawZR/Hxy3ku3RVLDOrk87VsXzGUz9lHSfFGE6btG+6dDZxzb9cs8Zrm2ve4ZhmuCs7PmzXZ/RP/j+2XPrHNSzGd923YemabDEtQ7srdWXQWmY7h/bkNUYXdIEBGIABGIABGIABGIABGIABGBgJAxjXRTSu8zFywz4ysK/M+YlrjtXBDvuU++eRwMm5/LiVCwOfzJzlM75letoLNctl7sxz4D5TuRnLjldmO7rw+wMDMAADMAADMAADMAADMAADMAAD95YBjOt7aFyXuymdz/y5we/tDY7+Y6O/sqqtXIxKoqD78HRXrXaV8hhqW/j5wqJrbGVXZFqHL09lLYe3luiGbjAAAzAAAzAAAzAAAzAAAzAAAyNlAOMa4zqxPEk+pnQ+fUYKKOfzI1dODKhecnd79nrj5XQt92Kuqqeu+tNDbWtWrSq6ca3r1QOIXOWC7oUmjMlvIAzAAAzAAAzAAAzAAAzAAAzAQLUygHGNcY1xfZMfwGr9AeS6YR8GYAAGYAAGYAAGYAAGYAAGYAAGYAAGSpMBjGuMa4xrjOtRyV7lR780f/RZF9YFBmAABmAABmAABmAABmAABmAABmCgHBgoG+O6deEDo2qw5lP2gj4/K2gNtGblcBMwR36sYQAGYAAGYAAGYAAGYAAGYAAGYAAGYAAGYKC0GCgb4/rG7ukFmaaYzIWZzKOhl9aMG760bnjWg/WAARiAARiAARiAARiAARiAARiAARiAARgoBwbKxriWmDJCyby+94b0UCa31gjTmh/AcvgBZI5wCgMwAAMwAAMwAAMwAAMwAAMwAAMwAAOlyUBJGdft7e1OEwKW0oSFdWFdYAAGYAAGYAAGYAAGYAAGYAAGYAAGYAAGYAAGxoIB+cTyi3t6elw6nXaF/ndfoSck9dfAmgDGNdCPBfSMAWcwAAMwAAMwAAMwAAMwAAMwAAMwAAMwAAMwUNoMlJRx3dHR4VoW/trdbm8i6/pmaYPDjc36wAAMwAAMwAAMwAAMwAAMwAAMwAAMwAAMwAAMjAYD8oflE8svvqcZ1/39/a6vr891dna69s0TXdexFRjXGNcwAAMwAAMwAAMwAAMwAAMwAAMwAAMwAAMwAAMwUIUMyB+WTyy/WL6x/ONC/ytKqRANrHIh3d3drqP+qHfTNTkyr3liMxpPbIgJVzAAAzAAAzAAAzAAAzAAAzAAAzAAAzAAAzBQegzID5Yv7LOt6496v1i+8T03ruWed3V1efNajromqFombGgAAzAAAzAAAzAAAzAAAzAAAzAAAzAAAzAAAzAAAxXOwMJf+0xrJTfLJ5ZffE+Na6V5W9a1JqPMa6WBq4aJXtioLZVKsaEBDMAADMAADMAADMAADMAADMAADMAADMAADMAADFQYA+YByw+WLyx/eCSmtfzmopQKsfokZl7LRdfEVHibDQ1gAAZgAAZgAAZgAAZgAAZgAAZgAAZgAAZgAAZgoDoYMMN6uJnW5jUX1bi2oDKwQxNbk2RDAxiAARiAARiAARiAARiAARiAARiAARiAARiAARiobAbMGzaveLj7UTGuhzsZzkMBFEABFEABFEABFEABFEABFEABFEABFEABFEABFEABjGsYQAEUQAEUQAEUQAEUQAEUQAEUQAEUQAEUQAEUQAEUKCkFMK5LajmYDAqgAAqgAAqgAAqgAAqgAAqgAAqgAAqgAAqgAAqgAMY1DKAACqAACqAACqAACqAACqAACqAACqAACqAACqAACpSUAhjXJbUcTAYFUAAFUAAFUAAFUAAFUAAFUAAFUAAFUAAFUAAFUADjGgZQAAVQAAVQAAVQAAVQAAVQAAVQAAVQAAVQAAVQAAVKSgGM65JaDiaDAiiAAiiAAiiAAiiAAiiAAiiAAiiAAiiAAiiAAiiAcQ0DKIACKIACKIACKIACKIACKIACKIACKIACKIACKIACJaUAxnVJLQeTQQEUQAEUQAEUQAEUQAEUQAEUQAEUQAEUQAEUQAEUGBXjur+/32lLp9NsaAADMAADMAADMAADMAADMAADMAADMAADMAADMAADVcKAecMjtd6LalyHZnVfX5/r6elhQwMYgAEYgAEYgAEYgAEYgAEYgAEYgAEYgAEYgAEYqBIG5AtbQrP84uH+VzTj2kxrTay7u9t1dXW5jo4O197ezoYGMAADMAADMAADMAADMAADMAADMAADMAADMAADMFDhDMgPli8sf9gM7OGa10UxrkPTWhNrO3rUNb3yT1f3wP2u7v6fsKEBDMAADMAADMAADMAADMAADMAADMAADMAADMAADFQ6Aw/c731h+cPyiUdiXhfVuJaTrknJsG5dttz1NDa63rY2NjSAARiAARiAARiAARiAARiAARiAARiAARiAARiAgQpnQH6wfGH5w/KJ5RerbMhwsq6LZlzLPe/s7PSOuiaHYY1hDwMwAAMwAAMwAAMwAAMwAAMwAAMwAAMwAAMwAAPVx4D8YVXkkF8s3/ieGddyzfUiRtUwkZtOpnX1wcgPEGsOAzAAAzAAAzAAAzAAAzAAAzAAAzAAAzAAAzAgBuQPyyeWXyzfWP5xof8VJePajGu9iFE1rQEUQGEABmAABmAABmAABmAABmAABmAABmAABmAABmCgehmQTyy/GOO6wuvDcJNX703O2rP2MAADMAADMAADMAADMAADMAADMAADMAAD5cZASRnXqVQqZ8Z187R3XN1vf8XbQ0v97aG//ZXTWpXbzcB8+QGHARiAARiAARiAARiAARiAARiAARiAARiAgdJgQMa1/OKSyLjOZVx707rUDVvml/FQAfO6NG5yfmxZBxiAARiAARiAARiAARiAARiAARiAARiAgXJjoGyMazKtf5JhCmvhSn777a/IuqYEDQzAAAzAAAzAAAzAAAzAAAzAAAzAAAzAAAzAQMEMlI9xXQ5GLXMcZKaX25Mc5svTRxiAARiAARiAARiAARiAARiAARiAARiAARi49wxgXGM2DzKbi5nJzU1+729y1oA1gAEYgAEYgAEYgAEYgAEYgAEYgAEYgAEYKDcGMK4xrjGu+acaBf9TjXL7oWO+/J8zDMAADMAADMAADMAADMAADMAADMAADJQXAxjXGNcY1xjXGNcwAAMwAAMwAAMwAAMwAAMwAAMwAAMwAAMwUFIMYFxjXJescd197Zqb8NJrbtWSL4Z906TqG9zOr7e5a7W1w45RTk/j6k+fdc88+4I78u3+qrjesVybubPnu8mTpqJrCf6f+Imaw+7grm9ZmxJcm7G8RxmrvDInWC/WCwZgAAZgAAZgAAZgAAZgYCgGMK6zGNfN095xzdOm3d2m/ss1PPP0IJP3ypS37/YJ+0+b5hrG/cX3b3x5gu9T/+SfB52vBdA2VJyG8X/NOo7m2TjhH67uf/9Hzj6X//sPWce3eRR7PxSAuY5/tXaD+973f+nenjzNG1JnDh1xD/3hCffA/3rYzZk1Ly+TasXC5T7G4vmLE/t3XWl23+2tce0NjYnHc80vPPbKy5P8vDS31OXLI4oVxi30s7SSZtKu0HOH6n9g5x73u98/5q9z/qfzixp/y/qv3H/+n0ciDfV9qPnEj+uawxiHdu8rOEY8pn2/fOq011Xra23hPnW53r3x2hT3458/6J566m+JfcL+w/mshy9/fOQZr9H4cROKOkap659Tr9ZWvzbi/ta1azl1mfHuxxFjWsu6k2ei/npAphjS+Oi+mqg959gYxegEAzAAAzAAAzAAAzAAAzAAAzAAA6PGgHzKVCrlenp6XDqddoX+d1+hJyT118CagCaiCSUZBcU2VHPG+/Uvkqbp23pbWtzlh+8awFk7OuduXrzor+d2Z6fvduPAwazG8VBxbtbW5uri+lIp1zRpUs4+LcuWZx0/px5ZzP18zklay7zaWlvdww8/5Y2k0wePeCa0lzEYmtlDxVq6YKnvvzJL1vbqpSv98XyN8GzjyUjUvLQ1nT2fyHC2c4vVfvVirR9fGsmQL1Zci1OzY3d0je+8/V5R429YuS5aW2m4YtGKguN/+cXaaH6K8c1XWwuOYdca338w/SMfWw9C4sf0ffZHn0bar1+5LrFP0nmFtF2rveR++Zv/8uPIoC/k3KH6lrr+ueYvs1rrLe57W1tz6mIPdtRfmx6GWWzxbb850tna2ZMBAAMwAAMwAAMwAAMwAAMwAAMwAAP3hgF5jxjXcWM2MK5vXWl2N86dc9q7/n5vDPf39bm63/y7N4HNKe5pa3NdtZcytitffOH79N0xrtvzMK6zxWlevTqKne7tHZhHOh21tWzd5hreeMOm47rq6qJjNq/6N98sG+Na2b0yllT2IvxxkMGmdsvCDo8lfZapdeXcxayG1sK5C308GZNJ58fbekJjLPzc1ubjaG7euNax2PF4rEK+Z4yb5UmezHeNP2929mzonpaWgetsbXU3m69mveaoX1ubC8dePH+JH8OM6/BY1uspQIeZM2b5+MMxrm18MSMd8jKu85ibsqkVT1t7fUOiZi+9+Ko/LvPT5pG0j3Qdpv7H9x/045hxXQ36J+kYb2uru+w6Gppyah+eo6xqrWdoXNtxeziQba2tH/t780cLuqM7DMAADMAADMAADMAADMAADFQPAxjXcdNa3wPj+sLEV9zJn/6bO/7TH7iTzz0bGcOty1dkGNd1M2a4Ez/9QcZ29uc/LNi4zhZHsSz+jTOn/TxkWlnbmZ//MMO4PnH/T6Jj1ufCL35UNsb1359/xRtLu7dszzCjQuO6+fxFlq2imQAAIABJREFU99xzL/p/2v+nx55zh4PSEDIblQUtg0rbJzNmZ8SRqaxSEhP/+aYfR323b9zstyQzSyaoxpDZpczO1ya+5ctmvPfOjCiumZv/emu676OyGisXr8gwfvXjumfrDl9OQnG0yfS8ePxEFGfT6g1+LM1bGeEqj6LYulZdc9IPdGdTs4+lfvF63jLg5nwyNyObVHPTFsZqvVTnNHcz7jSuajprjqqdrb5mXMscfvyJcX5ek16f4s4fOZ4RSw8MlO1uGawqy/Du1A+c1iUc89j+g+7tN6e5Pz853skMNwPYjGsZwRpHWmxZ/7U/9803/uW/6xzVQQ/j6fNQxvWFYyd87XS7TsXZu3XnoDgW17L2P3zv46x9LOP+7JGjg/oUU38zro1B4yI+/0rS39Yhaa/sdt2Xdp+HpT/C/l+v2+hUzkdlXHQvyPiXdkn3ut1vynAPY/C5ev4wYq1ZaxiAARiAARiAARiAARiAARgoDQYwrocwrhtefTUyey/++49d/516Kl2nT2cY1zfPX3DXt23L2C7/398XbFznimOlOTrPnLljXLdFc9OxMOP6+vbtGXNJrf8yo6/FGu39cG50mbgylWQuRRmqd7KMQ+P6RM0h3099tYUvcbx86mzGMRnh4VxqT5zKOG4xtJcpGPY14zLsY59lelpfa4vv9eI467Pk84HSJepjxqn1N/N66tvvZp3btCnvR7Espvbrvljjz5HxHLbr88fvf+KPaTwzojVmeJ2qyx2fj81Le2XAK5YZ1+Exfc7Qt7XVvfjCxOgaZFpbf5nlMtkVa/umLVG7Hbe9GdfheIvmLfY8aN7Wz2KF15zLuDbjV+crThgrqS64jHHTxcz7cCz7LA4U09bQ2rUvpv7h/E0D29+8eieDvoL0D3VM+qyHHnb92of3mvW3Mi9hP/ucZFzbw5b6MwMPaywO+9L4o4V1YB1gAAZgAAZgAAZgAAZgAAZgoHoYkG9JqZC4eR1kXIfGtcRSlrP+625syjCufWPsfxpefKFg4zoWwn+1OGYy52NcD4rTny4b41rmrIwlZRvHf4zMuFbWrdWrlcF96uBdc9jOkfG0cO4iHyvDWG1rczL5lC1tJpViKKa2cFxlXZrJpRgyJlWWwOaYZFwrG1tZz3/728v+XKufHcaSaat5djQ2etNXY7w84Q3fprkpM1Rtyv7UmLM+nB19t+uzvZiUIaz+5747NkgzZaPqmDJOG8+e8yVClKn68QefRH3NXFU/Gbg3Gq+4I9/uj4zdJONaxw/u+tbH1nm6Fs1JWfL6LlNYLzVU25VzFyIDWPXGVYPbDGHNb+dXW51enKfztJlxrQcXMtvVJuNasbSu1q9Q49rWW9nTykrWptIqiqf5xktvKMtbx6Sd6R3fXwoegiS95LOY+ofGtR6oKAPfzHdbo0rSP651/LvWX9n+xlLcuFYGvLGif12hf+1g96Xak4zrCS+95s/RQ6b4eHyvnj+OWGvWGgZgAAZgAAZgAAZgAAZgAAbuPQMY13HTOlYqJG5cW73qzrNnMozr7sZGlzp8JGO79PBDBRvXueIUYlxf/y5zLi17vi0L47rljlEsM86M0PCHwoxrM6O037ste5kHMx7jxrXFHKrG9e4t30TGV2hyyeCU+amyHhbL5qTyF2pbMGegfrZKaej77s0Dhq76yfC2zTKSZb5ZLMtYlvGuNsXUeWEf66syETqmchXWFu7DrGX1k7YqyRGWlzBDV6ZdeK6MUs1fGdlqt1gy//RdGcmKqU1Z7GoLDWi7Ru3NYJURLYPdzgvrQpsBb8a14kln9TXjWrWM7dxCjOvwPD0QsLmZsayYZrRrXG1WHubovhr/3dptL/Pf5mKa2DHbm2bWbyT6h8a11SgfN+4ffg72UshK0t80HGpvpT/ixrW9fFXa20MFmf22FuE9bWPowY0dFxvUur73f6jY2rBnLWAABmAABmAABmAABmAABmCguhjAuC7EuP7df0QvaGzdti3DuL48Y4Y79dN/y9hq78Q2szuflzPmilOIcX3qlz/NmMvpn/1bWRjXn3+2wJtGyjBO+jFKMq5ldiaZ3Do/X+N6+r8+SBxPta3NxFK2ctKcrM36+ZcztrX50iVqM+M6jCWDONyUbb14/kBGseKZcW3lK1SXWbGSjGvVvtaxbAa+tFFWsWWl2jy1v3qx1l+T1fUd6qWXZsLayxk1VzOkzbi20gxqD69Rn5X1qoxg1SO3edh5imXZsEnG9dw7L50MjcdCjOsw410Z7fG5iYEwnjLKNUeZ17bG8b3Vtla/bC/4LKb+ZlzLqLW5KBtc45txXSn62/Xls89mXFs2vb9v7ryIU/+iwdhLMq7tIZH18S93zfJC1HzmRp/q+qOK9Wa9YQAGYAAGYAAGYAAGYAAGYKB4DGBc52lc1z/6iOtpaowqcFx49E8ZxnXTRx9lNYYLMa5zxSnEuK77zb9nnY/FGYt9ITdrWD7CzN/4+WZcy6iSwWSmqZnD8f5DGdcrFi6PzEmVjVAZkC3rv3Jrlq3yxmBYBkLlNOxlgI1nz/vyHSp7YWOa0WVzV81ttdncwlgqjWHn6YWF6qsXyFlbvsb1mcMDpRBk3sfLXFgsGZmvvjLZl+e4drHWX5/N1a5Tc1Sb9LSsYxl8Kq0gs1nnKV4+xrUMVItvWuhc1R3Xi/FU1kVmoPX5dOYcP3eNa22hcS3DWu3SRHGkufULjWa73lw1rs289yazGZnNV93Or7f5uVkM7WVsa5xtGzZH6xIe12cxqxdw2nz0Pd6nmPrnY1xXiv5xHXN9z2Zc2/2v9dm/fZdfm81fborWK8m4the2ap/tZai55sKx4v2BgpZoCQMwAAMwAAMwAAMwAAMwAAPVzQDG9RDGtevvj7KszbVW2Y3a+3+cYVzbsXDf39vr+5hxHR6zzzf21+Qdx4zmYdW4Vl3u8xfG3Mwu5Adm0+ovvaH0xmsDpTXi58qkNaPaMoPNcJUxJfNK2a0ycB9/YlxkTpmpqL3OD8sJbN+4Oepnsa2/mZBWY9nOt+xkfZe5pXmqFImdJxP58J590VzVvnb5at8vjKXyHFaKQn3MmFXmtcXSnJT5a+VE1K4a2qaNxfvyi7VRmx2zvZXC0Lxl+oYviNQ81U91tG1M7cN56bvqCIf1rNWmMilm8um79JdmMpOt5IfaZSSbsajvyxcs82PKTNd3beH1WZuuW3OTcWxtZjzbd5X76G1tdd/trUnMKFc/3yf2ck+1a0wrs2Hx9PBCY9adPOPH1Hj2sML0TNrb9eq8+PFi6a+HKuH1K+s9NPHFih4KVIL+cQ2TvuvhT/yetXW0+1JahGyFHBoDqfqGjDUz9sV80ri0VfcfTaw/6w8DMAADMAADMAADMAADMAADY8cAxvVQxrU5zM653o4b7sqmjS4su+GN7aBP+DGdh3F9ff/+AeNaBnmW/yzOYOO6NcOIbnjj9SwRBpq7Sty4NsMoNJbDH4OTBw5HBqbPmI0ZxjL1lL0s49qMRDOywr0ZooqtOsFm/qqPjDCZmaptbWPL/Jr90afR2OonA0zGYeulOt8vNMp1TGU7wjGXL1zu+yXF0rxltCkjWWNauRSbjzJFQ4NOmcDqp2u1Popr843vZdyGc9Fn6WP1s62/6jibyWr9VYbEMo6tlrYdW7t8la+rbd91HaojrXjKSLcSFnZcY6r+spV10fxlwttx7UMj3F42qDV6d+oHUT/V5zYDV2a81lsGfBgn/KxrsmvUXln7dr762ZrbeOpj660XIIbnZvtsJUP0MsB4n2Lprxd+hhzoAY+9fNSu1+qrl7v+cQ2TvutfRth1x/dixM7RQxn7bVE/3Z+WlS8O7B62/vZgSqVlrI392P1RgtZoDQMwAAMwAAMwAAMwAAMwAAMwYAxgXCcZ1/f/xB340f8zaDv6k//Xnfn5DzPM4kMJ/ezcIz/5vu+r86wtvjcTPJ84Zlyf/Om/+XjHf/KDjLlc+MWPso6jcXWexRirvYGWz/7tN6d5EzmfvsXuI3NU5SuyldvQeD0tLU51rvUCyZGOb7FkRg43ll42J0Nu3RdrcsZQmQ+9XFGZpTLxhip/oLjKHLbs4+HOT+dJV8UyQzsplozsfMZTDGUdJ8UYTpu0rz9z1mdsx89ft2KN1zbXvMNzzHAPH4rYcfRP/j/cXPqbdsXc674NS9dki20Z2jcarxSNtWxj0Z7MBrqgCwzAAAzAAAzAAAzAAAzAAAzAgBjAuM5iXI+VsVvp4/BDww9NNTAwc8Ysn/0r09NeqFkN111J16hyM5Ydr8z2Sro2roXfYRiAARiAARiAARiAARiAARiAgXJkAOMa43pUs7DL8aZgzvyYF8qAsqqtXIxKohR6Pv0HmFOtdpXyGGpbMGdh0TW2sisyrcOXp7I2/B7AAAzAAAzAAAzAAAzAAAzAAAzAwL1hAOMa4xrj+s6L+/gRujc/QpWku+ol20s9K+m6xupaVE9d9aeH2lYvXVl041rXqAcQetnnWF0v4/CbAwMwAAMwAAMwAAMwAAMwAAMwAAPZGcC4xrjGuMa4xqiDARiAARiAARiAARiAARiAARiAARiAARiAgZJiAOMa4xrjmh+lkvpR4klj9ieNaIM2MAADMAADMAADMAADMAADMAADMAAD1cJA+RjXv/3VqBqsEoKtyBr89lcYopjiMAADMAADMAADMAADMAADMAADMAADMAADMAADBTNQNsZ187R3MJbLzFzXmlXLEyCuk6edMAADMAADMAADMAADMAADMAADMAADMAADMFA8BsrGuNaie/OazOvSN/B/+yu/VtyoxbtR0RItYQAGYAAGYAAGYAAGYAAGYAAGYAAGYAAGqomBkjKu29vbvSlbTQvAtfKDAwMwAAMwAAMwAAMwAAMwAAMwAAMwAAMwAAMwAAOZDMi4ll/c09Pj0um0K/S/+wo9Iam/BtYEMK4zFwdY0QMGYAAGYAAGYAAGYAAGYAAGYAAGYAAGYAAGYKAaGSgp47qjo8PVPXC/62lspDYyBdthAAZgAAZgAAZgAAZgAAZgAAZgAAZgAAZgAAZgoAoZkD8sn1h+8T3NuO7v73d9fX2us7PTNb3yT9e6bDlAViGQ1fjkiGvmiSkMwAAMwAAMwAAMwAAMwAAMwAAMwAAMwAAMZDIgf1g+sfxi+cbyjwv9ryilQjSwyoV0d3e7tqNHvZuuyZF5nblgAIweMAADMAADMAADMAADMAADMAADMAADMAADMAADlcqA/GD5wsq2lk8sv1i+8T0zruWWm3ktB10TkpuuVHDVvdaWSqXY0AAGYAAGYAAGYAAGYAAGYAAGYAAGYAAGYAAGYAAGKowB84DlB8sXlj8sn3i4prX85qJkXFuat5nXmpAmpvolbGgAAzAAAzAAAzAAAzAAAzAAAzAAAzAAAzAAAzAAA9XBgBnWIzGti25chwZ2aGJrkmxoAAMwAAMwAAMwAAMwAAMwAAMwAAMwAAMwAAMwAAOVzYB8YW0j/a+oGdcjnQznowAKoAAKoAAKoAAKoAAKoAAKoAAKoAAKoAAKoAAKoADGNQygAAqgAAqgAAqgAAqgAAqgAAqgAAqgAAqgAAqgAAqUlAIY1yW1HEwGBVAABVAABVAABVAABVAABVAABVAABVAABVAABVAA4xoGUAAFUAAFUAAFUAAFUAAFUAAFUAAFUAAFUAAFUAAFSkoBjOuSWg4mgwIogAIogAIogAIogAIogAIogAIogAIogAIogAIogHENAyiAAiiAAiiAAiiAAiiAAiiAAiiAAiiAAiiAAiiAAiWlAMZ1SS0Hk0EBFEABFEABFEABFEABFEABFEABFEABFEABFEABFMC4hgEUQAEUQAEUQAEUQAEUQAEUQAEUQAEUQAEUQAEUQIGSUgDjuqSWg8mgAAqgAAqgAAqgAAqgAAqgAAqgAAqgAAqgAAqgAAqMinHd39/vtKXTaTY0gAEYgAEYgAEYgAEYgAEYgAEYgAEYgAEYgAEYgIEqYcC84ZFa70U1rkOzuq+vz/X09LChAQzAAAzAAAzAAAzAAAzAAAzAAAzAAAzAAAzAAAxUCQPyhS2hWX7xcP8rmnFtprUm1t3d7bq6ulxHR4drb29nQwMYgAEYgAEYgAEYgAEYgAEYgAEYgAEYgAEYgAEYqHAG5AfLF5Y/bAb2cM3rohjXoWmtiZ1u6HQzd99y41d1u2e/uMWGBjAAAzAAAzAAAzAAAzAAAzAAAzAAAzAAAzAAAzBQ4QzID5YvLH9YPvFIzOuiGtdy0jUpTXDz6T53rbPfdXSzoQEMwAAMwAAMwAAMwAAMwAAMwAAMwAAMwAAMwAAMVDoD8oPlC8sflk8sv1hlQ4aTdV0041rueWfnQKa1Jlfpi8D18UMDAzAAAzAAAzAAAzAAAzAAAzAAAzAAAzAAAzAAA4MZkD+szGv5xfKN75lxLddcL2JUDRO56WRaD14sAEYTGIABGIABGIABGIABGIABGIABGIABGIABGICBamBA/rB8YvnF8o3lHxf6X1Eyrs241osYVdO6GsTnGvmRgQEYgAEYgAEYgAEYgAEYgAEYgAEYgAEYgAEYgIFkBuQTyy/GuKaWNg8MYAAGYAAGYAAGYAAGYAAGYAAGYAAGYAAGYAAGYKAkGCgp4zqVSuXMuF54oNc9v+YWbw8t8beHao20VjwtSn5ahC7oAgMwAAMwAAMwAAMwAAMwAAMwAAMwAAMwAAO5GZBxLb+4JDKucxnXMkI1Wbby0QDzOvfNx48T+sAADMAADMAADMAADMAADMAADMAADMAADMBAMgNlY1yTaV0+hrU9XNCaceMl33jogi4wAAMwAAMwAAMwAAMwAAMwAAMwAAMwAAMwkJ2BsjGuzQxlX14GNjdf9psPbdAGBmAABmAABmAABmAABmAABmAABmAABmAABpIZwLim/Mioll/hxku+8dAFXWAABmAABmAABmAABmAABmAABmAABmAABmAgOwMY1xjXGNe8KZaSLjAAAzAAAzAAAzAAAzAAAzAAAzAAAzAAAzBQUgxgXGNcY1zzo1RSP0o8acz+pBFt0AYGYAAGYAAGYAAGYAAGYAAGYAAGYKBaGMC4xrguWeO6rbPXvfDyW27pyk3DNlabWjvd5h37Xd2V1LBjlNOPwbm6ZvfUuAlu35FTVXG9Y7k2s+ctc6+/9T66luCDnkPHz7s9Ncfvydpwz/EH41j+DjEWvMEADMAADMAADMAADMAADFQTAxjXo2BcT93a4zaduu2ONqbdN+f73Hvf9Awyh+fv73WLDiRv07f3+HOyHVf7R7t6B8XUYpbaNpKbad2mne573/+lmzTlI29IfXfyovuvh59yv3nwf9ysuUvzMqkWLV/vY8xfvCaxf0t7j9t/+JRrbutKPJ7v/P8x8V9+XppbY0vHiGLlO2ZSP2klzaRd0vGRtO2uOeZ+99AT/jo/nb+iqPE3bN7tHvz9Y5GG+l7oXHXNYYw9B04UHCPbmGdrr3hdtb5JfRpbOt3ESdPdj3/xn+6JZ19K7JN0XiFtevjy34+O8xr95e+vFnWMUtc/l07tN9N+bcR9qqsvpy7TP5wbMaa1PFPbFPXXAzLFkMY1R05H7bnG1rHRvOeGGnu0jh89fSn6rZVO8xavyluP0ZoTcfnjHAZgAAZgAAZgAAZgAAZgAAaqjwGM6yKaveNWdbvjTWmX9F9dW9o9F4yV1MfaGq6nXWN7chzro5u11EzqpPkM90dFZtQf/visN5KOnLzoTRPtZQyGZvZQ8RcsXef7L1m5MdF4WbpqwKzK1wjPNp6MRM1L28X6lsSxsp1brPZLjW1+fGl0rb2n6HPYtf9odI1vT/ukqPFXb9gWra00XLxiQ8HxV325NZqfYny9fX/BMbKtxfQZc31sPQhJ6vPRrIWR9qvWb03sk3ReIW2Xm6+7+x94yI8jg76Qc4fqW+r655q/zGqtt7jX70auvmYyq782PQyz/uLbfnOks7Xn2o/2PZdr7NE8dvRUbcb9OO2DOXnpMZpzInb1/YHKmrPmMAADMAADMAADMAADMAADGNeBmZxkvBbSFprWDW19bueZTqe9/Xeq+XZkNltb+83brjHVm7FtOXnTbTvVHbX1pft993TaRW01F7ujWIXMcaz7DvdHRtm9MpZU9iKMIYNN7ZaFHR5L+ixTq7ahNauhNXfhSh8vX2PmemCMxU0yM8NkXOtY/HjS/PJtC8fNdo7Md81h9rzs2dCprtteT82t9UZvhrZhXOuntnDs+UvW+DHMuA6PheeHnwvR4YOZC3z84RjXNqaYkQ75GNf5zE3Z1La2V1qTM/P/PmGy7yPz0+aRtDddh6v/gaNn/ThmXFeD/kk6xtsarnW45rabObUPz1FWtdY0NK7tuD0cyLbW1k/7Qu459c+2XuJBpZHC2Nk+Z4sR9jfOco2pY0Pxr39ZIZ3y/X0M58Bn/sCEARiAARiAARiAARiAARiAARgYKQPyMVOplOvp6XFpGaMF/ndfgf0Tu2tgTUAT0YSSLmqsDddCx3tzc090bQcudrknPr/mnlx83e8vt/Y6Wc+9t+9mSVvnJfs6fB/1t+3Jxe3RuWq71NLru1/vun23z6IBrQqd51j3T1rLfNrGv/SGN0y27qrJ4CE0rmsbW93T4/7p/2n/I4+Pd98GpSFkNioLWgaVthmzFmbEkWGjUhITXp3qx1HfTdv2+i3JzJIJqjFk4iiz85U3pvmyGe+8/2kU18zNyVM/9n1UVmPxFxsGmVXbdh/05SQUR5tMz5PnG6I4azft8GNp3soIV3kUxda16pqT9LvWfivKkIzX85YB98mcpRnZpJqbtjBW/dV2p7mbcadxVdNZc1QdX/U141rm8KNPPe/n9eqb77rjZ+oyYumBgbLdLYNV5QamvjfbaV3CMWu+O+smTZnhHn/mRScz3AxgM65lBGscabFhy0D5kNcmv++/65wks28o4/rEuXpfO92uU3G+2XMoY17hHC1r/90P52XtYxn3KrEQnqvPxdTfjGtj0LiIz7+S9I/rGX5Xlr3uS7vPw9IfYb8vv9rpVM5HZVx0L8j4l3ZJ97rdb8pwD2PEP+e658SlHorpHtM4Yk18a902bfvWx9X5elBj95H66X4Jf/OOnLjg56zr071nbCtuvJxJPvevrqEQ/jGu+SMzzj3fYQIGYAAGYAAGYAAGYAAGYGAsGZCPiXFdhKzrtcfuZlaPX5FpKj+xoMX96bPL7tG5TVGWtBnXl1NpV3P5dsb28vrMmtiXWgdiy2wda+N5pOMNB+aT5+q92SNzKcwcVKzQuD54bCD7VIaPtvAljucuDdQktmMywsO5nLrQ4M+x4+Fe5lLY14zLsI99lulpfa0tvteL46zP50vXRuOacWr9zbye/M7MqI8ds/2U6bOiWBZT+5XrtvhzZDyH7fr83sfz/TGNZ0a04oXXqbrc8fnYmNrv2n/MxzXjOjymz6G+4vRv/3gzugaZ1tZfhpsMO83rq237onY7bnszrsPxVGdXPGje1s9ihdds5l5SxrUZvzpfccJYSXXBZUCaLmbeh2PZZ3GgmGLX2mxfTP3D+ZsGtjcTv5L0Nw2z7fXQw65f+/Bes3OszEvYzz4nGdf2sOV83dVBa2kxtc92z8X1t7FsP/OzJT6uXhprbTKmzeRWW31zu++z/utdUR/ra3v9PmoszSXf+zfkJx/+Ma75gzRkns/wAAMwAAMwAAMwAAMwAAMwMNYMYFwXwbSWiIfqBszl2+l+98yKgTIeegFja1d/xvbXVQPHzLhO2s/YUd3GtcxZmTPKNo7fEGZcK+vW6tXKwFFmYryvjKe5i1b5WKGxqn4y+ZQtbSaVYiimtnBcZV2aUaQYMpdVlsDmmGRcKxtbWc/jXnjdn2v1s8NYMm01j6upm9701RgvvTLFt2luygxVm7I/ZYZ+OHughrK+x69TpQPM9DoWy3xWX5liiqWM0/OXr/kSIarD/P7Mz6NYZq6qnwzcq9e73b4jpyJjV6VbFCs0knV8T83xSB9di/ooY1RxZIzppYZqU7kWM4BVb1wvxbTvmp9MPL04T+dpM+NaRrXMdrXZC+K0rtavUOPa1lvZ08pK1qbSKoqn+cbLMCjLW8ekna4jaTt9sTGaT9JLPoupf2g86oGKMvDNfLc1qiT9k/QO27T+yvY3luLGtTLgjRX96wr9awe7L9WeZFy/8PJb/hw9ZArHCj/nuue27T4QjamMapnQepBm/2LDfg90v+heE8+657XZWu47fNKPLWPa6qdrvvpXIra++q4sa80r3/u3UP4xrpPv+ZAFPqMRDMAADMAADMAADMAADMAADIweAxjXRTKu914YKBXS3++irOhNJ++WDzGD+vk1t/xx+36147Y73XgrY5u4/mYUQwtUTRnXMnlkyMjAMSM0/AEw41p9bNvx7eGsBpMZj3Hj2mIOVeM6NKFCk0vGlcxPlfWwWDYflb9Q25wFA/WzVUpD37fsGDB01U+Gt22WkSzzzWJZxrKMd7Upps4L+1hflYnQMZWrsLZwH5rN6idtVZIjLC9hhpZMu/BcGaWavzI61W6xZP7pu8w2xdSmLHa1hQa0XaP2ZsrJiJbBbueFdaHNgDfjWvGks/qaca1axnZuIcZ1eJ4eANjczFhWTDPaNa42MxvjZRnsuMx/m4tpYsdsb5pZv5HoHxrXVqP82b9N9HNQ2QyNWUn6m4ZD7fXgSfrGjWt7+aqO2UMFmf22FuE9bWPITLbjYiOp1nWue85MZK2z7g+LK5N54qTp7vDxc75NZXM+W/BF9JDKxtReBrudt3DZl34+dn/rYYv11UMT9cvn/h0O/xjXo/fHl60vezSGARiAARiAARiAARiAARiAgewMYFwXybhedvCmedFu8uaBjOkJa264T7a1upoLXdGx59dkZlwv2d/h/rywNWN7ZkX1GtcycmTKKMM46cZNMq5ldiaZ3Do/X+N6yrvJJThUbsKkY8sIAAAgAElEQVRMImUrJ83J2qyfXs6oNpUuUZsZ12EsGcThpmzr+YvXRPHNuLbyFapLq1hJxrVqX+tYNgNf2iir2LJSbZ7aX2ps82NaXd+hXnppJqy9nFHXaYa0Gdd6kZtiqz28Rn1W1qsyRlWP3OZh5ymWZcMmGdez5y3zcw2Nx0KM6zDjXRnt8bmJgTCeMso1R5nXtsbxvdW2Vj+VpIgf1/di6m/GtYxaG0vZ4BrfjOtK0d+uL599NuPasunFvpXVCB+2JBnX9pDI+NS/FojPIdc9Z/rrgZSNGT9f3/UvMzSG5iZ29BDN7tEk4zq8N+P3XD73b6H8a44Y19n/eEpaU9rQCwZgAAZgAAZgAAZgAAZgAAaKywDGdZGM6xdXdzplW+s/QfreNz2+ZMjrG2+6mz13Djjn4sb1skMDGdhaiGxbtWRch+UjzPyN3/BmXMuoksFkBo6Zw/H+QxnXi5avj8xJZTKqDMiGzbvdstVf+XUMy0Aok9IyKC/UX/Pmuspe2JhmdNnc48Z1GEulMew8ZV6qr14gZ235GtdHT9X6+cu8j5e5sFgy0l5+7R1fnuNSU8pfn83VrlP6qU16WtaxrlUGmsxmnad4+RjXKkNi8U0LnatyCXoxnsq6yAy0PjM/W+znrnGtLTSuZVirXZoojjS3fqHRbNebq8a1GYMyCs1UVOay1kNzsxjay9jWOBu3DrxMLzxmn8WsXsB5dz49GTHUr5j652NcV4r+pnE++2zGtd3/Wp+de7/zaxPWjU4yru2FrdonvQx1qHsu1N9KAok1ca9/baAyILpXjRmrza/fH3tRY6HGdb73byH8S3eM6+L+wZUPy/RBcxiAARiAARiAARiAARiAARi4ywDGdQ7DOJuRnNSuutbbT92IMqv1ofd2xlf/JW5cD+7hXF/6brkRjVUtxvWajdu9maN/Tp90k8owMqPasg/NsJEJJPNK2a0yhcwAMnPI9jo/LCewadveyECy2Nb3WvuACWk1ltWuPpbdqO8ytzRXlSKx82Qi7z14Ipqr2les+dr3C2Ppn/dbKQr1MWNWmdcWS+PJ6LJyImpXpqbpY/Es29baw72VwtC8ZfqGL4jUPNXXXohp44bzUpvqCIf1rNWmMilm8um79JdmMpOt5IfaZSSbsajvC5eu82PKTNd3beH1WZsynjU3GcfWZsabfVe5D5mC+w+firJV7Zjt1cf0sAcfOqYxrcyG9ZV5qL5napv8mBrPHlZYjKS9Xa/Oix8vlv56qBJev7LeQxNfrMgcrQT94xomfdfDhvg9a+to96W0CNkKOTQGmlo7M9bM2BfzSeMOdc/F9Rcb4brZwyL71wU6pt+8cG66LrEU/ssEzVf3uWXY2/w1Xj73r64lH/5VGiWci2mqveaaZOYn6UTb3T+00AItYAAGYAAGYAAGYAAGYAAGYGB4DGBcF8m4lpBPLr7uNh3tcHfzq53/fOFqj2u63us96vF3Xs4Y9omb133p/ozsazOuUzfTGe1JBnqptRVyY5phFBrL4fmqDWsmipVlCA1jmSrKXpZxbUai9Q/3ZogqtrJtzYhSHxlGMjNV29rGljEUviBN/WTsyDi0l6OFRrmOqWxHOKbq1CpeUizNW0abMpLVx8ql2HyUKRoadMoEVj9dq/VRXJtvfC/jNpyLPksfq59t/VXH2UxW66+SCJZxbHV97djyNV/7utr2XdehOrqKp4z00GCzMVV/2cq6aP5WLsFihEa4vWxQazT1vdnRNag+t8bSOTLjtd4y4C1GfK9rsmvUXuadna++tua79g+8gFJ9bL31AsTw3GyfrWSIXgYY71Ms/fXCz5ADmZ328lG7ZquvXu76xzVM+q5/GWHXHd+LETtHpq79tqif7k/LyhcHdg9bf3swpdIa1mb7fO+5JP3F4aefr/AvBFU8PWwJ7zfdk8a51lnGueq/h9emBxVmeKs9vOeGun/tGobiX8Z1yFk4vtrDf0VhMdkP7w8wdEM3GIABGIABGIABGIABGIABGMjNAMZ1EY1rifnUknb32JzL7u0vm91HW1vc43Pr3RMLWtzjn19zj3xaFxnPf/rssv+utvj22NyGqJ9i6nz1eXx+c0Z7qZnUSfMp5AacNGWGN5ELOadYfWWOqnyFTNBsMVNdt53qXOsFktn65NtusWRG5ntOvJ9eNidDbuW6LTljqMyHXq6ozNKT5xuGzJhUXGV7WvZxfNxCvktXxTJDO+lcGdn5jKcYyjpOijGcNml/vu5qVDIkjLFi7Wavba55h/3NcFd2fNiuz+if/H9CufSPa1iM77pv8zFdLUP76vXuQWuZ7z1n8zX+cz1Y0u9OMX5TbMx879+x1t/mxz75fkAXdIEBGIABGIABGIABGIABGICBwQzIa0ylUq6np8el0+l47u+Q3+8bskceHTSwJqCJaEJJC5VkipZy29PLu9zTy26UndFcbE2T1pK2wTcimpS3Jh/MXOAzY2V62gs1WdPyWlNlQFt2vDKLWb/yWj/Wi/WCARiAARiAARiAARiAARiAgcpjQD4lxnWRs66Lbf6Wczx+NCrvR4M1Hbymyqq2cjEq+YBGgzXKRxPVcFYpj6G2OQtWFl1jK7si0zp8eWo+86bP8NYb3dANBmAABmAABmAABmAABmAABmAgFwMY15jWo5oVngs+jvHjVGkMqF5yy52XelbatY3F9aieuupPD7UtXbWp6Ma1rk8PIPSyz7G4Vsbg9w8GYAAGYAAGYAAGYAAGYAAGYAAGcjOAcY1xjXHdnfsm4UcEfWAABmAABmAABmAABmAABmAABmAABmAABmBgbBnAuMa4xrjGuCbDFAZgAAZgAAZgAAZgAAZgAAZgAAZgAAZgAAZKioGyMa6fX3NrVA1WCcFWXA20ZjyJGtsnUeiN3jAAAzAAAzAAAzAAAzAAAzAAAzAAAzAAA5XAQNkY1wsP9GIsl5m5rjWrhJuEa+DHHgZgAAZgAAZgAAZgAAZgAAZgAAZgAAZgAAbGloGyMa4FhoxQMq+LmxU9GlnmWiNM67G9kfnhRG8YgAEYgAEYgAEYgAEYgAEYgAEYgAEYgIFKYqCkjOv29nafVV1JAnMt/GDAAAzAAAzAAAzAAAzAAAzAAAzAAAzAAAzAAAzAQGEMyLiWX9zT0+PS6bQr9L/7Cj0hqb8G1gQwrgtbPGBHLxiAARiAARiAARiAARiAARiAARiAARiAARiAgUpkoKSM646ODjd+Vbe71glslQgb1wTXMAADMAADMAADMAADMAADMAADMAADMAADMAADQzEgf1g+sfzie5px3d/f7/r6+lxnZ6ebufuW23y6j5f6dQPwUABzHEZgAAZgAAZgAAZgAAZgAAZgAAZgAAZgAAZgoPIYkD8sn1h+sXxj+ceF/leUUiEaWOVCuru73emGTu+ma3JkXlcedPyQsKYwAAMwAAMwAAMwAAMwAAMwAAMwAAMwAAMwAANJDMgPli+sbGv5xPKL5Rvfc+Na7nlXV5eflBx1TVC1TNjQAAZgAAZgAAZgAAZgAAZgAAZgAAZgAAZgAAZgAAYqmwH5wfKFZVrLJ5ZffE+Na6V5W9a1JiMnXWngqmGiFzZqS6VSbGgAAzAAAzAAAzAAAzAAAzAAAzAAAzAAAzAAAzAAAxXGgHnA8oPlC8sfHolpLb+5KKVCrD6Jmddy0TUxFd5mQwMYgAEYgAEYgAEYgAEYgAEYgAEYgAEYgAEYgAEYqA4GzLAebqa1ec1FNa4tqAzs0MTWJNnQAAZgAAZgAAZgAAZgAAZgAAZgAAZgAAZgAAZgAAYqmwHzhs0rHu5+VIzr4U6G81AABVAABVAABVAABVAABVAABVAABVAABVAABVAABVAA4xoGUAAFUAAFUAAFUAAFUAAFUAAFUAAFUAAFUAAFUAAFSkoBjOuSWg4mgwIogAIogAIogAIogAIogAIogAIogAIogAIogAIogHENAyiAAiiAAiiAAiiAAiiAAiiAAiiAAiiAAiiAAiiAAiWlAMZ1SS0Hk0EBFEABFEABFEABFEABFEABFEABFEABFEABFEABFMC4hgEUQAEUQAEUQAEUQAEUQAEUQAEUQAEUQAEUQAEUQIGSUgDjuqSWg8mgAAqgAAqgAAqgAAqgAAqgAAqgAAqgAAqgAAqgAApgXMMACqAACqAACqAACqAACqAACqAACqAACqAACqAACqBASSmAcV1Sy8FkUAAFUAAFUAAFUAAFUAAFUAAFUAAFUAAFUAAFUAAFRsW47u/vd9rS6TQbGsAADMAADMAADMAADMAADMAADMAADMAADMAADMBAlTBg3vBIrfeiGtehWd3X1+d6enrY0AAGYAAGYAAGYAAGYAAGYAAGYAAGYAAGYAAGYAAGqoQB+cKW0Cy/eLj/Fc24NtNaE+vu7nZdXV2uo6PDtbe3s6EBDMAADMAADMAADMAADMAADMAADMAADMAADMAADFQ4A/KD5QvLHzYDe7jmdVGM69C01sRON3S6mbtvufGrut2zX9xiQwMYgAEYgAEYgAEYgAEYgAEYgAEYgAEYgAEYgAEYqHAG5AfLF5Y/LJ94JOZ1UY1rOemalCa4+XSfu9bZ7zq62dAABmAABmAABmAABmAABmAABmAABmAABmAABmAABiqdAfnB8oXlD8snll+ssiHDyboumnEt97yzcyDTWpOr9EXg+vihgQEYgAEYgAEYgAEYgAEYgAEYgAEYgAEYgAEYgIHBDMgfVua1/GL5xvfMuJZrrhcxqoaJ3HQyrQcvFgCjCQzAAAzAAAzAAAzAAAzAAAzAAAzAAAzAAAzAQDUwIH9YPrH8YvnG8o8L/a8oGddmXOtFjKppXQ3ic438yMAADMAADMAADMAADMAADMAADMAADMAADMAADMBAMgPyieUXY1xTS5sHBjAAAzAAAzAAAzAAAzAAAzAAAzAAAzAAAzAAAzBQEgyUlHGdSqVyZlwvPNDrnl9zi7eHlvjbQ7VGWiueFiU/LUIXdIEBGIABGIABGIABGIABGIABGIABGIABGICB3AzIuJZfXBIZ17mMaxmhmixb+WiAeZ375uPHCX1gAAZgAAZgAAZgAAZgAAZgAAZgAAZgAAZgIJmBsjGuybQuH8PaHi5ozbjxkm88dEEXGIABGIABGIABGIABGIABGIABGIABGIABGMjOQNkY12aGsi8vA5ubL/vNhzZoAwMwAAMwAAMwAAMwAAMwAAMwAAMwAAMwAAPJDGBcU35kVMuvcOMl33jogi4wAAMwAAMwAAMwAAMwAAMwAAMwAAMwAAMwkJ0BjGuMa4xr3hRLSRcYgAEYgAEYgAEYgAEYgAEYgAEYgAEYgAEYKCkGMK4xrjGu+VEqqR8lnjRmf9KINmgDAzAAAzAAAzAAAzAAAzAAAzAAAzBQLQxgXGNcl6xx3dbZ6154+S23dOWmYRurTa2dbvOO/a7uSmrYMcrpx+BcXbN7atwEt+/Iqaq43rFcm9nzlrnX33ofXUvwQc+h4+fdnprj92RtuOf4g3Esf4cYC95gAAZgAAZgAAZgAAZgAAaqiQGM61Ewrqdu7XGbTt12RxvT7pvzfe69b3oGmcPz9/e6RQeSt+nbe/w52Y6r/aNdvYNiajFLbRvJzbRu0073ve//0k2a8pE3pL47edH918NPud88+D9u1tyleZlUi5av9zHmL16T2L+lvcftP3zKNbd1JR7Pd/7/mPgvPy/NrbGlY0Sx8h0zqZ+0kmbSLun4SNp21xxzv3voCX+dn85fUdT4Gzbvdg/+/rFIQ30vdK665jDGngMnCo6RbcyztVe8rlrfpD6NLZ1u4qTp7se/+E/3xLMvJfZJOq+QNj18+e9Hx3mN/vL3V4s6Rqnrn0un9ptpvzbiPtXVl1OX6R/OjRjTWp6pbYr66wGZYkjjmiOno/ZcY+vYaN5zQ43Ncf5ghQEYgAEYgAEYgAEYgAEYgAEYqGQGMK6LaPaOW9XtjjelXdJ/dW1p91wwVlIfa2u4nnaN7clxrI+gLDWTOmk+w715ZEb94Y/PeiPpyMmL3kTSXsZgaGYPFX/B0nW+/5KVGxONqKWrBsyqfI3wbOPJSNS8tF2sb0kcK9u5xWq/1Njmx5dG19p7ij6HXfuPRtf49rRPihp/9YZt0dpKw8UrNhQcf9WXW6P5KcbX2/cXHCPbWkyfMdfH1oOQpD4fzVoYab9q/dbEPknnFdJ2ufm6u/+Bh/w4MugLOXeovqWuf675y6zWeot7/W7k6msms/pr08Mw6y++7TdHOlt7rv1o33O5xuYYf5zCAAzAAAzAAAzAAAzAAAzAAAxUOgMY14GZnGS8FtIWmtYNbX1u55lOp739d6r5dmQ2W1v7zduuMdWbsW05edNtO9UdtfWl+333dNpFbTUXu6NYhcxxrPsO9wZSdq+MJZW9CGPIYFO7ZWGHx5I+y9SqbWjNamjNXbjSx5v2wZyMcZJiqe16YIzFTTIzw2Rc61j8eLaY+bSH42brL/Ndc5g9L3s2dKrrtr9Oza31Rm/Wa7Z+8Wuev2SNH8OM63zmVYgOH8xc4OMPx7g2XcSMdMjHuM5nbsqmtrW90pqcmf/3CZN9H5mfNo+kvek6XP0PHD3rxzHjuhr0T9Ix3tZwrcM1t93MqX14jrKqtaahcW3H7eFAtrW2ftrnc8+p31DrJB5UGimMzWf+AIUBGIABGIABGIABGIABGIABGKh2BuRjplIp19PT49IyRgv8774C+yd218CagCaiCSUtylgbroWO9+bmnujaDlzsck98fs09ufi6319u7XWynntv382Sts5L9nX4Pupv25OL26Nz1Xappdd3v951+26fRQNaFTrPse6ftJb5tI1/6Q1vLG3dVZPBQ2hc1za2uqfH/dP/0/5HHh/vvg1KQ8hsVBa0DCptM2YtzIgjo0ilJCa8OtWPo76btu31W5KZJRNUY8jsUmbnK29M82Uz3nn/0yiumZuTp37s+6isxuIvNgwyrbbtPujLSSiONpmeJ883RHHWbtrhx9K8lRGu8iiKrWvVNSfpd639lo+lfvF63jLgPpmzNCObVHPTFsaqv9ruNHcz7jSuajprjqrjq75mXMscfvSp5/28Xn3zXXf8TF1GLD0wULa7ZbCqLMPU92Y7rUs4Zs13Z92kKTPc48+86GSGmwFsxrWMYI0jLTZsGSgf8trk9/13nZNk9g1lXJ84V+9rp9t1Ks43ew5lzCuco2Xtv/vhvKx9LOP+6OlLg/oUU38zro1B4yI+/0rSP1yL+Gdl2eu+tPs8LP0R9v3yq51O5XxUxkX3gox/aZd0r9v9pgz3MEb8c7Z7Tg+ONB8x8dmCL6L7Sd/D+0Tn60GN3Ueaj+6X8DdPv0l2fdrrftG/HrHrFeuFGPbxa+A7fwTDAAzAAAzAAAzAAAzAAAzAAAyUMgPyMTGui5B1vfbY3czq8SsyTeUnFrS4P3122T06tynKkjbj+nIq7Wou387YXl6fWRP7UutAbJmtY208j3S84cB/8ly9N5VkLlmGqsUJjeuDxwayT2X4aAtf4nju0kBNYjsmI9xiaH/qQoM/x46He5mCYd//n717/7WjOuz+7/8g/wsi/Q/gVyQkJIQUCVEQpaHlAQyE8EAQoSSEhKJCSvn6y6VAAiWUECDcHlygmEtsHjCUWw0uji9xTHBcX4hDiZlHn6FrOudwznh7zd7mXF5H2pm9Z9Zas/Z73rMdfdZiTQku+2XK+4SepWzZN3+bB8eVMj/52WPdeUtwWsqX8PoHN63rypRjZfujv7u9a6u0me3Dv/yXtk6C5/7+vL/l/7u3PZbzlSA67fW/Z9blnt+fcs5sX9z0VttuCa77x/K+zzeefuuq67vvkNC6lE9YnsAu/fo/z23s9pfjZVuC6/757vmnX7Q+pN+lXGmr/52HgusS/KZ+2um3tdC64AnGC5cS3vfPVd7Hg7QZd8u+sp0m/37/C4OyLSH+SuJfGC62zaBH+f7Z9u+1Uqcs89IvV94vFFyXwZat2z/60rUsbWa72D2XcLy0v9A266Wnfh4aW44niM69UT7v3LO/LfMPd3yxBE3Zn6C+DLaVfUfrZ7/P3vs/pBzgAAc4wAEOcIADHOAABziwnBwQXE8htA7E17d/ES7/6cjnzYUPfbGMRx7AuPeTz+e8Lv3FF8dKcL3Q9tYXVndwnXA2oUxmG8+/mUpwnVm3Zb3aBNxvvPMfXyqbQOfu+3/RttUPVtNmQr7Mli4hVdpIm3n1z5tZlyUgShsJl7MsQenjQsF1ZmNn1vMlV1zX1i3rZ/fbSmibfny07w9t6JtzXHnNj9p96VsJvzL7M2FoCbDyeT6TLENQQq+35s18TtmEYmk/M0637vhdu0RI1mH+8bqfdG2VcDXlEuB+9J+Hm41vvNcFu1m6JW31g+Qcf/nVtzs++S4pkxmjaSehcAnpslxLCYAzYzQPxSyf07+EeHlwXurlVYLrDFwkbM++BNdpP9e1lDvW4Lpc78yezqzkvDJDNu2lv/OXdMgs7xwLu5x7ode/f/ibrj8LPeRzmvz7wXUGVDIDv4Tv5RqtJP4L8e7vy/XPLObi0vzgOjPgiysJfPNfO5T7MvsXCq6vuPqGtk4Gmfrn6r8fuudyH5T+ZJZ0Bsky8FOuU1nmKOVyr8Xn3PN5lTIbN7/bnjt+5j5NX/Nbk0GJ/P6U75T/eqDfL+8XvkdxwYUDHOAABzjAAQ5wgAMc4MDydEBwPaXg+lf/8cVSIZ9/3nSzop9+93+WDykB9eWP/rE9Xj5/dOBPzb//5o9zXt994g9dG7lAq2nGdWYaJpRJgFOC0P6PSwmuS3CT7QuvbF40vCnB4/zgurR5tDWun3vp/3YhUT/kSnCV8DPLepS2Sp/yn/Nn3z/+9Iv1s7OURj7/ywtfBLoplxCqvMqM5IRdpa0yYznBe/alzdTrlylls0xEjmUpgrKvv+2HzSkXtlmSo7+8RAl0E9r16yYoTf8zIzv7S1sJ//I5YVvazCsBXfb1A+jyHbMtoVyC6ATspV5/XegSwJfgOu2Fc8qW4DpLI5S6xxJc9+tlAKD0rQTLabME7TlvXgkes//VN/69/Vz2l20JFVOmMCnHyrYwK30ew78fXJc1yi/61nfbPmY2bs65kvgXhkfblqU/5gfX5eGrYV8GFRL2l2vRv6fLORIml+NxY6G1ro92z5V7+olnXuy8KQNtZfApy+ZkKZEySFXOmW0C9tKffn/zPoNOKZPZ5qWM7fL8P2Cum+vGAQ5wgAMc4AAHOMABDnBg2AHB9ZSC6wdf+0PJopsfrP9ixvR3Hj3Y/P/P7W1e/Y9PumOXPzp3xvUDmw40f3Xf3jmvCx9avcF1gpyEMplhvNDNu1BwnbBzoZA79ScNrn9088JLcGRt6xIoZbbyQn0q+0q5PJwx+7J0SfaV4LrfVgLi/iuzre/9p0e79ktwXZavyMzKtLVQcJ21r3NssQA/bDKruMwCLf3M9te/+X17zoRp+Vxmg5bvNH9bQtjycMYcL4F0Ca7zoMu0lf3975j3mfWaGcFZj7z0o9RLW2U27ELB9R33PNj2tR/kHUtw3Z/xnrBwft/iQL+9zChPHxNez+dQPpe1rVMuS1KU/f3tNPmX4DpBbTlHZoPn/CW4Xin8y/ebZLtYcF1m08f9zFZOW/3BloWC6zJIVPzMfy0wvw9Hu+dKcP3k+i/WZU/9LOOTNhOG53P+y4x8Tt/iTgbRyj3aD65T9uq/uaktm8GwMsi00Hrq8/vp8/D/AcIHHw5wgAMc4AAHOMABDnCAA0vbAcH1lILr//3IoSazrfMX6W/510/bJUOue+oPzR8+/e8DTdPMD64ffP2LGdi5EIu9VsuM6/7yESX8nf8DUoLrBFUJmEpoWsLh+eWPFlzf/89PtIFQwsn8Z/n5z/ATNj34yP9pr2N/GYgsp5HQK+f4j52/a8P1LHtRzlmCrtL3+cF1v60sjVHqZeZlyuYBcmXfpMH1v723re1/wvv5y1yUthJkJvgK31/v3td+v9LX8j3DL/vCs8w6zndNgJawOfXS3iTBdZkRmvYKi9TNuuN5MF6WdUkYWPqw7q5/avue85Z9/eA6gXX2h0naCfNSrh80l+87tMZ1CQYTFJYgMzOXcz3St9JGtgm2c56nnn1lzv5+mTDNAzj/pz+ffqnsNPlPElyvFP59zkd7v1hwXe7/XJ8Nv3qzvTaZBV2u10LBdVlDOtsMksw/9yT3XAmuM6s/Xv/qtXe636oMkOReLX0oa/Pn96c8qHF+cF0GUUqdzLKf3y+fl/b/2XJ9XB8OcIADHOAABzjAAQ5wgAPH7oDgeiAwXixIXmh/1rV+/r2D3czqvPmvP8352H6YH1x/uUTTfHbkf5YbyblWS3D96FPPt2HOd7//dwuGMgmMSlBdZgaXwDWBTsKrzG5NKFQCoBL0lG3q95cTePq5X3UBUmm7lP3d/i9CyLLGcvanTJmdnM8Jt/LDk6VISr2EyP2gKvsfevSZtly/rcycLEtRpEwJZjPzurSV82W92xKEZX9mapYfu9JemW1b9ve3ZSmM9Duhb/8BkelnypYHYpbz9vuVfVlHuL+edfZlmZQS8uVz+IdZwuSy5Ef2J0guwWI+3/ezX7bnLLNIs6///fI5r4R16VuC47KvBM/lc4LBBNCbNr/XzVYtx8o2ZQqPMvCRYzlnWWajlE14mLJbtu1uz5nzlcGK0sZC2/J9U2/+8Wnxz6BK//tn1ns/xI8rGRRYCfznM1zocwYb5t+z5TqW+zIs+m71PSwO7N57aM41K+7H+YXOO8k91z9n6VPZlsGc8l8X5JrmN6/ft3yv+S71f3f6y/ws1Ef7jv3/DGGGGQc4wAEOcIADHOAABzjAgaXngOB6SsF1QP71P/1n8/S/HWj+Z351077/j48+bXb/53+1GfVl//1wxn6Z+eH1Z0c+nzP7ugTX+/5wZM7+hQL0pbbvWG76Ehj1g+V+/c1vf0Yz3d0AACAASURBVNAFmGVZhn5gnAAos5cTXJcgsYRF/W0JRNN2ZtuWICplEhglzMza1uXcCb9uu/2+7twpl5ApweHOj/a35fpBeY5l2Y7+Oe978PG23EJtpd8J2jIjOecsy6WU/mSmaD+gy0zglMt3LWXSbunv/G2C235f8j58yvrZpXzWcS4haymfJRHKjOOyrm859s+PPtOuq10+53tkHem0lxnpZQmLcjznzPrLZVmX9L8sl1DK9IPw8rDBXKO/veWO7jtkfe6cK3US5uV6J4AvbczflqUZyvdMeF3qp2y55nmAXilTrncegFj2DW3LkiELLd8wLf554Gffg4Sd5eGj5TuX9dWXO/8h1uVY/suI8r3nb+NIKZdBmfLbknK5P8us/HhQ7uFSvgTEWVqm7CvbSe+5ElznGsX7nCfLAfWXxclgS/9+S7niea7z/OC8zOxPuThf+mS79P6PlWvimnCAAxzgAAc4wAEOcIADHJiOA4LrKQbXgXnBA/ubv/zHHc0PH9/T3Pbsx803797ZnP/Tj5tv/uR3zbl3bu+C57+4a0f7Ofvmv/7y7l1dubSZ+inzzXv3zNm/1ELqhfpzLDdqHjaWEPlY6kyrbMLRLF8xFAjt++RPTda5zgMkx563tJUwsratPGwugdzDv/yXwTayzEcerpiZpe9u3bXg8gf9PqTdzPYss4/7x471fbimrRJoL1Q/QfYk50sbmXW8UBs1+8J+6/aPuiVD+m089Nj6lu1Qv/vlS+Ce2fH9/XmP/8L/WA3xn89wGp9z35bZzkPtldD5o/88/KVrOek9V9ooy+4MnS+/O5P8phTHhv7riqHzOLawh7jgwgEOcIADHOAABzjAAQ5wYOk6kKxx3759zaefftocOXJk/tzfo35ec9QSExTIidOBdCQdWkiYhULRpbzvf/3zJ83/evDgsguap810oWtp39L9QXBt6q7N36/7aTv7N4FleaAmlnUsvypumQFdZsdnxnNNPxKMlyVAMrs7ywHlv5CoHQT67d5PmsweL/1Km/mvOz7YvqeqfzXfSZ3l5bHr5XpxgAMc4AAHOMABDnCAAyvJgeSUguspz7qedvi7nNtbSTeL7+LHfzEHMqu6LBeTpRwWK2f/sEOZTZylPI72+sefPjx1xmXZlYTW/YenHss16y9n1F++ZP462pO2mSC83055X9amn7Qd5Ya9wwcfDnCAAxzgAAc4wAEOcIADS9MBwbXQeqazwt34S/PGd11mc12yXvLH//1QT4yPnXHWU8/600d7/ewXT089uM71ygBEHvY55tplHeysj11eY31I6L3tN3u7V2Zhj+mfusfuJWaYcYADHOAABzjAAQ5wgAMc+GocEFwLrgXXh7+am8+PHu4c4AAHOMABDnCAAxzgAAc4wAEOcIADHFjYAcG14FpwLbg2g5MDHOAABzjAAQ5wgAMc4AAHOMABDnCAA0vKgWUTXF/+6B9nGrAGhNd0GeSaGTFaeMQIF1w4wAEOcIADHOAABzjAAQ5wgAMc4AAHOLC4A8smuL7v//6XYHmZheu5Zm6+xW8+bLDhAAc4wAEOcIADHOAABzjAAQ5wgAMc4MDCDiyb4DoXMEGomdfTnRU9i1nmuUZC64VvOD9EuHCAAxzgAAc4wAEOcIADHOAABzjAAQ5w4OgOLKngev/+/e2sahfu6BcOI4w4wAEOcIADHOAABzjAAQ5wgAMc4AAHOMCBlepAguvkxZ9++mlz5MiR5lj/1hxrhYXK58TpgODajbZSbzTfi9sc4AAHOMABDnCAAxzgAAc4wAEOcIADHJjcgSUVXB84cKC57BeHm98dmvwLuNhYcYADHOAABzjAAQ5wgAMc4AAHOMABDnCAAxxYOQ4kH05OnLz4K51x/fnnnzefffZZc+jQoWbdS39s1v/7Zx7qd3jliOZHw7XkAAc4wAEOcIADHOAABzjAAQ5wgAMc4AAHJnUg+XBy4uTFyY2THx/r31SWCsmJs1zI4cOHm3/fdahN09M5M6/JPKnMynGFAxzgAAc4wAEOcIADHOAABzjAAQ5wgAPL24HkwcmFM9s6OXHy4uTGX3lwnfT8k08+aTuVRD0dzFomXhhwgAMc4AAHOMABDnCAAxzgAAc4wAEOcIADHFjZDiQPTi6c0Do5cfLirzS4zjTvMus6nUmSnmngWcMkD2zMa9++fV4YcIADHOAABzjAAQ5wgAMc4AAHOMABDnCAAxxYYQ6UDDh5cHLh5MNjQuvkzVNZKqSsT1LC66To6VgW3vbCgAMc4AAHOMABDnCAAxzgAAc4wAEOcIADHODA6nCgBNa1M61L1jzV4Lo0mgC7H2Knk14YcIADHOAABzjAAQ5wgAMc4AAHOMABDnCAAxxY2Q6UbLhkxbXbmQTXtZ1RDwEEEEAAAQQQQAABBBBAAAEEEEAAAQQQQAABwTUHEEAAAQQQQAABBBBAAAEEEEAAAQQQQAABBJYUAcH1krocOoMAAggggAACCCCAAAIIIIAAAggggAACCCAguOYAAggggAACCCCAAAIIIIAAAggggAACCCCAwJIiILheUpdDZxBAAAEEEEAAAQQQQAABBBBAAAEEEEAAAQQE1xxAAAEEEEAAAQQQQAABBBBAAAEEEEAAAQQQWFIEBNdL6nLoDAIIIIAAAggggAACCCCAAAIIIIAAAggggIDgmgMIIIAAAggggAACCCCAAAIIIIAAAggggAACS4qA4HpJXQ6dQQABBBBAAAEEEEAAAQQQQAABBBBAAAEEEBBccwABBBBAAAEEEEAAAQQQQAABBBBAAAEEEEBgSREQXC+py6EzCCCAAAIIIIAAAggggAACCCCAAAIIIIAAAoJrDiCAAAIIIIAAAggggAACCCCAAAIIIIAAAggsKQKC6yV1OXQGAQQQQAABBBBAAAEEEEAAAQQQQAABBBBAQHDNAQQQQAABBBBAAAEEEEAAAQQQQAABBBBAAIElRUBwvaQuh84ggAACCCCAAAIIIIAAAggggAACCCCAAAIICK45gAACCCCAAAIIIIAAAggggAACCCCAAAIIILCkCAiul9Tl0BkEEEAAAQQQQAABBBBAAAEEEEAAAQQQQAABwTUHEEAAAQQQQAABBBBAAAEEEEAAAQQQQAABBJYUAcH1krocOoMAAggggAACCCCAAAIIIIAAAggggAACCCAguOYAAggggAACCCCAAAIIIIAAAggggAACCCCAwJIiILheUpdDZxBAAAEEEEAAAQQQQAABBBBAAAEEEEAAAQQE1xxAAAEEEEAAAQQQQAABBBBAAAEEEEAAAQQQWFIEBNdL6nLoDAIIIIAAAggggAACCCCAAAIIIIAAAggggIDgmgMIIIAAAggggAACCCCAAAIIIIAAAggggAACS4qA4HpJXQ6dQQABBBBAAAEEEEAAAQQQQAABBBBAAAEEEBBccwABBBBAAAEEEEAAAQQQQAABBBBAAAEEEEBgSREQXC+py6EzCCCAAAIIIIAAAggggAACCCCAAAIIIIAAAoJrDiCAAAIIIIAAAggggAACCCCAAAIIIIAAAggsKQKC6yV1OXQGAQQQQAABBBBAAAEEEEAAAQQQQAABBBBAQHDNAQQQQAABBBBAAAEEEEAAAQQQQAABBBBAAIElRUBwvaQuh84ggAACCCCAAAIIIIAAAggggAACCCCAAAIICK45gAACCCCAAAIIIIAAAggggAACCCCAAAIIILCkCAiul9Tl0BkEEEAAAQQQQAABBBBAAAEEEEAAAQQQQAABwTUHEEAAAQQQQAABBBBAAAEEEEAAAQQQQAABBJYUAcH1krocOoMAAggggAACCCCAAAIIIIAAAggggAACCCAguOYAAggggAACCCCAAAIIIIAAAggggAACCCCAwJIiILheUpdDZxBAAAEEEEAAAQQQQAABBBBAAAEEEEAAAQQE1xxAAAEEEEAAAQQQQAABBBBAAAEEEEAAAQQQWFIEBNdL6nLoDAIIIIAAAggggAACCCCAAAIIIIAAAggggIDgmgMIIIAAAggggAACCCCAAAIIIIAAAggggAACS4qA4HpJXQ6dQQABBBBAAAEEEEAAAQQQQAABBBBAAAEEEBBccwABBBBAAAEEEEAAAQQQQAABBBBAAAEEEEBgSRGYSXD9ySefNFu2bG02vfp686uNr3lhwAEOcIADHOAABzjAAQ5wgAMc4AAHOMABDnBghTuQPDi5cPLhsX9TD67TqXRwz57fNUeOHBnbP/URQAABBBBAAAEEEEAAAQQQQAABBBBAAAEElgGB5MHJhZMPjw2vpx5cJ1FP5/whgAACCCCAAAIIIIAAAggggAACCCCAAAIIrD4CyYeTE4/5m3pwnTTdTOsxl0RdBBBAAAEEEEAAAQQQQAABBBBAAAEEEEBg+RJIPpyceMzf1IPrrGntDwEEEEAAAQQQQAABBBBAAAEEEEAAAQQQQGD1EhibEwuuV687vjkCCCCAAAIIIIAAAggggAACCCCAAAIIIDATAoLrmWDVKAIIIIAAAggggAACCCCAAAIIIIAAAggggEAtAcF1LTn1EEAAAQQQQAABBBBAAAEEEEAAAQQQQAABBGZCQHA9E6waRQABBBBAAAEEEEAAAQQQQAABBBBAAAEEEKglILiuJaceAggggAACCCCAAAIIIIAAAggggAACCCCAwEwICK5nglWjCCCAAAIIIIAAAggggAACCCCAAAIIIIAAArUEBNe15NRDAAEEEEAAAQQQQAABBBBAAAEEEEAAAQQQmAkBwfVMsGoUAQQQQAABBBBAAAEEEEAAAQQQQAABBBBAoJbAigiu//SnPzW7frOrefPNN5v333+/OXToUC0P9RBAAAEEEEAAAQQQQAABBBBAAAEEEEAAAQS+YgLLPrjetGlT8xd/8RfNmWeeOed12223NX/84x8nxvvZZ5919V9++eWJ6ymIAAIIIIAAAggggAACCCCAAAIIIIAAAgggMF0Cyzq43rZtWxc2zw+u8/nmm2+emNann37atfXiiy9OXE9BBBBAAAEEEEAAAQQQQAABBBBAAAEEEEAAgekSWNbB9d133z0nbD58+HCTMPucc87p9h88eHAiYoLriTAphAACCCCAAAIIIIAAAggggAACCCCAAAIIzJzAsg6uv/vd77YB9V/91V/NAfXCCy+0y4dkCZGseV3+tmzZ0nzve99rj11xxRXNQw891OzcubM93A+un3zyyeZv//Zv23IXX3xx89hjjzWff/55aabZv39/8/d///dNzptz/OAHP2jeeeed7njOc91117Xnyv4f/ehHbdnU+f3vf99kKZLvfOc7zV/+5V+27XzyySdd3azPffvttzdr165t205/f/GLXzT9Mh9+uK35m7/5mzagz/kzs9ws8Q6hNwgggAACCCCAAAIIIIAAAggggAACCCAwAYHkmn/2Z3/W7NixY4LSc4ukTuqmjVn8Levg+o477uhmVt90003Na6+9Nifg7QN7/fXXu7L9ZUX+/M//vNm9e3fTD677x8v7X/7yl21zmcHdn9Fdjmeb9bbz96tf/WrBc6VMwu5+nby/4YYbuq4msJ5/PJ8TVOdvz549Tfq8UJkE7v4QQAABBBBAAAEEEEAAAQQQQAABBBBAAIFJCGSC7te//vXma1/7WvP2229PUqUtk7Kpk7ppYxZ/yzq4/vDDDxcMcBP+PvLII12IndnSJTBO6Lx58xtNgugS/t5///1zgusEw88991yzYcOGLiS+6qqrWv533XVXVy8zu3ORLrzwwnbfBRdc0JbpB9fXXHNNk3I5Vs53+eWXt23396WPmf1dyqR/H330UZNAvuw7cuRI8/DDD3efM3t77969TWaPp8y3vvWtWTiiTQQQQAABBBBAAAEEEEAAAQQQQAABBBBYoQSONbw+HqF1UC/r4DpfIEuBZDp6CXf72yyjEfAJd8v+/qzkp59+uklonYC6P+N63bp1nYbXX399WzdheP7KjOgsIZIZ3nndeuutXfsJn/vB9a7f7Grr5VylDwmk8/f44493+7I+d5YJyfdJsP7mm2826WsJ3FM3Zdavf6ark8D8nnvuaTZu3NjWzXF/CCCAAAIIIIAAAggggAACCCCAAAIIIIDAsRCYNLw+XqF1+r7sg+tyAT777LMma0s/+OCDc8LeBx54oHn33Xe7sDeB8EJ//eD6X//1X7siWZc6oXGC6vwttkxHCaVzrn5wXabKZw3qUqasV/3MM/8TQid0zqzrO++8sytXypdtyqRu1sYu+8o2s7f762x3X8AbBBBAAAEEEEAAAQQQQAABBBBAAAEEEEDgKASOFl4fz9A6XV3WwXWW0chDDhNO9/8S7paAOQ9GzMMMS8CbByOWv61btzb/9m//1mzbtm3OjOv+gw7nB9clNM7M67Q1/3XgwIHq4DrLk5R+/sM//EM76/rRRx/t9pUZ1Qnp08e/+7u/m7PedmZg+0MAAQQQQAABBBBAAAEEEEAAAQQQQAABBGoILBZeH+/QOn1f1sF1HlhYgt4ssVH+ArLs/+lPf9rOUi6fy4MQcxHKvoceemji4Pq6667r6iWkzl9maGe5krSdcLl2xvXtt9/etp3QPbOv83fllVd250vbOU/W6U4/8pdy/XW3ywzv9qD/QQABBBBAAAEEEEAAAQQQQAABBBBAAAEEjoHA/PD6qwit091lHVxnaYwSPmebwLfMtC6f9+zZ016WzGAuZbP2dXmf7ccffzxxcJ3lSErdnKv/gMXMAG+h/upXXZkSJB9tqZA//vGPzaZNm7p6CagvvfTS7nPOefDgwXYplHL+fI+swZ0gO/u++93vtuf3PwgggAACCCCAAAIIIIAAAggggAACCCCAQC2Bfnj9ta99rfn617/ePkuwtr2aess6uM4Xfv3115sskVHC3LL91re+1WQpkPKX5UOybEg5nm2C54wY5K+/xvXQUiEpm+VBSlhc2ktoXdauPtqM67LkR/9Biwmujxw50vRnkad/eXhkOcezzz7b/OlPf2pnWM8/f9bgLg+CLN/ZFgEEEEAAAQQQQAABBBBAAAEEEEAAAQQQqCFQwuuvIrROf5d9cJ0vkeUy9u7d2z6cMTOif//73y96LQI8ZXbu3NkGxYsWPMqBhMxpI20dOnToKKWP7XD6uH379m65kIVq5/w5d2adZ1Z5WVpkobL2IYAAAggggAACCCCAAAIIIIAAAggggAACy4nAigiulxNwfUUAAQQQQAABBBBAAAEEEEAAAQQQQAABBBAYJiC4HubjKAIIIIAAAggggAACCCCAAAIIIIAAAggggMBxJiC4Ps7AnQ4BBBBAAAEEEEAAAQQQQAABBBBAAAEEEEBgmIDgepiPowgggAACCCCAAAIIIIAAAggggAACCCCAAALHmYDg+jgDdzoEEEAAAQQQQAABBBBAAAEEEEAAAQQQQACBYQKC62E+jiKAAAIIIIAAAggggAACCCCAAAIIIIAAAggcZwKC6+MM3OkQQAABBBBAAAEEEEAAAQQQQAABBBBAAAEEhgkIrof5OIoAAggggAACCCCAAAIIIIAAAggggAACCCBwnAkIro8zcKdDAAEEEEAAAQQQQAABBBBAAAEEEEAAAQQQGCYguB7m4ygCCCCAAAIIIIAAAggggAACCCCAAAIIIIDAcSYguD7OwJ0OAQQQQAABBBBAAAEEEEAAAQQQQAABBBBAYJiA4HqYj6MIIIAAAggggAACCCCAAAIIIIAAAggggAACx5mA4Po4A3c6BBBAAAEEEEAAAQQQQAABBBBAAAEEEEAAgWECguthPo4igAACCCCAAAIIIIAAAggggAACCCCAAAIIHGcCSzK4Tqe8MOAABzjAAQ5wgAMc4AAHOMABDnCAAxzgAAc4sHodGJOVrxlTeaG6EdEfAggggAACCCCAAAIIIIAAAggggAACCCCAwOolMDYnFlyvXnd8cwQQQAABBBBAAAEEEEAAAQQQQAABBBBAYCYEBNczwapRBBBAAAEEEEAAAQQQQAABBBBAAAEEEEAAgVoCgutacuohgAACCCCAAAIIIIAAAggggAACCCCAAAIIzISA4HomWDWKAAIIIIAAAggggAACCCCAAAIIIIAAAgggUEtAcF1LTj0EEEAAAQQQQAABBBBAAAEEEEAAAQQQQACBmRAQXM8Eq0YRQAABBBBAAAEEEEAAAQQQQAABBBBAAAEEagkIrmvJqYcAAggggAACCCCAAAIIIIAAAggggAACCCAwEwKC65lg1SgCCCCAAAIIIIAAAggggAACCCCAAAIIIIBALQHBdS059RBAAAEEEEAAAQQQQAABBBBAAAEEEEAAAQRmQkBwPROsGkUAAQQQQAABBBBAAAEEEEAAAQQQQAABBBCoJSC4riWnHgIIIIAAAggggAACCCCAAAIIIIAAAggggMBMCAiuZ4JVowgggAACCCCAAAIIIIAAAggggAACCCCAAAK1BATXteTUQwABBBBAAAEEEEAAAQQQQAABBBBAAAEEEJgJAcH1TLBqFAEEEEAAAQQQQAABBBBAAAEEEEAAAQQQQKCWgOC6lpx6CCCAAAIIIIAAAggggAACCCCAAAIIIIAAAjMhILieCVaNIoAAAggggAACCCCAAAIIIIAAAggggAACCNQSEFzXklMPAQQQQAABBBBAAAEEEEAAAQQQQAABBBBAYCYEBNczwapRBBBAAAEEEEAAAQQQQAABBBBAAAEEEEAAgVoCgutacuohgAACCCCAAAIIIIAAAggggAACCCCAAAIIzITAqgmujxw50hw+fLg5dOiQFwYc4AAHOMABDnCAAxzgAAc4wAEOcIADHOAAB0Y6kLw1uess/lZFcB14AmuBPQc4wAEOcIADHOAABzjAAQ5wgAMc4AAHOMCB6Tswi/B6VQTXZlpPX0Y3OKYc4AAHOMABDnCAAxzgAAc4wAEOcIADHOBAHEj+Ou2/VRFcu4HcQBzgAAc4wAEOcIADHOAABzjAAQ5wgAMc4AAHZueA4LqCACFnJyS22HKAAxzgAAc4wAEOcIADHOAABzjAAQ5wgAMVse1gFTOuRy5A7qZ0U3KAAxzgAAc4wAEOcIADHOAABzjAAQ5wgAOr3YHBFLrioOBacO3BlRzgAAc4wAEOcIADHOAABzjAAQ5wgAMc4AAHRjlQkU0PVhFcE3KUkKt9JMn3N5rKAQ5wgAMc4AAHOMABDnCAAxzgAAc4wIFDgyF0zUHBteBacM0BDnCAAxzgAAc4wAEOcIADHOAABzjAAQ5wYJQDNeH0UB3BNSFHCWk0yYgiBzjAAQ5wgAMc4AAHOMABDnCAAxzgAAc4MBRC1xwTXAuuBdcc4AAHOMABDnCAAxzgAAc4wAEOcIADHOAAB0Y5UBNOD9URXBNylJBG04ymcYADHOAABzjAAQ5wgAMc4AAHOMABDnCAA0MhdM0xwbXgWnDNAQ5wgAMc4AAHOMABDnCAAxzgAAc4wAEOcGCUAzXh9FAdwTUhRwlpNM1oGgc4wAEOcIADHOAABzjAAQ5wgAMc4AAHODAUQtccE1wLrgXXHOAABzjAAQ5wgAMc4AAHOMABDnCAAxzgAAdGOVATTg/VEVwTcpSQRtOMpnGAAxzgAAc4wAEOcIADHOAABzjAAQ5wgANDIXTNMcG14FpwzQEOcIADHOAABzjAAQ5wgAMc4AAHOMABDnBglAM14fRQHcE1IUcJaTTNaBoHOMABDnCAAxzgAAc4wAEOcIADHOAABzgwFELXHBNcC64F1xzgAAc4wAEOcIADHOAABzjAAQ5wgAMc4AAHRjlQE04P1RFcE3KUkEbTjKZxgAMc4AAHOMABDnCAAxzgAAc4wAEOcIADQyF0zTHBteBacM0BDnCAAxzgAAc4wAEOcIADHOAABzjAAQ5wYJQDNeH0UB3BNSFHCWk0zWgaBzjAAQ5wgAMc4AAHOMABDnCAAxzgAAc4MBRC1xwTXFcE1xs2bGhOOeWUwdezzz4rEK5g60fOjxwHOMABDnCAAxzgAAc4wAEOcIADHOAAB5afAzXh9FAdwXVFuPrCCy8MhtYJtQXXy+/m8oPomnGAAxzgAAc4wAEOcIADHOAABzjAAQ5woM6BoRC65pjgemRwfdtttzWPPvrol17btm2byozrgwcPTqUdN1zdDYcbbhzgAAc4wAEOcIADHOAABzjAAQ5wgAMcOLoDNeH0UB3B9cjg+vXXXx8Mlm+88cbmkksuaZ566qnm7rvvbs4555zmpZdeah5++OF2/7p165r169c3F154YXPnnXe2be3bt69JIH7WWWe1M7vPOOOM5pprrml27tzZnWuo/jRvpE2bNjUnn3xys3v37u7c02xfW0e/6THCiAMc4AAHOMABDnCAAxzgAAc4wAEOcGCpOzAUQtccE1yPDK5//vOfNwmv+6+33367C3nPPvvsNnw+9dRTu+VFstTIzTff/KX9t956a5MZ1ueff35Xtr+W9mmnndaF14vVn7bAa9eubdasWdOceOKJwusKV6Z9PbTnHykOcIADHOAABzjAAQ5wgAMc4AAHOMCBpehATTg9VEdwXRFGHm2N64TVRZ4SXCeAzvsEzlu2bOmC6+xPIP3DH/6wefHFF5snn3yyC60zy/rVV19tMiu7BNgpl7ZLcD2/fjnvNLeZJS689oM4Tae0xScOcIADHOAABzjAAQ5wgAMc4AAHOLCyHBgKoWuOCa5nEFyfd955Xwqus9zH3r17u/394DlBdrlRE1aXkDpLhpT9aTP7Tz/99HbfYvVL+Wlvhdcr64dk2n5ojx8c4AAHOMABDnCAAxzgAAc4wAEOcGB1O1ATTg/VEVyPDK6PtsZ1mXH9ne98pwuhcxOX4DlLiPRv6nPPPbcNqLNcSH//j3/84y7Q3r9//6L1+3Wm/V54vbp/fKbtk/b4xAEOcIADHOAABzjAAQ5wgAMc4AAHVo4DQyF0zTHB9XEKrvOQYosGiQAAIABJREFUxv6NWILrM888c87+yy67rA2os3xI1rsudcr+EnQvVr+Un8W2BNcnnHCC9a4rvJnFNdHmyvlxdy1dSw5wgAMc4AAHOMABDnCAAxzgAAeWswM14fRQHcF1RQDZX+P6wQcfbDZu3Pil1/vvv9+GzmXG9aTB9Z133tnNrH788cfb8PqNN95oysMdL7roorbd4x1cC639cC7nH0595y8HOMABDnCAAxzgAAc4wAEOcIADHJitA0MhdM0xwfXI4LqsRz1/Wx6ieKzB9Z49e7qQOm2WwLq0/9prrx334FpoPdub2o8mvhzgAAc4wAEOcIADHOAABzjAAQ5wgAPL3YGacHqojuC6IrjesGFDNyu6BMrzt7XBdQR99913m7POOmvOORJgP/vss93SIcdrxvXatWubNWvWNJYH8eO53H889Z/DHOAABzjAAQ5wgAMc4AAHOMABDnBgdg4MhdA1xwTXFcH18RL817/+dbNp06Ymy44cOHCgC62P1/lznpz/pJNOsqb1EvbkePrgXLP7cccWWw5wgAMc4AAHOMABDnCAAxzgAAeWswM14fRQHcG1QPIrCcSX802o7/4R4QAHOMABDnCAAxzgAAc4wAEOcIADHODAXAeGQuiaY4JrwbXgmgMc4AAHOMABDnCAAxzgAAc4wAEOcIADHODAKAdqwumhOoJrQo4S0sjS3JElPPDgAAc4wAEOcIADHOAABzjAAQ5wgAMcWI0ODIXQNccE14JrwTUHOMABDnCAAxzgAAc4wAEOcIADHOAABzjAgVEO1ITTQ3UE14QcJeRqHD3ynY2acoADHOAABzjAAQ5wgAMc4AAHOMABDnBgrgNDIXTNMcG14FpwzQEOcIADHOAABzjAAQ5wgAMc4AAHOMABDnBglAM14fRQHcE1IUcJaWRp7sgSHnhwgAMc4AAHOMABDnCAAxzgAAc4wAEOrEYHhkLommOCa8G14JoDHOAABzjAAQ5wgAMc4AAHOMABDnCAAxzgwCgHasLpoTqCa0KOEnI1jh75zkZNOcABDnCAAxzgAAc4wAEOcIADHOAABzgw14GhELrmmOBacC245gAHOMABDnCAAxzgAAc4wAEOcIADHOAABzgwyoGacHqojuCakKOENLI0d2QJDzw4wAEOcIADHOAABzjAAQ5wgAMc4AAHVqMDQyF0zTHBteBacM0BDnCAAxzgAAc4wAEOcIADHOAABzjAAQ5wYJQDNeH0UB3BNSFHCbkaR498Z6OmHOAABzjAAQ5wgAMc4AAHOMABDnCAAxyY68BQCF1zTHAtuBZcc4ADHOAABzjAAQ5wgAMc4AAHOMABDnCAAxwY5UBNOD1UR3BNyFFCGlmaO7KEBx4c4AAHOMABDnCAAxzgAAc4wAEOcIADq9GBoRC65pjgWnAtuOYABzjAAQ5wgAMc4AAHOMABDnCAAxzgAAc4MMqBmnB6qI7gmpCjhFyNo0e+s1FTDnCAAxzgAAc4wAEOcIADHOAABzjAAQ7MdWAohK45JrgWXAuuOcABDnCAAxzgAAc4wAEOcIADHOAABzjAAQ6McqAmnB6qI7gm5CghjSzNHVnCAw8OcIADHOAABzjAAQ5wgAMc4AAHOMCB1ejAUAhdc0xwLbgWXHOAAxzgAAc4wAEOcIADHOAABzjAAQ5wgAMcGOVATTg9VGdVBNeHDx8eBX01jpD4zkYGOcABDnCAAxzgAAc4wAEOcIADHOAABzjAgUkcSP467b9VEVwfOXJEcG3EiAMc4AAHOMABDnCAAxzgAAc4wAEOcIADHODADBxI/jrtv1URXAda4Jl5bYRokhEiZXjCAQ5wgAMc4AAHOMABDnCAAxzgAAc4wIGjO5C8dRahdfLcVRNcTzvx1x4CCCCAAAIIIIAAAggggAACCCCAAAIIIIDAbAgIrmfDVasIIIAAAggggAACCCCAAAIIIIAAAggggAAClQQE15XgVEMAAQQQQAABBBBAAAEEEEAAAQQQQAABBBCYDQHB9Wy4ahUBBBBAAAEEEEAAAQQQQAABBBBAAAEEEECgkoDguhKcaggggAACCCCAAAIIIIAAAggggAACCCCAAAKzISC4ng1XrSKAAAIIIIAAAggggAACCCCAAAIIIIAAAghUEhBcV4JTDQEEEEAAAQQQQAABBBBAAAEEEEAAAQQQQGA2BATXs+GqVQQQQAABBBBAAAEEEEAAAQQQQAABBBBAAIFKAoLrSnCqIYAAAggggAACCCCAAAIIIIAAAggggAACCMyGgOB6Nly1igACCCCAAAIIIIAAAggggAACCCCAAAIIIFBJQHBdCU41BBBAAAEEEEAAAQQQQAABBBBAAAEEEEAAgdkQEFzPhqtWEUAAAQQQQAABBBBAAAEEEEAAAQQQQAABBCoJCK4rwamGAAIIIIAAAggggAACCCCAAAIIIIAAAgggMBsCguvZcNUqAggggAACCCCAAAIIIIAAAggggAACCCCAQCUBwXUlONUQQAABBBBAAAEEEEAAAQQQQAABBBBAAAEEZkNAcD0brlpFAAEEEEAAAQQQQAABBBBAAAEEEEAAAQQQqCQguK4EpxoCCCCAAAIIIIAAAggggAACCCCAAAIIIIDAbAgIrmfDVasIIIAAAggggAACCCCAAAIIIIAAAggggAAClQQE15XgVEMAAQQQQAABBBBAAAEEEEAAAQQQQAABBBCYDQHB9Wy4ahUBBBBAAAEEEEAAAQQQQAABBBBAAAEEEECgksCqCa6PHDnSHD58uDl06JAXBhzgAAc4wAEOcIADHOAABzjAAQ5wgAMc4AAHRjqQvDW56yz+VkVwHXgCa4E9BzjAAQ5wgAMc4AAHOMABDnCAAxzgAAc4wIHpOzCL8HpVBNdmWk9fRjc4phzgAAc4wAEOcIADHOAABzjAAQ5wgAMc4EAcSP467b9VEVy7gdxAHOAABzjAAQ5wgAMc4AAHOMABDnCAAxzgAAdm54DguoIAIWcnJLbYcoADHOAABzjAAQ5wgAMc4AAHOMABDnCAAxWx7WAVM65HLkDupnRTcoADHOAABzjAAQ5wgAMc4AAHOMABDnCAA6vdgcEUuuKg4Fpw7cGVHOAABzjAAQ5wgAMc4AAHOMABDnCAAxzgAAdGOVCRTQ9WEVwTcpSQq30kyfc3msoBDnCAAxzgAAc4wAEOcIADHOAABzjAgUODIXTNQcG14FpwzQEOcIADHOAABzjAAQ5wgAMc4AAHOMABDnBglAM14fRQHcE1IUcJaTTJiCIHOMABDnCAAxzgAAc4wAEOcIADHOAABzgwFELXHBNcC64F1xzgAAc4wAEOcIADHOAABzjAAQ5wgAMc4AAHRjlQE04P1RFcE3KUkEbTjKZxgAMc4AAHOMABDnCAAxzgAAc4wAEOcIADQyF0zTHBteBacM0BDnCAAxzgAAc4wAEOcIADHOAABzjAAQ5wYJQDNeH0UB3BNSFHCWk0zWgaBzjAAQ5wgAMc4AAHOMABDnCAAxzgAAc4MBRC1xwTXAuuBdcc4AAHOMABDnCAAxzgAAc4wAEOcIADHOAAB0Y5UBNOD9URXBNylJBG04ymcYADHOAABzjAAQ5wgAMc4AAHOMABDnCAA0MhdM0xwbXgWnDNAQ5wgAMc4AAHOMABDnCAAxzgAAc4wAEOcGCUAzXh9FAdwTUhRwlpNM1oGgc4wAEOcIADHOAABzjAAQ5wgAMc4AAHODAUQtccE1wLrgXXHOAABzjAAQ5wgAMc4AAHOMABDnCAAxzgAAdGOVATTg/VEVwTcpSQRtOMpnGAAxzgAAc4wAEOcIADHOAABzjAAQ5wgANDIXTNMcG14FpwzQEOcIADHOAABzjAAQ5wgAMc4AAHOMABDnBglAM14fRQHcH1SCH379/ffPDBB82LL77YvPrqq82uXbtGXWCjU0anOMABDnCAAxzgAAc4wAEOcIADHOAABzjAgeXmwFAIXXNMcD0iuH766aeb0047rTnllFPmvC666KI2zK6V64UXXuja27Zt26gg/OOPP+7auvPOO9u29uzZ02zYsKF97d27d1T7td9RPT++HOAABzjAAQ5wgAMc4AAHOMABDnCAAxxYOQ7UhNNDdQTXlcH1E0880QXC84PrfE6gnYC45uZ7/vnnu7Y//PDDqjbKeT/66KOurTvuuKNt67XXXuv2bd26dVT75Ty2K+dHxrV0LTnAAQ5wgAMc4AAHOMABDnCAAxzgAAeO1YGhELrmmOC6Irj+7W9/25x66qld+PvAAw80u3fvbrZs2dJccskl3f6bbrqpKhQWXPthONYfBuU5wwEOcIADHOAABzjAAQ5wgAMc4AAHOPBVOlATTg/VEVxXBNePPPJIF07ffffdc8LprHn9jW98ozuepTiyXEcC7bw2bdrUJNA+44wzmrJMR5YcueCCC5rTTz+9ufLKK5sHH3ywq19mXKfdLPVxzjnntLO5L7zwwubhhx/uzv3666+37V922WXNW2+91Vx99dXt5/kzrl9++eXm4osv7tq//PLLm/Xr17ftZH3u73//+23/05crrrii2bhxY3eOzNRO+6mT/VdddVVbNnV27NjRPPPMM036le+WfTn3LG6WMDz55JPbwYJZtK9NP/Ic4AAHOMABDnCAAxzgAAc4wAEOcIADHDg2B4ZC6JpjguuK4PrGG2/sgt+E0vMlfuihh7rj77zzTpMZ2mU5kf5M7dTth+ClTH9bgut+2Nw/fuutt7bnf/bZZ7tzlHW3zz333DY8LuWzVEi/b2X/unXr2j6WemV/2abtfMf165/pzlGOlW0/rC/7EsLPZzONz2vXrm3WrFnTnHjiicLrCn+ncQ20cWw/3HjhxQEOcIADHOAABzjAAQ5wgAMc4MBKd6AmnB6qI7iuCP7OP//8NsBNWLuQcJmNXMLbhL394Dr7E0IncE5wXcLiBNr33HNPc//993d1UzbBdT+UTr3Nm99oZzuXc2zfvn1Omey/9tpr25nb82dc55yZGV3qpq8pc/PNN3f7Hn/88eaVV15pzjrrrHbfmWee+aXgOt8h5XKstPXNb36zydrf/X0HDx5ckNFC3I5lX2aeC6/94B+LM8ryhQMc4AAHOMABDnCAAxzgAAc4wAEOzM6BoRC65pjguiK4zrIeCWsT7C4ke5btKGHuY489Nie4vuaaa7o6mY1dyiWwLm3dfvvt3f4E17fcckv3OSF21sDuLyeSWdT9cLu/hMj84DrnWOjhjAmC05ezzz67bT/nuP7667vzvvfee3NmXGc977TVn8FdZof3w/eFZqSX7zl2K7ye3Q/N2GujvmvDAQ5wgAMc4AAHOMABDnCAAxzgAAdWlwM14fRQHcF1RXDdXyrkwIEDXeBcbsYnn3yyC3wTYvdnXCfoLeX6D2HcvHlzt/+5557r6icMzlrTJeBeaJu1r/vBdULmco5Jg+v+EiYLnSPrSveXCtm5c2d7jv53zbly3p///Oddf2cZXOdcwuvV9QNYvLZ13TnAAQ5wgAMc4AAHOMABDnCAAxzgwNJyYCiErjkmuK4Irn/2s591wexTTz3VhcTlZskDCkv4m+C2H1znQYylXJbjKOX6+++9995uf4Lr/sznnC9l+6933313TnBdQuWcZ9LgOg9UTF8SBPfbLu93/WbXkg6uTzjhBOtdV7hcXLRdWj/0rofrwQEOcIADHOAABzjAAQ5wgAMc4MByc6AmnB6qI7iuCPsS4pYZytlm5vT+/fubPXv2zFkruiwLslhwvWPHji6gzprRaXfr1q3tch0l0E5wfd9993XlNmzY0Abfb731VjsTO7Ox33jjjergOqF3boLLLrusO8fu3bvbfVnDOu3nIYsJ4JfajOsy21po7Yd8uf2Q6y9nOcABDnCAAxzgAAc4wAEOcIADHFhpDgyF0DXHBNcVwXWk6i+RUULm/jYPXUxgnbKLBdc5dt1113WBcb9+eZ/gOvXLQxyzP+tQl+OZKZ3QvL9UyNFmXCes7td/5JFH5qx7nTC+/4DFEsDXBNd79+5tGUz7RhRa+3GftlPa4xQHOMABDnCAAxzgAAc4wAEOcIADHKh3oCacHqojuK4MriNxwuLTTz+9C4FLGHzppZc2CZyL6JmJXY4988wz3f4cz1Ie/dnOKbdu3bqu/LZt29rymWF97rnndvtTLuFteUhiP7jetWtXd47MlC7nzlrYpU/9c+Z82Z9lQfoBeeoltE7/c3z9+vVdW+Uc/QC/rGedh0OWc84iuF67dm2zZs2axkzr+h+S4oEthhzgAAc4wAEOcIADHOAABzjAAQ5wgAPTcGAohK45JrgeEVzngh48eLANqbNedR6wWGZZH+vF3r59e7vkx759+7pweX4b5Vx5UGLKzz9+rJ/T17TTD5czezsPd8xDJUtgfaztzrp8vv9JJ51kTeuR7s76OmnfP3oc4AAHOMABDnCAAxzgAAc4wAEOcGD1OFATTg/VEVwL/0YH4H6AVs8PkGvtWnOAAxzgAAc4wAEOcIADHOAABzjAAQ4s5MBQCF1zTHAtuBZcc4ADHOAABzjAAQ5wgAMc4AAHOMABDnCAAxwY5UBNOD1UR3BNyFFCLjS6Yp9RNw5wgAMc4AAHOMABDnCAAxzgAAc4wAEOrC4HhkLommOCa8G14JoDHOAABzjAAQ5wgAMc4AAHOMABDnCAAxzgwCgHasLpoTqCa0KOEtLI2eoaOXO9XW8OcIADHOAABzjAAQ5wgAMc4AAHOMCBhRwYCqFrjgmuBdeCaw5wgAMc4AAHOMABDnCAAxzgAAc4wAEOcIADoxyoCaeH6giuCTlKyIVGV+wz6sYBDnCAAxzgAAc4wAEOcIADHOAABzjAgdXlwFAIXXNMcC24FlxzgAMc4AAHOMABDnCAAxzgAAc4wAEOcIADHBjlQE04PVRHcE3IUUIaOVtdI2eut+vNAQ5wgAMc4AAHOMABDnCAAxzgAAc4sJADQyF0zTHBteBacM0BDnCAAxzgAAc4wAEOcIADHOAABzjAAQ5wYJQDNeH0UB3BNSFHCbnQ6Ip9Rt04wAEOcIADHOAABzjAAQ5wgAMc4AAHOLC6HBgKoWuOCa4F14JrDnCAAxzgAAc4wAEOcIADHOAABzjAAQ5wgAOjHKgJp4fqCK4JOUpII2era+TM9Xa9OcABDnCAAxzgAAc4wAEOcIADHOAABxZyYCiErjkmuBZcC645wAEOcIADHOAABzjAAQ5wgAMc4AAHOMABDoxyoCacHqojuCbkKCEXGl2xz6gbBzjAAQ5wgAMc4AAHOMABDnCAAxzgAAdWlwNDIXTNMcG14FpwzQEOcIADHOAABzjAAQ5wgAMc4AAHOMABDnBglAM14fRQHcE1IUcJaeRsdY2cud6uNwc4wAEOcIADHOAABzjAAQ5wgAMc4MBCDgyF0DXHBNeCa8E1BzjAAQ5wgAMc4AAHOMABDnCAAxzgAAc4wIFRDtSE00N1BNeEHCXkQqMr9hl14wAHOMABDnCAAxzgAAc4wAEOcIADHODA6nJgKISuOSa4FlwLrjnAAQ5wgAMc4AAHOMABDnCAAxzgAAc4wAEOjHKgJpweqrMqguvDhw+Pgm50aHWNDrnerjcHOMABDnCAAxzgAAc4wAEOcIADHOAAByZ3IPnrtP9WRXB95MgRwbURIw5wgAMc4AAHOMABDnCAAxzgAAc4wAEOcIADM3Ag+eu0/1ZFcB1ogWfm9eSjJEaUsOIABzjAAQ5wgAMc4AAHOMABDnCAAxzgAAeGHEjeOovQOnnuqgmup534aw8BBBBAAAEEEEAAAQQQQAABBBBAAAEEEEBgNgQE17PhqlUEEEAAAQQQQAABBBBAAAEEEEAAAQQQQACBSgKC60pwqiGAAAIIIIAAAggggAACCCCAAAIIIIAAAgjMhoDgejZctYoAAggggAACCCCAAAIIIIAAAggggAACCCBQSUBwXQlONQQQQAABBBBAAAEEEEAAAQQQQAABBBBAAIHZEBBcz4arVhFAAAEEEEAAAQQQQAABBBBAAAEEEEAAAQQqCQiuK8GphgACCCCAAAIIIIAAAggggAACCCCAAAIIIDAbAoLr2XDVKgIIIIAAAggggAACCCCAAAIIIIAAAggggEAlAcF1JTjVEEAAAQQQQAABBBBAAAEEEEAAAQQQQAABBGZDQHA9G65aRQABBBBAAAEEEEAAAQQQQAABBBBAAAEEEKgkILiuBKcaAggggAACCCCAAAIIIIAAAggggAACCCCAwGwICK5nw1WrCCCAAAIIIIAAAggggAACCCCAAAIIIIAAApUEBNeV4FRDAAEEEEAAAQQQQAABBBBAAAEEEEAAAQQQmA0BwfVsuGoVAQQQQAABBBBAAAEEEEAAAQQQQAABBBBAoJKA4LoSnGoIIIAAAggggAACCCCAAAIIIIAAAggggAACsyGwaoLrI0eONIcPH24OHTrkhQEHOMABDnCAAxzgAAc4wAEOcIADHOAABzjAgZEOJG9N7jqLv1URXAeewFpgzwEOcIADHOAABzjAAQ5wgAMc4AAHOMABDnBg+g7MIrxeFcG1mdbTl9ENjikHOMABDnCAAxzgAAc4wAEOcIADHOAABzgQB5K/TvtvVQTXbiA3EAc4wAEOcIADHOAABzjAAQ5wgAMc4AAHOMCB2TkguK4gQMjZCYktthzgAAc4wAEOcIADHOAABzjAAQ5wgAMc4EBFbDtYxYzrkQuQuyndlBzgAAc4wAEOcIADHOAABzjAAQ5wgAMc4MBqd2Awha44KLgWXHtwJQc4wAEOcIADHOAABzjAAQ5wgAMc4AAHOMCBUQ5UZNODVQTXhBwl5GofSfL9jaZygAMc4AAHOMABDnCAAxzgAAc4wAEOcODQYAhdc1BwLbgWXHOAAxzgAAc4wAEOcIADHOAABzjAAQ5wgAMcGOVATTg9VEdwTchRQhpNMqLIAQ5wgAMc4AAHOMABDnCAAxzgAAc4wAEODIXQNccE14JrwTUHOMABDnCAAxzgAAc4wAEOcIADHOAABzjAgVEO1ITTQ3UE14QcJaTRNKNpHOAABzjAAQ5wgAMc4AAHOMABDnCAAxzgwFAIXXNMcC24FlxzgAMc4AAHOMABDnCAAxzgAAc4wAEOcIADHBjlQE04PVRHcE3IUUIaTTOaxgEOcIADHOAABzjAAQ5wgAMc4AAHOMABDgyF0DXHBNeCa8E1BzjAAQ5wgAMc4AAHOMABDnCAAxzgAAc4wIFRDtSE00N1BNeEHCWk0TSjaRzgAAc4wAEOcIADHOAABzjAAQ5wgAMc4MBQCF1zTHAtuBZcc4ADHOAABzjAAQ5wgAMc4AAHOMABDnCAAxwY5UBNOD1UR3BNyFFCGk0zmsYBDnCAAxzgAAc4wAEOcIADHOAABzjAAQ4MhdA1xwTXgmvBNQc4wAEOcIADHOAABzjAAQ5wgAMc4AAHOMCBUQ7UhNNDdQTXhBwlpNE0o2kc4AAHOMABDnCAAxzgAAc4wAEOcIADHODAUAhdc0xwLbgWXHOAAxzgAAc4wAEOcIADHOAABzjAAQ5wgAMcGOVATTg9VEdwPQUh9+zZ07z++uvN22+/3Xz88cejLvBio1NpN+2/+OKL7Xbv3r0zOc9i518p+3/72982mze/0bzwwgvNli1bmn379uE4hXtgpfjhexgd5gAHOMABDnCAAxzgAAc4wAEOcIADdQ4MhdA1xwTXI0K7hNVnnnlmc8opp8x5XXPNNc22bduOORBNKL1hw4Zm+/btXd2DBw82d95555z2c75TTz21uf/++7tyk9xQr7zyStfOjh07jqnuJO0nXC8snnzyyYnbz3cs9R555JGJ6y3UpwTSpa3+Ndi5c2dz9dVXd8dKmXB88MEHm/RhofYm2Xfeeee17d5www3VbUxyHmXqfjRxw40DHOAABzjAAQ5wgAMc4AAHOMABDszegZpweqiO4LoyuH788ce/FIKWMDTbb3zjG8c8+7rU74e3Dz/88OB5Hn300YnD0gTj5Rz9cHxaN+5HH33UtR8+k7Y7zeD6+eef7/rw4Ycftn3IrOqFBhgKi2zvvvvuifs7/3udc8457Tm///3vV7cxv02fZ/9jijHGHOAABzjAAQ5wgAMc4AAHOMABDnBgeg4MhdA1xwTXFcF1ZhafdtppXUD6wAMPNLt3726XnvjmN7/Z7b/99tuPKcgsQWo/uC6h6Omnn94uR5IlQp599tnuHGedddbE51itwXV/xvq5557bvPXWW02Wd3niiSc6jmHfn6F9LD9a5RoJrqf3Q3cs/JXFnQMc4AAHOMABDnCAAxzgAAc4wAEOfPUO1ITTQ3UE1xXB9U9/+tMu8PzJT34yJzhO+JnlJxKEJtAsN83+/fvbJT+yL6H3hRde2GQ2dY5n9vO1117btZmlJxK25lgJs+cvQ3HjjTc2CbPPOOOMJm2nbELtdevWNQlns/973/te89RTT3XrOPeD68xMTh/Sl/PPP79dO7v0NduEu5dddll7jswev+66674U7GbN7csvv7w9V9rqB+plxnXC3EsuuaRdjqO0n3Nn36WXXtou0bHYjOtJ+vD00083F1xwQdvPK6+8sj1PYVZmXIdT9uW6ZFZ46Ue2/ZnzYZd9uS7pXz6vX7++5VSuR9bIvv7669sZ9bmWWWZkoeD6aH0fOke/f2Pfb9q0qTn55JPbgZWxban/1f8D4Bq4BhzgAAc4wAEOcIADHOAABzjAAQ4sVQeGQuiaY4LriuD6qquu6gLlhR6SmH2Zld0/dvHFF3d1SrCa7a233tq8++67XzqWmduRMDOqS/nbbrutnXVdguq+pAl/y1rLpXzZ/vCHP2zb6gfX5Vh/++abb7blEnb295f3CYA/+OCDtsw777yzYJlStgTXCb2zL0F76W/C3lIu/V4ouJ6kD5mZXtpZaJvgeteuXV2ZEkyXfmR74MCBbvb8FVdc0fbx5ptvbuuUAYi0neuU61m+z0LfKOOjAAAgAElEQVTnKzOuJ+n7Yufo920a79euXdusWbOmOfHEE4XXFff6NK6BNvwfCg5wgAMc4AAHOMABDnCAAxzgAAdWgwM14fRQHcF1RZhVwuSzzz67C2MTvias7b/KAwr7M5ETgG7e/EbTD78zSzshawlD77333jZwjdAPPfRQt78cz/aiiy5qZ1MneE25nKscv+mmm9oZ1JlJXfYlSO8H15klnAcZZjmTUqbMKs73yr6EtKmzfv0zXZkSgmd2c6mXffne/VB3bHB9tD5k3eqyXEsC5nvuuad9WGXpU7Zh2n8gZbke838oMmM75bMOdo6VUDn7co58v3DoB+6Ff39AogTXR+v70Dnm920an3Othdf+gZyGS9rgEQc4wAEOcIADHOAABzjAAQ5wgAOLOTAUQtccE1xXBNdl6YkEw+VCZRZ0PzQt73P8lltu6Y4lxM5SGf0QNOF0ypU6/TWusz9rMfdD6FIu2wSnCc2zfEU+J2gtYfaWLVva5S4y03jHjh1zgusssZG2U7fMLP7xj3/cLqVR2s/yJelrXmU2d8qmXqnz7W9/u2PQD4nHBNf9hzwu1of+jO/777+/60M/iE9w3Z/9nGU/0vf5rxI+57rmWD+4DsNSPjOywybfPdyyv9/XBNf9z4v1fegc5VzT3gqvv3zdp81YexhzgAMc4AAHOMABDnCAAxzgAAc4sJodqAmnh+oIrhcIMo8mWNZzToBZgs6UT1icdZETgpZgO2VyrASeJRCevy0zncv++cF16U8eKJiZv1l2owTHqZPAuPSpLDFS6vS3/RnXCXXLsayHnXYS2Gbd6tKPxbbpRzmW2eGlnf7+McH1JH147rnnuj5s3ry560N/f77jzp07u3JZm7z0tb8tM8Vz7bK/BNclpC9ly1rWuc5lX7ZlhnWC60n6ntB7sXP02532e+G1fzyn7ZT2OMUBDnCAAxzgAAc4wAEOcIADHOBAcWAohK45JriuCK4THJfgduPGjXNCzATYWXKiHM+FK7Ohsy8PS8xs5/4ra1ynXKlTguusz5xAujz4sEiQbc5byv/85z9vH5KYz2W5i5TJgwRfeuml9jV/qZA8ELK01w+us2xJaTczhvv9zPtnnnmm+f3vf9+VKUuHpK0sgVLqzg+uyzIaKZcZ4KVcQty8yud890n68PLLL3d10q/yXRKkl7ZKOF9C/rApM6VL+f6M7Czjkv0lVO6zzP4y6z1Bd6mfmfal/XzHSfreD67nn6O0O4ttCa5POOEE611X3PezuCba9I87BzjAAQ5wgAMc4AAHOMABDnCAAyvFgZpweqiO4LoiwMryESUczezqzGROgJnZtjfccEN3LGUi3n333dft27BhQ7vvrbfeamdiZzb2G2+80e4rbZalQ/qBbmb1lrA5+++6666uzcy4Tuha6qftnLfsS7CaBwv2Z1yXtlKuH1z3z3nuuee27WRfHgyZvmbZk9RJ4Jrz5fsneM8SGQm6Sx9KcH3ppZe2+1I+50y5Ujdl03b/nAmu+58X60OWPinnykzpXb/Z1WzdurWb/ZxjJbi+4447urLXXHNNOws753j11VfnzI4vAwiLBdf9AYss+ZJr/sADD3RtJ7iepO/ht9g5cmwWL6H1bLjO4lpp07XiAAc4wAEOcIADHOAABzjAAQ5wYDk6MBRC1xwTXFcGhVneowSnQ9tIlpnP5UGCKVuWlsj7hMYJQFOuzNzNNiFp9vUD6pTvt5PPWXs69RPS5nN59ZcrKbOiJwmuc87+rOW00z/nww8/3Pbrscce685VztnfluA6gXd///z3CXr7YW+ZbT5JH6677rrBtktwnQc5lgdqzj9/+RzO+e55LRYqv//++4PnK7PKJ+n7YucofZjmVmjtH7tp+qQtPnGAAxzgAAc4wAEOcIADHOAABziwkAM14fRQHcF1ZXCdi/Pkk092YXMJQBMSZuZ1CXvLRcws6MweLuWyTdn+w//uvvvu7nhZqzqhbmZsl/b69cvs4XKOPESxhN+lXMpktnXKZNmQsn+xGdcpl+VO+g85LHXSv/Lgx/Rrfpl+SF2C68yw/uu//uvuvAnC+zOXFwuuJ+lD2r7sssu6ttPP/jIkWbajsNm9e/ecGeHlO4VXmeVdyg6Fyplp3Wd80UUXNRdccEHbhxJcT9L3oXOUfkxju3bt2mbNmjWN5UH8gzINn7TBIw5wgAMc4AAHOMABDnCAAxzgAAcWc2AohK45JrgeEVznIiV4zRIVWa4jDydc7MKVspkFnHWV+8Fxv05C5hyb31ZmVX/wwQft2tZvvvnml46XNlIuS17kHPPbKGUm3aYvOVdC9xJ+z6+bc+ThiEc7V46HU5ldPr+dxT5P0ofwynIrmVm9WDtlf9b6zndKiB+ex9qftJPzpI1+MF7a728n6Xu//Czex4OTTjrJmtYj7/NZXBtt+oeeAxzgAAc4wAEOcIADHOAABzjAgZXkQE04PVRHcC3QOmrYu5JuIN/FPwgc4AAHOMABDnCAAxzgAAc4wAEOcIADHJi+A0MhdM0xwbXgWnDNAQ5wgAMc4AAHOMABDnCAAxzgAAc4wAEOcGCUAzXh9FAdwTUhRwlpdGr6o1OYYsoBDnCAAxzgAAc4wAEOcIADHOAABziw3BwYCqFrjgmuBdeCaw5wgAMc4AAHOMABDnCAAxzgAAc4wAEOcIADoxyoCaeH6giuCTlKyOU28qO/Ris5wAEOcIADHOAABzjAAQ5wgAMc4AAHODB9B4ZC6JpjgmvBteCaAxzgAAc4wAEOcIADHOAABzjAAQ5wgAMc4MAoB2rC6aE6gmtCjhLS6NT0R6cwxZQDHOAABzjAAQ5wgAMc4AAHOMABDnBguTkwFELXHBNcC64F1xzgAAc4wAEOcIADHOAABzjAAQ5wgAMc4AAHRjlQE04P1RFcE3KUkMtt5Ed/jVZygAMc4AAHOMABDnCAAxzgAAc4wAEOcGD6DgyF0DXHBNeCa8E1BzjAAQ5wgAMc4AAHOMABDnCAAxzgAAc4wIFRDtSE00N1BNeEHCWk0anpj05hiikHOMABDnCAAxzgAAc4wAEOcIADHODAcnNgKISuOSa4FlwLrjnAAQ5wgAMc4AAHOMABDnCAAxzgAAc4wAEOjHKgJpweqiO4JuQoIZfbyI/+Gq3kAAc4wAEOcIADHOAABzjAAQ5wgAMc4MD0HRgKoWuOCa4F14JrDnCAAxzgAAc4wAEOcIADHOAABzjAAQ5wgAOjHKgJp4fqCK4JOUpIo1PTH53CFFMOcIADHOAABzjAAQ5wgAMc4AAHOMCB5ebAUAhdc0xwLbgWXHOAAxzgAAc4wAEOcIADHOAABzjAAQ5wgAMcGOVATTg9VEdwTchRQi63kR/9NVrJAQ5wgAMc4AAHOMABDnCAAxzgAAc4wIHpOzAUQtccE1wLrgXXHOAABzjAAQ5wgAMc4AAHOMABDnCAAxzgAAdGOVATTg/VEVwTcpSQRqemPzqFKaYc4AAHOMABDnCAAxzgAAc4wAEOcIADy82BoRC65pjgWnAtuOYABzjAAQ5wgAMc4AAHOMABDnCAAxzgAAc4MMqBmnB6qM6qCK4PHz48CvpyG93QXyNyHOAABzjAAQ5wgAMc4AAHOMABDnCAAxzgwPFyIPnrtP9WRXB95MgRwbURIw5wgAMc4AAHOMABDnCAAxzgAAc4wAEOcIADM3Ag+eu0/1ZFcB1ogWfmtVGm4zXK5Dxc4wAHOMABDnCAAxzgAAc4wAEOcIADHFjpDiRvnUVonTx31QTX0078tYcAAggggAACCCCAAAIIIIAAAggggAACCCAwGwKC69lw1SoCCCCAAAIIIIAAAggggAACCCCAAAIIIIBAJQHBdSU41RBAAAEEEEAAAQQQQAABBBBAAAEEEEAAAQRmQ0BwPRuuWkUAAQQQQAABBBBAAAEEEEAAAQQQQAABBBCoJCC4rgSnGgIIIIAAAggggAACCCCAAAIIIIAAAggggMBsCAiuZ8NVqwgggAACCCCAAAIIIIAAAggggAACCCCAAAKVBATXleBUQwABBBBAAAEEEEAAAQQQQAABBBBAAAEEEJgNAcH1bLhqFQEEEEAAAQQQQAABBBBAAAEEEEAAAQQQQKCSgOC6EpxqCCCAAAIIIIAAAggggAACCCCAAAIIIIAAArMhILieDVetIoAAAggggAACCCCAAAIIIIAAAggggAACCFQSEFxXglMNAQQQQAABBBBAAAEEEEAAAQQQQAABBBBAYDYEBNez4apVBBBAAAEEEEAAAQQQQAABBBBAAAEEEEAAgUoCgutKcKohgAACCCCAAAIIIIAAAggggAACCCCAAAIIzIaA4Ho2XLWKAAIIIIAAAggggAACCCCAAAIIIIAAAgggUElAcF0JTjUEEEAAAQQQQAABBBBAAAEEEEAAAQQQQACB2RBYNcH1kSNHmsOHDzeHDh3ywoADHOAABzjAAQ5wgAMc4AAHOMABDnCAAxzgwEgHkrcmd53F36oIrgNPYC2w5wAHOMABDnCAAxzgAAc4wAEOcIADHOAABzgwfQdmEV6viuDaTOvpy+gGx5QDHOAABzjAAQ5wgAMc4AAHOMABDnCAAxyIA8lfp/23KoJrN5AbiAMc4AAHOMABDnCAAxzgAAc4wAEOcIADHODA7BwQXFcQIOTshMQWWw5wgAMc4AAHOMABDnCAAxzgAAc4wAEOcKAith2sYsb1yAXI3ZRuSg5wgAMc4AAHOMABDnCAAxzgAAc4wAEOcGC1OzCYQlccFFwLrj24kgMc4AAHOMABDnCAAxzgAAc4wAEOcIADHODAKAcqsunBKoJrQo4ScrWPJPn+RlM5wAEOcIADHOAABzjAAQ5wgAMc4AAHOHBoMISuOSi4FlwLrjnAAQ5wgAMc4AAHOMABDnCAAxzgAAc4wAEOjHKgJpweqiO4JuQoIY0mGVHkAAc4wAEOcIADHOAABzjAAQ5wgAMc4AAHhkLommOCa8G14JoDHOAABzjAAQ5wgAMc4AAHOMABDnCAAxzgwCgHasLpoTqCa0KOEtJomtE0DnCAAxzgAAc4wAEOcIADHOAABzjAAQ5wYCiErjkmuBZcC645wAEOcIADHOAABzjAAQ5wgAMc4AAHOMABDoxyoCacHqojuCbkKCGNphlN4wAHOMABDnCAAxzgAAc4wAEOcIADHOAAB4ZC6JpjgmvBteCaAxzgAAc4wAEOcIADHOAABzjAAQ5wgAMc4MAoB2rC6aE6gmtCjhLSaJrRNA5wgAMc4AAHOMABDnCAAxzgAAc4wAEOcGAohK45JrgWXAuuOcABDnCAAxzgAAc4wAEOcIADHOAABzjAAQ6McqAmnB6qI7gm5CghjaYZTeMABzjAAQ5wgAMc4AAHOMABDnCAAxzgAAeGQuiaY4JrwbXgmgMc4AAHOMABDnCAAxzgAAc4wAEOcIADHODAKAdqwumhOoJrQo4S0mia0TQOcIADHOAABzjAAQ5wgAMc4AAHOMABDnBgKISuOSa4FlwLrjnAAQ5wgAMc4AAHOMABDnCAAxzgAAc4wAEOjHKgJpweqiO4HiHk/v37my1btjQvvvhi8/rrrze//e1vR13clTYydfDgwWb79u3Nxo0bm5deeqn58MMPm+xbad/T9zGiyAEOcIADHOAABzjAAQ5wgAMc4AAHOLDaHRgKoWuOCa4rg+tnn322Of3005tTTjllzuuGG25o9u7dO3E4u2/fvq7+M888M3G9Y7kRzjvvvPYc6dux1Lvwwgvbetdee+0x1cs53nzzzeacc87pvlvh9I1vfKN5+eWXj7m90u8XXniha3Pbtm3V7ZT2bP2jwgEOcIADHOAABzjAAQ5wgAMc4AAHOMCB8Q7UhNNDdQTXFcH122+/3YWnJZDtb48l6E3IXeo++eSTMwliS4D8/e9//5jav+CCC9q+XXPNNcdU7/333+++U/lu87eZoV7zg/D88893bWcGd00b6oz/IcIQQw5wgAMc4AAHOMABDnCAAxzgAAc4wIG+A0MhdM0xwXVFcP3jH/+4C0+feuqp5uOPP24SZp922mnd/kmXDVmJwXWZqZ2wOmF5AuYdO3Y0t912W8fn7LPPbg4cOHDMwbPg2g9i/wfRez5wgAMc4AAHOMABDnCAAxzgAAc4wIGl4UBNOD1UR3BdEVxfcsklbQCbZS/6N8bjjz/eLh+SJUT6M4rz/vLLL2+PnX/++c1dd93VvPfee23dfnD9s5/9rLn66qvbcgl277vvvjlrQu/atasNgnPenOOKK65o14/u9yGB+fXXX9+kTGZaP/jgg92SHWXG9QMPPNDkO/SXDkm4nH15vfvuu23fFppxfbQ+bN26tQunL7744jn9Tz/ThzL7OuteJ/Qv5920aVNz0003NWeccUa33MrTTz/dpB/5vldeeWX7fUr9MuM6a43feeed7ffM4EGC84cffri7Nkc7R5/fmPfp/8knn9zs3r27O/eY9tRdGj+6roPrwAEOcIADHOAABzjAAQ5wgAMc4AAHju7AUAhdc0xwXRFcJ1wt4WmW0cgs4I8++mjBsLK/JnOpk+2pp57aZEmNfnDdP17e33///W27CaT7M7rL8Wyz3nZunrSVwLp/rP++BNcJrLP/zDPP7Pr8zjvvdPUSwKa9+cH1JH3IOt3lnAutZZ3AvhxPUJ82y+cwKe8TNj/yyCPd57K/vy3BdQLy/v7y/tZbb+3YlX3zzzHNH521a9c2a9asaU488UThdcV9Nc1roa2j/2OCEUYc4AAHOMABDnCAAxzgAAc4wAEOTNOBmnB6qI7guiJgy4MHSxDa32aG809+8pMuxD548GAXJCd03rBhQ5MgutRZt27dnOA6oeqjjz7aPPHEE22wnXIJjyPQzTff3NXLzO5XXnmlOeuss9p9JYDO7OrS9kUXXdRkGZN+qDs2uJ6kD7fffnvXh+3bt3fBeLkJMju69PHGG2+cE1xnf/qbwDnBdQnqw+Wee+6Zwy5lE1wntC/tpd7mzW80V111VbcvfeiH4/1zpC+lX9PaxgHhtR/9afmkHS5xgAMc4AAHOMABDnCAAxzgAAc4sFwcGAqha44JriuC68iS5T+yVEcJTfvbLGuRJTW2bdvWHU+oXCR76KGHmoTWeRhjf8b1D3/4w67Mt7/97bZugtDUyzbnyBIimeGdV5YEKefNTObSnwS9Cc1TLzPBS5mxwfUkfciSHeV8Cy2ZkX6V49ddd92cULn/EMj+DPAy6zzfpx+MJ7i+5ZZbuvYSYodLP8AP635w3T9HuR7T3gqv/YMybae0xykOcIADHOAABzjAAQ5wgAMc4AAHlroDNeH0UB3BdWVwXUTZt29f89prr7VrLPeX6UjAmiU3Skib9ZxLnf62H1z/8pe/7MqUtaATVKd8f4mL0mZ/m3OVYDlrRvfPkTZSdmxwPUkfsiZ16dcbb7wxpx/pU2ZAl+N33333nFA5IXPpdwLoUm7z5s3d/ueee67bn+C6hPWl7PxtgvR+cN0/RznXLLbCa/+YzMIrbfKKAxzgAAc4wAEOcIADHOAABzjAgaXqwFAIXXNMcF0RXGfWbh4AmHC6L0pmN5dwN8tVvPXWW13ImrWfS9kEugmy33777TkzrjMDu5SZH1zngYUJZROIJhye/9r1m11NHvyYMgnQSztZDqP0qQTXmdmdcmmzlEt/Sui72BrXk/ShP1O6P4O8nCcPpiznydIp/VA536mUy1IopVx//7333tvtT3Ddn3WepVHmc8mDJhc7RznXLLYluD7hhBOsd11xj83immjTP+wc4AAHOMABDnCAAxzgAAc4wAEOcGB2DtSE00N1BNcVodqll17ahadZMqQI3w9bb7vttjnLdFx55ZVtuQTMJZBNiNufcT0UXF922WVdvbIER9a6zozjtJ01obNmdGk7y2YktH7ggQe6fSW4zjrcpVzWhM7yHddee223b7HgepI+pK3yUMecI+dK3zIz/bHHHuvOkXA9332xUHnHjh1d2ax7HW5bt25tl0opfU9wfd9993XlEoTnWmTAIFzyyiDBYuco123aW6H17H4Ap32ttOdacYADHOAABzjAAQ5wgAMc4AAHOMCB6TgwFELXHBNcVwTXGzdu7MLShKiZ0VxmNZfPCVkj/Q9+8IOubNa+LqFrtlkDe9LgOsuRlLo5Vx7IWD6XdZvff//9bl851t+W4PrFF1+cU67f95RfLLiepA/5zh988MGc9vt9KO/LOYZC5ayBXcovtE1wnfrlIY4pU5ZFyfvMEE94P3SOaf8wCa2n80M37euiPdeFAxzgAAc4wAEOcIADHOAABzjAAQ7M1oGacHqojuC6IriO5C+88EJz1llnfSlYPe+889pZvuVGyPIhWTakH7wmKM7s7JSZNLhO2SyD0Q9p02ZC6z179rRtpUxmWveD6IsuuqibAV2C68yKvummm+b0qf/QwxIqZzmUnCOzscv3maQPKZslQ8Ki/73zPoF7aT/l0vdSpr+cSo6FXX+Wd8rloZalfIL/lMsM63PPPbfbn+MJkLds2dIeHzpH6k/rtXbt2mbNmjWN5UGmx3Ra10Y7rgkHOMABDnCAAxzgAAc4wAEOcIADHJitA0MhdM0xwfWI4DIB8K9//ev24YxZMiTLWyx2A2Spi1dffbV57733mgMHDixabrH6ZX9mEKeNnK8fWJfj2WZZjjfffLOd0d3fP/99QvPM0s52/rGhz5P0odTftWtXG1QnrM6DGcOsHJt0m3pZ8iPfa7E6aTczsMt5Fis3y/0590knnWRN6xH31Cyvj7Zn+48TvvhygAMc4AAHOMABDnCAAxzgAAdWtwM14fRQHcG1kG3RMNiPzer+sXH9XX8OcIADHOAABzjAAQ5wgAMc4AAHOMCBSR0YCqFrjgmuBdeCaw5wgAMc4AAHOMABDnCAAxzgAAc4wAEOcIADoxyoCaeH6giuCTlKyElHXJQzOscBDnCAAxzgAAc4wAEOcIADHOAABzjAgZXrwFAIXXNMcC24FlxzgAMc4AAHOMABDnCAAxzgAAc4wAEOcIADHBjlQE04PVRHcE3IUUIaJVu5o2SurWvLAQ5wgAMc4AAHOMABDnCAAxzgAAc4MKkDQyF0zTHBteBacM0BDnCAAxzgAAc4wAEOcIADHOAABzjAAQ5wYJQDNeH0UB3BNSFHCTnpiItyRuc4wAEOcIADHOAABzjAAQ5wgAMc4AAHOLByHRgKoWuOCa4F14JrDnCAAxzgAAc4wAEOcIADHOAABzjAAQ5wgAOjHKgJp4fqCK4JOUpIo2Qrd5TMtXVtOcABDnCAAxzgAAc4wAEOcIADHOAAByZ1YCiErjkmuBZcC645wAEOcIADHOAABzjAAQ5wgAMc4AAHOMABDoxyoCacHqojuCbkKCEnHXFRzugcBzjAAQ5wgAMc4AAHOMABDnCAAxzgAAdWrgNDIXTNMcG14FpwzQEOcIADHOAABzjAAQ5wgAMc4AAHOMABDnBglAM14fRQHcE1IUcJaZRs5Y6SubauLQc4wAEOcIADHOAABzjAAQ5wgAMc4MCkDgyF0DXHBNeCa8E1BzjAAQ5wgAMc4AAHOMABDnCAAxzgAAc4wIFRDtSE00N1BNeEHCXkpCMuyhmd4wAHOMABDnCAAxzgAAc4wAEOcIADHODAynVgKISuOSa4FlwLrjnAAQ5wgAMc4AAHOMABDnCAAxzgAAc4wAEOjHKgJpweqiO4JuQoIY2SrdxRMtfWteUABzjAAQ5wgAMc4AAHOMABDnCAAxyY1IGhELrmmOBacC245gAHOMABDnCAAxzgAAc4wAEOcIADHOAABzgwyoGacHqojuCakKOEnHTERTmjcxzgAAc4wAEOcIADHOAABzjAAQ5wgAMcWLkODIXQNccE14JrwTUHOMABDnCAAxzgAAc4wAEOcIADHOAABzjAgVEO1ITTQ3VWRXB9+PDhUdCNBK3ckSDX1rXlAAc4wAEOcIADHOAABzjAAQ5wgAMc4MA4B5K/TvtvVQTXR44cEVwbMeIABzjAAQ5wgAMc4AAHOMABDnCAAxzgAAc4MAMHkr9O+29VBNeBFnhmXo8bOTHyhB8HOMABDnCAAxzgAAc4wAEOcIADHOAABzhQHEjeOovQOnnuqgmup534aw8BBBBAAAEEEEAAAQQQQAABBBBAAAEEEEBgNgQE17PhqlUEEEAAAQQQQAABBBBAAAEEEEAAAQQQQACBSgKC60pwqiGAAAIIIIAAAggggAACCCCAAAIIIIAAAgjMhoDgejZctYoAAggggAACCCCAAAIIIIAAAggggAACCCBQSUBwXQlONQQQQAABBBBAAAEEEEAAAQQQQAABBBBAAIHZEBBcz4arVhFAAAEEEEAAAQQQQAABBBBAAAEEEEAAAQQqCQiuK8GphgACCCCAAAIIIIAAAggggAACCCCAAAIIIDAbAoLr2XDVKgIIIIAAAggggAACCCCAAAIIIIAAAggggEAlAcF1JTjVEEAAAQQQQAABBBBAAAEEEEAAAQQQQAABBGZDQHA9G65aRQABBBBAAAEEEEAAAQQQQAABBBBAAAEEEKgkILiuBKcaAggggAACCCCAAAIIIIAAAggggAACCCCAwGwICK5nw1WrCCCAAAIIIIAAAggggAACCCCAAAIIIIAAApUEBNeV4P5fO3eswiAMRQG0//9rLXQX+gHi7CiW29kp8UGqJ9Cl5YV4cqeL1BgBAgQIECBAgAABAgQIECBAgAABAgQI1Agormtc7UqAAAECBAgQIECAAAECBAgQIECAAAECjQKK60Y4YwQIECBAgAABAgQIECBAgAABAgQIECBQI6C4rnG1KwECBAgQIECAAAECBAgQIECAAAECBAg0CiiuG+GMESBAgAABAgQIECBAgAABAgQIECBAgECNwHDF9fP13rdtq3lauxIgQIAAAQIECBAgQIAAAQIECBAgQIDA0ALph9MT96xHzxY5ClIAAAD1SURBVPDR7DR99nlejn7yHQECBAgQIECAAAECBAgQIECAAAECBAhcXCD9cHrinnV6cb2u669Nz+G8ed1zNWYJECBAgAABAgQIECBAgAABAgQIECDwPwLpg9ML523r9MQ96/TiOofJodKo54D5LxMfBjIgAzIgAzIgAzIgAzIgAzIgAzIgAzIgAzIgAzJw7QykD04v3Ftap2MuKa57mnSzBAgQIECAAAECBAgQIECAAAECBAgQIHBvAcX1ve/f0xMgQIAAAQIECBAgQIAAAQIECBAgQGA4AcX1cFfiQAQIECBAgAABAgQIECBAgAABAgQIELi3wBcNplwYaHNk0QAAAABJRU5ErkJggg==;" vertex="1" parent="1">
          <mxGeometry x="20" y="40" width="1201.65" height="800" as="geometry" />
        </mxCell>
      </root>
    </mxGraphModel>
  </diagram>
</mxfile>
